999
FreeCAD v0.21 33771 (Git)
  0
SECTION
  2
HEADER
  9
$ACADVER
  1
AC1014
  9
$ACADMAINTVER
 70
     9
  9
$DWGCODEPAGE
  3
ANSI_1252
  9
$TEXTSTYLE
  7
STANDARD
  9
$DIMSTYLE
  2
STANDARD
  9
$DIMTXSTY
  7
STANDARD
  9
$CMLSTYLE
  2
STANDARD
  9
$LUNITS
 70
2
  9
$INSUNITS
 70
4
  9
$PEXTMAX
 10
50
 20
50
 30
50
  9
$PEXTMIN
 10
0
 20
0
 30
0
  9
$HANDSEED
  5
FFFF
  0
ENDSEC
  0
SECTION
  2
CLASSES
  0
CLASS
  1
ACDBDICTIONARYWDFLT
  2
AcDbDictionaryWithDefault
  3
ObjectDBX Classes
 90
        0
280
     0
281
     0
  0
CLASS
  1
XRECORD
  2
AcDbXrecord
  3
ObjectDBX Classes
 90
        0
280
     0
281
     0
  0
CLASS
  1
LWPOLYLINE
  2
AcDbPolyline
  3
ObjectDBX Classes
 90
        0
280
     0
281
     1
  0
ENDSEC
  0
SECTION
  2
TABLES
  0
TABLE
  2
VPORT
  5
20
330
0
100
AcDbSymbolTable
 70
     1
  0
VPORT
  5
21
330
20
100
AcDbSymbolTableRecord
100
AcDbViewportTableRecord
  2
*ACTIVE
 70
     0
  0
ENDTAB
  0
TABLE
  2
LTYPE
  5
22
330
0
100
AcDbSymbolTable
 70
     1
  0
LTYPE
  5
23
330
21
100
AcDbSymbolTableRecord
100
AcDbLinetypeTableRecord
  2
BYBLOCK
 70
     0
  3

 72
    65
 73
     0
 40
0.0
  0
LTYPE
  5
24
330
21
100
AcDbSymbolTableRecord
100
AcDbLinetypeTableRecord
  2
BYLAYER
 70
     0
  3

 72
    65
 73
     0
 40
0.0
  0
LTYPE
  5
25
330
21
100
AcDbSymbolTableRecord
100
AcDbLinetypeTableRecord
  2
CONTINUOUS
 70
     0
  3
Solid line
 72
    65
 73
     0
 40
0.0
  0
ENDTAB
  0
TABLE
  2
LAYER
  5
A12
330
0
100
AcDbSymbolTable
 70
3
  0
LAYER
  5
A13
330
A12
100
AcDbSymbolTableRecord
100
AcDbLayerTableRecord
  2
0
 70
   0
 62
   7
  6
CONTINUOUS
  0
LAYER
  5
A14
330
A12
100
AcDbSymbolTableRecord
100
AcDbLayerTableRecord
  2
none
 70
    0
 62
    7
  6
CONTINUOUS
  0
LAYER
  5
A15
330
A12
100
AcDbSymbolTableRecord
100
AcDbLayerTableRecord
  2
Spiral
 70
    0
 62
    7
  6
CONTINUOUS
  0
ENDTAB
  0
TABLE
  2
STYLE
  5
70
330
0
100
AcDbSymbolTable
 70
     2
  0
STYLE
  5
71
330
70
100
AcDbSymbolTableRecord
100
AcDbTextStyleTableRecord
  2
STANDARD
 70
     0
 40
0.0
 41
1.0
 50
0.0
 71
     0
 42
2.5
  3
arial.ttf
  4

  0
STYLE
  5
72
330
70
100
AcDbSymbolTableRecord
100
AcDbTextStyleTableRecord
  2
ANNOTATIVE
 70
     0
 40
0.0
 41
1.0
 50
0.0
 71
     0
 42
2.5
  3
arial.ttf
  4

  0
ENDTAB
  0
TABLE
  2
VIEW
  5
73
330
0
100
AcDbSymbolTable
 70
     0
  0
ENDTAB
  0
TABLE
  2
UCS
  5
74
330
0
100
AcDbSymbolTable
 70
     0
  0
ENDTAB
  0
TABLE
  2
APPID
  5
75
330
0
100
AcDbSymbolTable
 70
     2
  0
APPID
  5
76
330
75
100
AcDbSymbolTableRecord
100
AcDbRegAppTableRecord
  2
ACAD
 70
     0
  0
APPID
  5
77
330
75
100
AcDbSymbolTableRecord
100
AcDbRegAppTableRecord
  2
ACADANNOTATIVE
 70
     0
  0
ENDTAB
  0
TABLE
  2
DIMSTYLE
  5
78
330
0
100
AcDbSymbolTable
 70
     2
  0
DIMSTYLE
105
79
330
78
100
AcDbSymbolTableRecord
100
AcDbDimStyleTableRecord
  2
STANDARD
 70
     0
  3

  4

  5

  6

  7

 40
0.0
 41
2.5
 42
0.625
 43
3.75
 44
1.25
 45
0.0
 46
0.0
 47
0.0
 48
0.0
140
2.5
141
2.5
142
0.0
143
0.03937007874016
144
1.0
145
0.0
146
1.0
147
0.625
 71
     0
 72
     0
 73
     0
 74
     0
 75
     0
 76
     0
 77
     1
 78
     8
170
     0
171
     3
172
     1
173
     0
174
     0
175
     0
176
     0
177
     0
178
     0
270
     2
271
     2
272
     2
273
     2
274
     3
340
71
275
     0
280
     0
281
     0
282
     0
283
     0
284
     8
285
     0
286
     0
287
     3
288
     0
  0
ENDTAB
  0
TABLE
  2
BLOCK_RECORD
  5
A01
330
0
100
AcDbSymbolTable
  70
5
  0
BLOCK_RECORD
  5
A02
330
A01
100
AcDbSymbolTableRecord
100
AcDbBlockTableRecord
  2
*MODEL_SPACE
  0
BLOCK_RECORD
  5
A03
330
A01
100
AcDbSymbolTableRecord
100
AcDbBlockTableRecord
  2
*PAPER_SPACE
  0
ENDTAB
  0
ENDSEC
  0
SECTION
  2
BLOCKS
  0
BLOCK
  5
A04
330
A02
100
AcDbEntity
  8
0
100
AcDbBlockBegin
  2
*MODEL_SPACE
 70
   0
 10
0
 20
0
 30
0
  3
*MODEL_SPACE
  1
 
  0
ENDBLK
  5
A05
330
A02
100
AcDbEntity
  8
0
100
AcDbBlockEnd
  0
BLOCK
  5
A06
330
A03
100
AcDbEntity
 67
1
  8
0
100
AcDbBlockBegin
  2
*PAPER_SPACE
 70
   0
 10
0
 20
0
 30
0
  3
*PAPER_SPACE
  1
 
  0
ENDBLK
  5
A07
330
A03
100
AcDbEntity
 67
    1
  8
0
100
AcDbBlockEnd
  0
ENDSEC
  0
SECTION
  2
ENTITIES
  0
SPLINE
  5
A08
330
A02
100
AcDbEntity
  8
Spiral
100
AcDbSpline
210
0
220
0
230
1
 70
8
 71
3
 72
29
 73
25
 74
0
 40
0
 40
0
 40
0
 40
0
 40
0.785498
 40
0.785498
 40
0.785498
 40
1.571
 40
1.571
 40
1.571
 40
2.35649
 40
2.35649
 40
2.35649
 40
3.14199
 40
3.14199
 40
3.14199
 40
3.92749
 40
3.92749
 40
3.92749
 40
4.71299
 40
4.71299
 40
4.71299
 40
5.49848
 40
5.49848
 40
5.49848
 40
6.28398
 40
6.28398
 40
6.28398
 40
6.28398
 10
2
 20
-2.22045e-16
 30
0
 10
2.08603
 20
0.523023
 30
0
 10
1.95137
 20
1.11532
 30
0
 10
1.59099
 20
1.59099
 30
0
 10
1.23583
 20
2.06819
 30
0
 10
0.656718
 20
2.41874
 30
0
 10
-7.16642e-09
 20
2.5
 30
0
 10
-0.654105
 20
2.58656
 30
0
 10
-1.37656
 20
2.39799
 30
0
 10
-1.94454
 20
1.94454
 30
0
 10
-2.51481
 20
1.49707
 30
0
 10
-2.91928
 20
0.787801
 30
0
 10
-3
 20
-6.62943e-10
 30
0
 10
-3.08709
 20
-0.785188
 30
0
 10
-2.84461
 20
-1.6378
 30
0
 10
-2.2981
 20
-2.2981
 30
0
 10
-1.75831
 20
-2.96142
 30
0
 10
-0.918883
 20
-3.41981
 30
0
 10
6.74679e-09
 20
-3.5
 30
0
 10
0.91627
 20
-3.58762
 30
0
 10
1.89904
 20
-3.29123
 30
0
 10
2.65165
 20
-2.65165
 30
0
 10
3.40804
 20
-2.01955
 30
0
 10
3.92034
 20
-1.04997
 30
0
 10
4
 20
1.55431e-15
 30
0
  0
SPLINE
  5
A09
330
A02
100
AcDbEntity
  8
Spiral
100
AcDbSpline
210
0
220
0
230
1
 70
8
 71
3
 72
38
 73
34
 74
0
 40
0
 40
0
 40
0
 40
0
 40
0.785498
 40
0.785498
 40
0.785498
 40
1.571
 40
1.571
 40
1.571
 40
2.35649
 40
2.35649
 40
2.35649
 40
3.14199
 40
3.14199
 40
3.14199
 40
3.92749
 40
3.92749
 40
3.92749
 40
4.32024
 40
4.32024
 40
4.32024
 40
4.71299
 40
4.71299
 40
4.71299
 40
5.10573
 40
5.10573
 40
5.10573
 40
5.49848
 40
5.49848
 40
5.49848
 40
5.89123
 40
5.89123
 40
5.89123
 40
6.28398
 40
6.28398
 40
6.28398
 40
6.28398
 10
4
 20
1.55431e-15
 30
0
 10
4.08815
 20
1.04735
 30
0
 10
3.73784
 20
2.16028
 30
0
 10
3.0052
 20
3.0052
 30
0
 10
2.28079
 20
3.85466
 30
0
 10
1.18105
 20
4.42087
 30
0
 10
-7.3063e-09
 20
4.5
 30
0
 10
-1.17843
 20
4.58868
 30
0
 10
-2.42152
 20
4.18446
 30
0
 10
-3.35876
 20
3.35876
 30
0
 10
-4.30128
 20
2.54203
 30
0
 10
-4.9214
 20
1.31213
 30
0
 10
-5
 20
-6.62942e-10
 30
0
 10
-5.08921
 20
-1.30952
 30
0
 10
-4.63108
 20
-2.68276
 30
0
 10
-3.71231
 20
-3.71231
 30
0
 10
-3.25612
 20
-4.22797
 30
0
 10
-2.69128
 20
-4.65838
 30
0
 10
-2.05692
 20
-4.96585
 30
0
 10
-1.42301
 20
-5.27395
 30
0
 10
-0.7201
 20
-5.4587
 30
0
 10
6.60691e-09
 20
-5.5
 30
0
 10
0.719924
 20
-5.54207
 30
0
 10
1.45639
 20
-5.4405
 30
0
 10
2.15259
 20
-5.19682
 30
0
 10
2.84894
 20
-4.95393
 30
0
 10
3.50434
 20
-4.569
 30
0
 10
4.06586
 20
-4.06586
 30
0
 10
4.62783
 20
-3.56342
 30
0
 10
5.0953
 20
-2.94311
 30
0
 10
5.42779
 20
-2.24827
 30
0
 10
5.76097
 20
-1.5539
 30
0
 10
5.95873
 20
-0.785556
 30
0
 10
6
 20
-1.77636e-15
 30
0
  0
SPLINE
  5
A0A
330
A02
100
AcDbEntity
  8
Spiral
100
AcDbSpline
210
0
220
0
230
1
 70
8
 71
3
 72
53
 73
49
 74
0
 40
0
 40
0
 40
0
 40
0
 40
0.392749
 40
0.392749
 40
0.392749
 40
0.785498
 40
0.785498
 40
0.785498
 40
1.17825
 40
1.17825
 40
1.17825
 40
1.571
 40
1.571
 40
1.571
 40
1.96374
 40
1.96374
 40
1.96374
 40
2.35649
 40
2.35649
 40
2.35649
 40
2.74924
 40
2.74924
 40
2.74924
 40
3.14199
 40
3.14199
 40
3.14199
 40
3.53474
 40
3.53474
 40
3.53474
 40
3.92749
 40
3.92749
 40
3.92749
 40
4.32024
 40
4.32024
 40
4.32024
 40
4.71299
 40
4.71299
 40
4.71299
 40
5.10573
 40
5.10573
 40
5.10573
 40
5.49848
 40
5.49848
 40
5.49848
 40
5.89123
 40
5.89123
 40
5.89123
 40
6.28398
 40
6.28398
 40
6.28398
 40
6.28398
 10
6
 20
2.88658e-15
 30
0
 10
6.0421
 20
0.78538
 30
0
 10
5.92753
 20
1.58727
 30
0
 10
5.65876
 20
2.34394
 30
0
 10
5.39085
 20
3.10077
 30
0
 10
4.96886
 20
3.81164
 30
0
 10
4.41942
 20
4.41942
 30
0
 10
3.87071
 20
5.02769
 30
0
 10
3.19494
 20
5.53222
 30
0
 10
2.43961
 20
5.88973
 30
0
 10
1.68478
 20
6.24799
 30
0
 10
0.851012
 20
6.45877
 30
0
 10
-7.44618e-09
 20
6.5
 30
0
 10
-0.850836
 20
6.54214
 30
0
 10
-1.71815
 20
6.41455
 30
0
 10
-2.53528
 20
6.1207
 30
0
 10
-3.35259
 20
5.82778
 30
0
 10
-4.11893
 20
5.36873
 30
0
 10
-4.77297
 20
4.77297
 30
0
 10
-5.42755
 20
4.17801
 30
0
 10
-5.96915
 20
3.44677
 30
0
 10
-6.35167
 20
2.63095
 30
0
 10
-6.73501
 20
1.81566
 30
0
 10
-6.9588
 20
0.916467
 30
0
 10
-7
 20
-6.62941e-10
 30
0
 10
-7.04217
 20
-0.916291
 30
0
 10
-6.90157
 20
-1.84903
 30
0
 10
-6.58264
 20
-2.72662
 30
0
 10
-6.2647
 20
-3.60442
 30
0
 10
-5.76859
 20
-4.42622
 30
0
 10
-5.12652
 20
-5.12652
 30
0
 10
-4.4853
 20
-5.82742
 30
0
 10
-3.6986
 20
-6.40607
 30
0
 10
-2.82229
 20
-6.81361
 30
0
 10
-1.94654
 20
-7.22203
 30
0
 10
-0.981923
 20
-7.45884
 30
0
 10
6.46701e-09
 20
-7.5
 30
0
 10
0.981747
 20
-7.54221
 30
0
 10
1.97992
 20
-7.38859
 30
0
 10
2.91796
 20
-7.04458
 30
0
 10
3.85625
 20
-6.70162
 30
0
 10
4.73352
 20
-6.16845
 30
0
 10
5.48008
 20
-5.48008
 30
0
 10
6.22728
 20
-4.79259
 30
0
 10
6.84299
 20
-3.95042
 30
0
 10
7.27555
 20
-3.01363
 30
0
 10
7.70906
 20
-2.07742
 30
0
 10
7.95887
 20
-1.04738
 30
0
 10
8
 20
-1.15463e-14
 30
0
  0
SPLINE
  5
A0B
330
A02
100
AcDbEntity
  8
Spiral
100
AcDbSpline
210
0
220
0
230
1
 70
8
 71
3
 72
53
 73
49
 74
0
 40
0
 40
0
 40
0
 40
0
 40
0.392749
 40
0.392749
 40
0.392749
 40
0.785498
 40
0.785498
 40
0.785498
 40
1.17825
 40
1.17825
 40
1.17825
 40
1.571
 40
1.571
 40
1.571
 40
1.96374
 40
1.96374
 40
1.96374
 40
2.35649
 40
2.35649
 40
2.35649
 40
2.74924
 40
2.74924
 40
2.74924
 40
3.14199
 40
3.14199
 40
3.14199
 40
3.53474
 40
3.53474
 40
3.53474
 40
3.92749
 40
3.92749
 40
3.92749
 40
4.32024
 40
4.32024
 40
4.32024
 40
4.71299
 40
4.71299
 40
4.71299
 40
5.10573
 40
5.10573
 40
5.10573
 40
5.49848
 40
5.49848
 40
5.49848
 40
5.89123
 40
5.89123
 40
5.89123
 40
6.28398
 40
6.28398
 40
6.28398
 40
6.28398
 10
8
 20
1.06581e-14
 30
0
 10
8.04224
 20
1.0472
 30
0
 10
7.87561
 20
2.1108
 30
0
 10
7.50652
 20
3.1093
 30
0
 10
7.13855
 20
4.10808
 30
0
 10
6.56831
 20
5.04081
 30
0
 10
5.83363
 20
5.83363
 30
0
 10
5.09989
 20
6.62714
 30
0
 10
4.20225
 20
7.27992
 30
0
 10
3.20497
 20
7.73749
 30
0
 10
2.20831
 20
8.19608
 30
0
 10
1.11283
 20
8.45891
 30
0
 10
-7.58607e-09
 20
8.5
 30
0
 10
-1.11266
 20
8.54228
 30
0
 10
-2.24168
 20
8.36263
 30
0
 10
-3.30064
 20
7.96846
 30
0
 10
-4.35991
 20
7.57547
 30
0
 10
-5.3481
 20
6.96817
 30
0
 10
-6.18718
 20
6.18718
 30
0
 10
-7.027
 20
5.40718
 30
0
 10
-7.71684
 20
4.45408
 30
0
 10
-8.19943
 20
3.39632
 30
0
 10
-8.6831
 20
2.33919
 30
0
 10
-8.95894
 20
1.17829
 30
0
 10
-9
 20
-6.62936e-10
 30
0
 10
-9.04231
 20
-1.17811
 30
0
 10
-8.84965
 20
-2.37256
 30
0
 10
-8.4304
 20
-3.49199
 30
0
 10
-8.01239
 20
-4.61174
 30
0
 10
-7.36804
 20
-5.6554
 30
0
 10
-6.54074
 20
-6.54074
 30
0
 10
-5.71447
 20
-7.42686
 30
0
 10
-4.70591
 20
-8.15376
 30
0
 10
-3.58766
 20
-8.66137
 30
0
 10
-2.47007
 20
-9.17012
 30
0
 10
-1.24375
 20
-9.45898
 30
0
 10
6.32712e-09
 20
-9.5
 30
0
 10
1.24357
 20
-9.54235
 30
0
 10
2.50344
 20
-9.33667
 30
0
 10
3.68333
 20
-8.89234
 30
0
 10
4.86356
 20
-8.44932
 30
0
 10
5.96269
 20
-7.7679
 30
0
 10
6.89429
 20
-6.89429
 30
0
 10
7.82673
 20
-6.02177
 30
0
 10
8.59069
 20
-4.95774
 30
0
 10
9.12331
 20
-3.779
 30
0
 10
9.65714
 20
-2.60095
 30
0
 10
9.95901
 20
-1.3092
 30
0
 10
10
 20
-2.81997e-14
 30
0
  0
SPLINE
  5
A0C
330
A02
100
AcDbEntity
  8
Spiral
100
AcDbSpline
210
0
220
0
230
1
 70
8
 71
3
 72
53
 73
49
 74
0
 40
0
 40
0
 40
0
 40
0
 40
0.392749
 40
0.392749
 40
0.392749
 40
0.785498
 40
0.785498
 40
0.785498
 40
1.17825
 40
1.17825
 40
1.17825
 40
1.571
 40
1.571
 40
1.571
 40
1.96374
 40
1.96374
 40
1.96374
 40
2.35649
 40
2.35649
 40
2.35649
 40
2.74924
 40
2.74924
 40
2.74924
 40
3.14199
 40
3.14199
 40
3.14199
 40
3.53474
 40
3.53474
 40
3.53474
 40
3.92749
 40
3.92749
 40
3.92749
 40
4.32024
 40
4.32024
 40
4.32024
 40
4.71299
 40
4.71299
 40
4.71299
 40
5.10573
 40
5.10573
 40
5.10573
 40
5.49848
 40
5.49848
 40
5.49848
 40
5.89123
 40
5.89123
 40
5.89123
 40
6.28398
 40
6.28398
 40
6.28398
 40
6.28398
 10
10
 20
4.88498e-15
 30
0
 10
10.0424
 20
1.30903
 30
0
 10
9.82369
 20
2.63432
 30
0
 10
9.35428
 20
3.87467
 30
0
 10
8.88624
 20
5.11539
 30
0
 10
8.16776
 20
6.26999
 30
0
 10
7.24784
 20
7.24784
 30
0
 10
6.32906
 20
8.22659
 30
0
 10
5.20956
 20
9.02761
 30
0
 10
3.97034
 20
9.58525
 30
0
 10
2.73183
 20
10.1442
 30
0
 10
1.37466
 20
10.459
 30
0
 10
-7.72595e-09
 20
10.5
 30
0
 10
-1.37448
 20
10.5424
 30
0
 10
-2.76521
 20
10.3107
 30
0
 10
-4.06601
 20
9.81622
 30
0
 10
-5.36722
 20
9.32316
 30
0
 10
-6.57728
 20
8.56762
 30
0
 10
-7.6014
 20
7.6014
 30
0
 10
-8.62645
 20
6.63636
 30
0
 10
-9.46453
 20
5.46139
 30
0
 10
-10.0472
 20
4.16168
 30
0
 10
-10.6312
 20
2.86271
 30
0
 10
-10.9591
 20
1.44011
 30
0
 10
-11
 20
-6.62932e-10
 30
0
 10
-11.0425
 20
-1.43994
 30
0
 10
-10.7977
 20
-2.89609
 30
0
 10
-10.2782
 20
-4.25735
 30
0
 10
-9.76009
 20
-5.61905
 30
0
 10
-8.96749
 20
-6.88457
 30
0
 10
-7.95495
 20
-7.95495
 30
0
 10
-6.94365
 20
-9.02631
 30
0
 10
-5.71322
 20
-9.90146
 30
0
 10
-4.35302
 20
-10.5091
 30
0
 10
-2.9936
 20
-11.1182
 30
0
 10
-1.50557
 20
-11.4591
 30
0
 10
6.18724e-09
 20
-11.5
 30
0
 10
1.50539
 20
-11.5425
 30
0
 10
3.02697
 20
-11.2848
 30
0
 10
4.44869
 20
-10.7401
 30
0
 10
5.87088
 20
-10.197
 30
0
 10
7.19187
 20
-9.36735
 30
0
 10
8.3085
 20
-8.3085
 30
0
 10
9.42617
 20
-7.25094
 30
0
 10
10.3384
 20
-5.96505
 30
0
 10
10.9711
 20
-4.54437
 30
0
 10
11.6052
 20
-3.12448
 30
0
 10
11.9592
 20
-1.57102
 30
0
 10
12
 20
-2.35367e-14
 30
0
  0
SPLINE
  5
A0D
330
A02
100
AcDbEntity
  8
Spiral
100
AcDbSpline
210
0
220
0
230
1
 70
8
 71
3
 72
53
 73
49
 74
0
 40
0
 40
0
 40
0
 40
0
 40
0.392749
 40
0.392749
 40
0.392749
 40
0.785498
 40
0.785498
 40
0.785498
 40
1.17825
 40
1.17825
 40
1.17825
 40
1.571
 40
1.571
 40
1.571
 40
1.96374
 40
1.96374
 40
1.96374
 40
2.35649
 40
2.35649
 40
2.35649
 40
2.74924
 40
2.74924
 40
2.74924
 40
3.14199
 40
3.14199
 40
3.14199
 40
3.53474
 40
3.53474
 40
3.53474
 40
3.92749
 40
3.92749
 40
3.92749
 40
4.32024
 40
4.32024
 40
4.32024
 40
4.71299
 40
4.71299
 40
4.71299
 40
5.10573
 40
5.10573
 40
5.10573
 40
5.49848
 40
5.49848
 40
5.49848
 40
5.89123
 40
5.89123
 40
5.89123
 40
6.28398
 40
6.28398
 40
6.28398
 40
6.28398
 10
12
 20
4.44089e-15
 30
0
 10
12.0425
 20
1.57085
 30
0
 10
11.7718
 20
3.15785
 30
0
 10
11.202
 20
4.64004
 30
0
 10
10.6339
 20
6.1227
 30
0
 10
9.76721
 20
7.49916
 30
0
 10
8.66206
 20
8.66206
 30
0
 10
7.55824
 20
9.82604
 30
0
 10
6.21688
 20
10.7753
 30
0
 10
4.73571
 20
11.433
 30
0
 10
3.25536
 20
12.0922
 30
0
 10
1.63648
 20
12.4592
 30
0
 10
-7.86582e-09
 20
12.5
 30
0
 10
-1.6363
 20
12.5426
 30
0
 10
-3.28873
 20
12.2588
 30
0
 10
-4.83138
 20
11.664
 30
0
 10
-6.37453
 20
11.0709
 30
0
 10
-7.80646
 20
10.1671
 30
0
 10
-9.01561
 20
9.01561
 30
0
 10
-10.2259
 20
7.86553
 30
0
 10
-11.2122
 20
6.46871
 30
0
 10
-11.8949
 20
4.92705
 30
0
 10
-12.5793
 20
3.38624
 30
0
 10
-12.9592
 20
1.70194
 30
0
 10
-13
 20
-6.62923e-10
 30
0
 10
-13.0426
 20
-1.70176
 30
0
 10
-12.7458
 20
-3.41962
 30
0
 10
-12.1259
 20
-5.02272
 30
0
 10
-11.5078
 20
-6.62636
 30
0
 10
-10.5669
 20
-8.11375
 30
0
 10
-9.36916
 20
-9.36916
 30
0
 10
-8.17283
 20
-10.6258
 30
0
 10
-6.72053
 20
-11.6491
 30
0
 10
-5.11839
 20
-12.3569
 30
0
 10
-3.51712
 20
-13.0663
 30
0
 10
-1.76739
 20
-13.4593
 30
0
 10
6.04736e-09
 20
-13.5
 30
0
 10
1.76722
 20
-13.5426
 30
0
 10
3.5505
 20
-13.2328
 30
0
 10
5.21406
 20
-12.5879
 30
0
 10
6.87819
 20
-11.9447
 30
0
 10
8.42104
 20
-10.9668
 30
0
 10
9.72272
 20
-9.72272
 30
0
 10
11.0256
 20
-8.48012
 30
0
 10
12.0861
 20
-6.97236
 30
0
 10
12.8188
 20
-5.30973
 30
0
 10
13.5533
 20
-3.64801
 30
0
 10
13.9593
 20
-1.83285
 30
0
 10
14
 20
-3.77476e-14
 30
0
  0
SPLINE
  5
A0E
330
A02
100
AcDbEntity
  8
Spiral
100
AcDbSpline
210
0
220
0
230
1
 70
8
 71
3
 72
53
 73
49
 74
0
 40
0
 40
0
 40
0
 40
0
 40
0.392749
 40
0.392749
 40
0.392749
 40
0.785498
 40
0.785498
 40
0.785498
 40
1.17825
 40
1.17825
 40
1.17825
 40
1.571
 40
1.571
 40
1.571
 40
1.96374
 40
1.96374
 40
1.96374
 40
2.35649
 40
2.35649
 40
2.35649
 40
2.74924
 40
2.74924
 40
2.74924
 40
3.14199
 40
3.14199
 40
3.14199
 40
3.53474
 40
3.53474
 40
3.53474
 40
3.92749
 40
3.92749
 40
3.92749
 40
4.32024
 40
4.32024
 40
4.32024
 40
4.71299
 40
4.71299
 40
4.71299
 40
5.10573
 40
5.10573
 40
5.10573
 40
5.49848
 40
5.49848
 40
5.49848
 40
5.89123
 40
5.89123
 40
5.89123
 40
6.28398
 40
6.28398
 40
6.28398
 40
6.28398
 10
14
 20
-4.44089e-15
 30
0
 10
14.0427
 20
1.83267
 30
0
 10
13.7199
 20
3.68138
 30
0
 10
13.0498
 20
5.4054
 30
0
 10
12.3816
 20
7.13002
 30
0
 10
11.3667
 20
8.72834
 30
0
 10
10.0763
 20
10.0763
 30
0
 10
8.78741
 20
11.4255
 30
0
 10
7.22419
 20
12.523
 30
0
 10
5.50107
 20
13.2808
 30
0
 10
3.77889
 20
14.0403
 30
0
 10
1.8983
 20
14.4593
 30
0
 10
-8.0057e-09
 20
14.5
 30
0
 10
-1.89813
 20
14.5427
 30
0
 10
-3.81226
 20
14.2069
 30
0
 10
-5.59675
 20
13.5117
 30
0
 10
-7.38185
 20
12.8185
 30
0
 10
-9.03563
 20
11.7665
 30
0
 10
-10.4298
 20
10.4298
 30
0
 10
-11.8253
 20
9.09471
 30
0
 10
-12.9599
 20
7.47602
 30
0
 10
-13.7427
 20
5.69242
 30
0
 10
-14.5273
 20
3.90977
 30
0
 10
-14.9594
 20
1.96376
 30
0
 10
-15
 20
-6.62919e-10
 30
0
 10
-15.0427
 20
-1.96358
 30
0
 10
-14.6939
 20
-3.94314
 30
0
 10
-13.9737
 20
-5.78809
 30
0
 10
-13.2555
 20
-7.63367
 30
0
 10
-12.1664
 20
-9.34292
 30
0
 10
-10.7834
 20
-10.7834
 30
0
 10
-9.402
 20
-12.2252
 30
0
 10
-7.72785
 20
-13.3968
 30
0
 10
-5.88376
 20
-14.2046
 30
0
 10
-4.04065
 20
-15.0144
 30
0
 10
-2.02921
 20
-15.4594
 30
0
 10
5.90747e-09
 20
-15.5
 30
0
 10
2.02904
 20
-15.5428
 30
0
 10
4.07403
 20
-15.1809
 30
0
 10
5.97943
 20
-14.4356
 30
0
 10
7.8855
 20
-13.6924
 30
0
 10
9.65022
 20
-12.5662
 30
0
 10
11.1369
 20
-11.1369
 30
0
 10
12.6251
 20
-9.70929
 30
0
 10
13.8338
 20
-7.97967
 30
0
 10
14.6666
 20
-6.0751
 30
0
 10
15.5014
 20
-4.17153
 30
0
 10
15.9594
 20
-2.09467
 30
0
 10
16
 20
-3.95239e-14
 30
0
  0
SPLINE
  5
A0F
330
A02
100
AcDbEntity
  8
Spiral
100
AcDbSpline
210
0
220
0
230
1
 70
8
 71
3
 72
53
 73
49
 74
0
 40
0
 40
0
 40
0
 40
0
 40
0.392749
 40
0.392749
 40
0.392749
 40
0.785498
 40
0.785498
 40
0.785498
 40
1.17825
 40
1.17825
 40
1.17825
 40
1.571
 40
1.571
 40
1.571
 40
1.96374
 40
1.96374
 40
1.96374
 40
2.35649
 40
2.35649
 40
2.35649
 40
2.74924
 40
2.74924
 40
2.74924
 40
3.14199
 40
3.14199
 40
3.14199
 40
3.53474
 40
3.53474
 40
3.53474
 40
3.92749
 40
3.92749
 40
3.92749
 40
4.32024
 40
4.32024
 40
4.32024
 40
4.71299
 40
4.71299
 40
4.71299
 40
5.10573
 40
5.10573
 40
5.10573
 40
5.49848
 40
5.49848
 40
5.49848
 40
5.89123
 40
5.89123
 40
5.89123
 40
6.28398
 40
6.28398
 40
6.28398
 40
6.28398
 10
16
 20
-3.19744e-14
 30
0
 10
16.0428
 20
2.09449
 30
0
 10
15.6679
 20
4.20491
 30
0
 10
14.8976
 20
6.17077
 30
0
 10
14.1293
 20
8.13733
 30
0
 10
12.9661
 20
9.95751
 30
0
 10
11.4905
 20
11.4905
 30
0
 10
10.0166
 20
13.0249
 30
0
 10
8.2315
 20
14.2707
 30
0
 10
6.26644
 20
15.1285
 30
0
 10
4.30242
 20
15.9884
 30
0
 10
2.16013
 20
16.4595
 30
0
 10
-8.14557e-09
 20
16.5
 30
0
 10
-2.15995
 20
16.5428
 30
0
 10
-4.33579
 20
16.155
 30
0
 10
-6.36211
 20
15.3595
 30
0
 10
-8.38916
 20
14.5662
 30
0
 10
-10.2648
 20
13.366
 30
0
 10
-11.844
 20
11.844
 30
0
 10
-13.4248
 20
10.3239
 30
0
 10
-14.7076
 20
8.48333
 30
0
 10
-15.5905
 20
6.45778
 30
0
 10
-16.4754
 20
4.4333
 30
0
 10
-16.9595
 20
2.22558
 30
0
 10
-17
 20
-6.62912e-10
 30
0
 10
-17.0429
 20
-2.2254
 30
0
 10
-16.642
 20
-4.46667
 30
0
 10
-15.8214
 20
-6.55345
 30
0
 10
-15.0032
 20
-8.64099
 30
0
 10
-13.7658
 20
-10.5721
 30
0
 10
-12.1976
 20
-12.1976
 30
0
 10
-10.6312
 20
-13.8247
 30
0
 10
-8.73516
 20
-15.1445
 30
0
 10
-6.64912
 20
-16.0524
 30
0
 10
-4.56418
 20
-16.9624
 30
0
 10
-2.29104
 20
-17.4595
 30
0
 10
5.76758e-09
 20
-17.5
 30
0
 10
2.29086
 20
-17.5429
 30
0
 10
4.59755
 20
-17.129
 30
0
 10
6.7448
 20
-16.2834
 30
0
 10
8.89282
 20
-15.4401
 30
0
 10
10.8794
 20
-14.1657
 30
0
 10
12.5511
 20
-12.5511
 30
0
 10
14.2245
 20
-10.9385
 30
0
 10
15.5815
 20
-8.98699
 30
0
 10
16.5143
 20
-6.84047
 30
0
 10
17.4495
 20
-4.69506
 30
0
 10
17.9596
 20
-2.35649
 30
0
 10
18
 20
-3.95239e-14
 30
0
  0
SPLINE
  5
A10
330
A02
100
AcDbEntity
  8
Spiral
100
AcDbSpline
210
0
220
0
230
1
 70
8
 71
3
 72
53
 73
49
 74
0
 40
0
 40
0
 40
0
 40
0
 40
0.392749
 40
0.392749
 40
0.392749
 40
0.785498
 40
0.785498
 40
0.785498
 40
1.17825
 40
1.17825
 40
1.17825
 40
1.571
 40
1.571
 40
1.571
 40
1.96374
 40
1.96374
 40
1.96374
 40
2.35649
 40
2.35649
 40
2.35649
 40
2.74924
 40
2.74924
 40
2.74924
 40
3.14199
 40
3.14199
 40
3.14199
 40
3.53474
 40
3.53474
 40
3.53474
 40
3.92749
 40
3.92749
 40
3.92749
 40
4.32024
 40
4.32024
 40
4.32024
 40
4.71299
 40
4.71299
 40
4.71299
 40
5.10573
 40
5.10573
 40
5.10573
 40
5.49848
 40
5.49848
 40
5.49848
 40
5.89123
 40
5.89123
 40
5.89123
 40
6.28398
 40
6.28398
 40
6.28398
 40
6.28398
 10
18
 20
-3.81917e-14
 30
0
 10
18.0429
 20
2.35632
 30
0
 10
17.616
 20
4.72843
 30
0
 10
16.7453
 20
6.93614
 30
0
 10
15.877
 20
9.14464
 30
0
 10
14.5656
 20
11.1867
 30
0
 10
12.9047
 20
12.9047
 30
0
 10
11.2458
 20
14.6244
 30
0
 10
9.23882
 20
16.0184
 30
0
 10
7.03181
 20
16.9763
 30
0
 10
4.82594
 20
17.9365
 30
0
 10
2.42195
 20
18.4596
 30
0
 10
-8.28544e-09
 20
18.5
 30
0
 10
-2.42177
 20
18.543
 30
0
 10
-4.85932
 20
18.103
 30
0
 10
-7.12748
 20
17.2073
 30
0
 10
-9.39647
 20
16.3139
 30
0
 10
-11.494
 20
14.9654
 30
0
 10
-13.2583
 20
13.2583
 30
0
 10
-15.0242
 20
11.5531
 30
0
 10
-16.4553
 20
9.49064
 30
0
 10
-17.4382
 20
7.22315
 30
0
 10
-18.4235
 20
4.95682
 30
0
 10
-18.9596
 20
2.4874
 30
0
 10
-19
 20
-6.62902e-10
 30
0
 10
-19.043
 20
-2.48723
 30
0
 10
-18.5901
 20
-4.9902
 30
0
 10
-17.6692
 20
-7.31882
 30
0
 10
-16.7509
 20
-9.6483
 30
0
 10
-15.3653
 20
-11.8013
 30
0
 10
-13.6118
 20
-13.6118
 30
0
 10
-11.8604
 20
-15.4241
 30
0
 10
-9.74247
 20
-16.8922
 30
0
 10
-7.41449
 20
-17.9002
 30
0
 10
-5.08771
 20
-18.9105
 30
0
 10
-2.55286
 20
-19.4597
 30
0
 10
5.62769e-09
 20
-19.5
 30
0
 10
2.55268
 20
-19.543
 30
0
 10
5.12108
 20
-19.0771
 30
0
 10
7.51016
 20
-18.1311
 30
0
 10
9.90013
 20
-17.1878
 30
0
 10
12.1086
 20
-15.7651
 30
0
 10
13.9654
 20
-13.9654
 30
0
 10
15.824
 20
-12.1676
 30
0
 10
17.3291
 20
-9.9943
 30
0
 10
18.3621
 20
-7.60583
 30
0
 10
19.3976
 20
-5.21859
 30
0
 10
19.9597
 20
-2.61832
 30
0
 10
20
 20
-3.81917e-14
 30
0
  0
SPLINE
  5
A11
330
A02
100
AcDbEntity
  8
Spiral
100
AcDbSpline
210
0
220
0
230
1
 70
8
 71
3
 72
53
 73
49
 74
0
 40
0
 40
0
 40
0
 40
0
 40
0.392749
 40
0.392749
 40
0.392749
 40
0.785498
 40
0.785498
 40
0.785498
 40
1.17825
 40
1.17825
 40
1.17825
 40
1.571
 40
1.571
 40
1.571
 40
1.96374
 40
1.96374
 40
1.96374
 40
2.35649
 40
2.35649
 40
2.35649
 40
2.74924
 40
2.74924
 40
2.74924
 40
3.14199
 40
3.14199
 40
3.14199
 40
3.53474
 40
3.53474
 40
3.53474
 40
3.92749
 40
3.92749
 40
3.92749
 40
4.32024
 40
4.32024
 40
4.32024
 40
4.71299
 40
4.71299
 40
4.71299
 40
5.10573
 40
5.10573
 40
5.10573
 40
5.49848
 40
5.49848
 40
5.49848
 40
5.89123
 40
5.89123
 40
5.89123
 40
6.28398
 40
6.28398
 40
6.28398
 40
6.28398
 10
20
 20
-2.93099e-14
 30
0
 10
20.0431
 20
2.61814
 30
0
 10
19.5641
 20
5.25196
 30
0
 10
18.5931
 20
7.7015
 30
0
 10
17.6247
 20
10.152
 30
0
 10
16.165
 20
12.4159
 30
0
 10
14.3189
 20
14.3189
 30
0
 10
12.4749
 20
16.2238
 30
0
 10
10.2461
 20
17.7661
 30
0
 10
7.79717
 20
18.824
 30
0
 10
5.34947
 20
19.8846
 30
0
 10
2.68377
 20
20.4597
 30
0
 10
-8.42531e-09
 20
20.5
 30
0
 10
-2.68359
 20
20.5431
 30
0
 10
-5.38284
 20
20.0511
 30
0
 10
-7.89285
 20
19.055
 30
0
 10
-10.4038
 20
18.0616
 30
0
 10
-12.7232
 20
16.5649
 30
0
 10
-14.6725
 20
14.6725
 30
0
 10
-16.6237
 20
12.7822
 30
0
 10
-18.203
 20
10.498
 30
0
 10
-19.286
 20
7.98852
 30
0
 10
-20.3716
 20
5.48035
 30
0
 10
-20.9598
 20
2.74923
 30
0
 10
-21
 20
-6.62894e-10
 30
0
 10
-21.0431
 20
-2.74905
 30
0
 10
-20.5381
 20
-5.51373
 30
0
 10
-19.517
 20
-8.08419
 30
0
 10
-18.4985
 20
-10.6556
 30
0
 10
-16.9647
 20
-13.0305
 30
0
 10
-15.026
 20
-15.026
 30
0
 10
-13.0895
 20
-17.0236
 30
0
 10
-10.7498
 20
-18.6399
 30
0
 10
-8.17986
 20
-19.7479
 30
0
 10
-5.61123
 20
-20.8586
 30
0
 10
-2.81468
 20
-21.4598
 30
0
 10
5.48781e-09
 20
-21.5
 30
0
 10
2.81451
 20
-21.5432
 30
0
 10
5.64461
 20
-21.0252
 30
0
 10
8.27553
 20
-19.9789
 30
0
 10
10.9074
 20
-18.9355
 30
0
 10
13.3377
 20
-17.3646
 30
0
 10
15.3796
 20
-15.3796
 30
0
 10
17.4234
 20
-13.3968
 30
0
 10
19.0768
 20
-11.0016
 30
0
 10
20.2099
 20
-8.3712
 30
0
 10
21.3456
 20
-5.74212
 30
0
 10
21.9598
 20
-2.88014
 30
0
 10
22
 20
-7.10543e-14
 30
0
  0
ENDSEC
  0
SECTION
  2
OBJECTS
  0
DICTIONARY
  5
F000
330
0
100
AcDbDictionary
  3
ACAD_GROUP
350
F001
  0
DICTIONARY
  5
F001
330
F000
100
AcDbDictionary
  0
ENDSEC
  0
EOF