999
FreeCAD v0.21 33771 (Git)
  0
SECTION
  2
HEADER
  9
$ACADVER
  1
AC1014
  9
$ACADMAINTVER
 70
     9
  9
$DWGCODEPAGE
  3
ANSI_1252
  9
$TEXTSTYLE
  7
STANDARD
  9
$DIMSTYLE
  2
STANDARD
  9
$DIMTXSTY
  7
STANDARD
  9
$CMLSTYLE
  2
STANDARD
  9
$LUNITS
 70
2
  9
$INSUNITS
 70
4
  9
$PEXTMAX
 10
50
 20
50
 30
50
  9
$PEXTMIN
 10
0
 20
0
 30
0
  9
$HANDSEED
  5
FFFF
  0
ENDSEC
  0
SECTION
  2
CLASSES
  0
CLASS
  1
ACDBDICTIONARYWDFLT
  2
AcDbDictionaryWithDefault
  3
ObjectDBX Classes
 90
        0
280
     0
281
     0
  0
CLASS
  1
XRECORD
  2
AcDbXrecord
  3
ObjectDBX Classes
 90
        0
280
     0
281
     0
  0
CLASS
  1
LWPOLYLINE
  2
AcDbPolyline
  3
ObjectDBX Classes
 90
        0
280
     0
281
     1
  0
ENDSEC
  0
SECTION
  2
TABLES
  0
TABLE
  2
VPORT
  5
20
330
0
100
AcDbSymbolTable
 70
     1
  0
VPORT
  5
21
330
20
100
AcDbSymbolTableRecord
100
AcDbViewportTableRecord
  2
*ACTIVE
 70
     0
  0
ENDTAB
  0
TABLE
  2
LTYPE
  5
22
330
0
100
AcDbSymbolTable
 70
     1
  0
LTYPE
  5
23
330
21
100
AcDbSymbolTableRecord
100
AcDbLinetypeTableRecord
  2
BYBLOCK
 70
     0
  3

 72
    65
 73
     0
 40
0.0
  0
LTYPE
  5
24
330
21
100
AcDbSymbolTableRecord
100
AcDbLinetypeTableRecord
  2
BYLAYER
 70
     0
  3

 72
    65
 73
     0
 40
0.0
  0
LTYPE
  5
25
330
21
100
AcDbSymbolTableRecord
100
AcDbLinetypeTableRecord
  2
CONTINUOUS
 70
     0
  3
Solid line
 72
    65
 73
     0
 40
0.0
  0
ENDTAB
  0
TABLE
  2
LAYER
  5
A26
330
0
100
AcDbSymbolTable
 70
3
  0
LAYER
  5
A27
330
A26
100
AcDbSymbolTableRecord
100
AcDbLayerTableRecord
  2
0
 70
   0
 62
   7
  6
CONTINUOUS
  0
LAYER
  5
A28
330
A26
100
AcDbSymbolTableRecord
100
AcDbLayerTableRecord
  2
none
 70
    0
 62
    7
  6
CONTINUOUS
  0
LAYER
  5
A29
330
A26
100
AcDbSymbolTableRecord
100
AcDbLayerTableRecord
  2
Spiral
 70
    0
 62
    7
  6
CONTINUOUS
  0
ENDTAB
  0
TABLE
  2
STYLE
  5
70
330
0
100
AcDbSymbolTable
 70
     2
  0
STYLE
  5
71
330
70
100
AcDbSymbolTableRecord
100
AcDbTextStyleTableRecord
  2
STANDARD
 70
     0
 40
0.0
 41
1.0
 50
0.0
 71
     0
 42
2.5
  3
arial.ttf
  4

  0
STYLE
  5
72
330
70
100
AcDbSymbolTableRecord
100
AcDbTextStyleTableRecord
  2
ANNOTATIVE
 70
     0
 40
0.0
 41
1.0
 50
0.0
 71
     0
 42
2.5
  3
arial.ttf
  4

  0
ENDTAB
  0
TABLE
  2
VIEW
  5
73
330
0
100
AcDbSymbolTable
 70
     0
  0
ENDTAB
  0
TABLE
  2
UCS
  5
74
330
0
100
AcDbSymbolTable
 70
     0
  0
ENDTAB
  0
TABLE
  2
APPID
  5
75
330
0
100
AcDbSymbolTable
 70
     2
  0
APPID
  5
76
330
75
100
AcDbSymbolTableRecord
100
AcDbRegAppTableRecord
  2
ACAD
 70
     0
  0
APPID
  5
77
330
75
100
AcDbSymbolTableRecord
100
AcDbRegAppTableRecord
  2
ACADANNOTATIVE
 70
     0
  0
ENDTAB
  0
TABLE
  2
DIMSTYLE
  5
78
330
0
100
AcDbSymbolTable
 70
     2
  0
DIMSTYLE
105
79
330
78
100
AcDbSymbolTableRecord
100
AcDbDimStyleTableRecord
  2
STANDARD
 70
     0
  3

  4

  5

  6

  7

 40
0.0
 41
2.5
 42
0.625
 43
3.75
 44
1.25
 45
0.0
 46
0.0
 47
0.0
 48
0.0
140
2.5
141
2.5
142
0.0
143
0.03937007874016
144
1.0
145
0.0
146
1.0
147
0.625
 71
     0
 72
     0
 73
     0
 74
     0
 75
     0
 76
     0
 77
     1
 78
     8
170
     0
171
     3
172
     1
173
     0
174
     0
175
     0
176
     0
177
     0
178
     0
270
     2
271
     2
272
     2
273
     2
274
     3
340
71
275
     0
280
     0
281
     0
282
     0
283
     0
284
     8
285
     0
286
     0
287
     3
288
     0
  0
ENDTAB
  0
TABLE
  2
BLOCK_RECORD
  5
A01
330
0
100
AcDbSymbolTable
  70
5
  0
BLOCK_RECORD
  5
A02
330
A01
100
AcDbSymbolTableRecord
100
AcDbBlockTableRecord
  2
*MODEL_SPACE
  0
BLOCK_RECORD
  5
A03
330
A01
100
AcDbSymbolTableRecord
100
AcDbBlockTableRecord
  2
*PAPER_SPACE
  0
ENDTAB
  0
ENDSEC
  0
SECTION
  2
BLOCKS
  0
BLOCK
  5
A04
330
A02
100
AcDbEntity
  8
0
100
AcDbBlockBegin
  2
*MODEL_SPACE
 70
   0
 10
0
 20
0
 30
0
  3
*MODEL_SPACE
  1
 
  0
ENDBLK
  5
A05
330
A02
100
AcDbEntity
  8
0
100
AcDbBlockEnd
  0
BLOCK
  5
A06
330
A03
100
AcDbEntity
 67
1
  8
0
100
AcDbBlockBegin
  2
*PAPER_SPACE
 70
   0
 10
0
 20
0
 30
0
  3
*PAPER_SPACE
  1
 
  0
ENDBLK
  5
A07
330
A03
100
AcDbEntity
 67
    1
  8
0
100
AcDbBlockEnd
  0
ENDSEC
  0
SECTION
  2
ENTITIES
  0
SPLINE
  5
A08
330
A02
100
AcDbEntity
  8
Spiral
100
AcDbSpline
210
0
220
0
230
1
 70
8
 71
3
 72
29
 73
25
 74
0
 40
0
 40
0
 40
0
 40
0
 40
0.785409
 40
0.785409
 40
0.785409
 40
1.57082
 40
1.57082
 40
1.57082
 40
2.35623
 40
2.35623
 40
2.35623
 40
3.14164
 40
3.14164
 40
3.14164
 40
3.92705
 40
3.92705
 40
3.92705
 40
4.71246
 40
4.71246
 40
4.71246
 40
5.49786
 40
5.49786
 40
5.49786
 40
6.28327
 40
6.28327
 40
6.28327
 40
6.28327
 10
1
 20
7.21645e-16
 30
0
 10
1.02204
 20
0.261838
 30
0
 10
0.934461
 20
0.54007
 30
0
 10
0.751301
 20
0.751301
 30
0
 10
0.570198
 20
0.963665
 30
0
 10
0.295262
 20
1.10522
 30
0
 10
8.1628e-09
 20
1.125
 30
0
 10
-0.294609
 20
1.14717
 30
0
 10
-0.605379
 20
1.04612
 30
0
 10
-0.839689
 20
0.839689
 30
0
 10
-1.07532
 20
0.635508
 30
0
 10
-1.23035
 20
0.328032
 30
0
 10
-1.25
 20
-1.47915e-08
 30
0
 10
-1.2723
 20
-0.327379
 30
0
 10
-1.15777
 20
-0.670689
 30
0
 10
-0.928078
 20
-0.928078
 30
0
 10
-0.700817
 20
-1.18697
 30
0
 10
-0.360803
 20
-1.35548
 30
0
 10
1.16411e-08
 20
-1.375
 30
0
 10
0.36015
 20
-1.39744
 30
0
 10
0.735999
 20
-1.26942
 30
0
 10
1.01647
 20
-1.01647
 30
0
 10
1.29863
 20
-0.766127
 30
0
 10
1.48061
 20
-0.393574
 30
0
 10
1.5
 20
-1.24265e-15
 30
0
  0
SPLINE
  5
A09
330
A02
100
AcDbEntity
  8
Spiral
100
AcDbSpline
210
0
220
0
230
1
 70
8
 71
3
 72
29
 73
25
 74
0
 40
0
 40
0
 40
0
 40
0
 40
0.785409
 40
0.785409
 40
0.785409
 40
1.57082
 40
1.57082
 40
1.57082
 40
2.35623
 40
2.35623
 40
2.35623
 40
3.14164
 40
3.14164
 40
3.14164
 40
3.92705
 40
3.92705
 40
3.92705
 40
4.71246
 40
4.71246
 40
4.71246
 40
5.49786
 40
5.49786
 40
5.49786
 40
6.28327
 40
6.28327
 40
6.28327
 40
6.28327
 10
1.5
 20
-7.77156e-16
 30
0
 10
1.52257
 20
0.39292
 30
0
 10
1.38108
 20
0.801309
 30
0
 10
1.10485
 20
1.10485
 30
0
 10
0.831437
 20
1.41028
 30
0
 10
0.426344
 20
1.60575
 30
0
 10
1.21236e-08
 20
1.625
 30
0
 10
-0.425691
 20
1.6477
 30
0
 10
-0.866619
 20
1.49273
 30
0
 10
-1.19324
 20
1.19324
 30
0
 10
-1.52194
 20
0.896747
 30
0
 10
-1.73088
 20
0.459115
 30
0
 10
-1.75
 20
-1.47915e-08
 30
0
 10
-1.77283
 20
-0.458462
 30
0
 10
-1.60439
 20
-0.931929
 30
0
 10
-1.28163
 20
-1.28163
 30
0
 10
-0.962057
 20
-1.63359
 30
0
 10
-0.491885
 20
-1.85601
 30
0
 10
1.56019e-08
 20
-1.875
 30
0
 10
0.491232
 20
-1.89797
 30
0
 10
0.997238
 20
-1.71604
 30
0
 10
1.37002
 20
-1.37002
 30
0
 10
1.74525
 20
-1.02737
 30
0
 10
1.98115
 20
-0.524656
 30
0
 10
2
 20
8.21209e-17
 30
0
  0
SPLINE
  5
A0A
330
A02
100
AcDbEntity
  8
Spiral
100
AcDbSpline
210
0
220
0
230
1
 70
8
 71
3
 72
29
 73
25
 74
0
 40
0
 40
0
 40
0
 40
0
 40
0.785409
 40
0.785409
 40
0.785409
 40
1.57082
 40
1.57082
 40
1.57082
 40
2.35623
 40
2.35623
 40
2.35623
 40
3.14164
 40
3.14164
 40
3.14164
 40
3.92705
 40
3.92705
 40
3.92705
 40
4.71246
 40
4.71246
 40
4.71246
 40
5.49786
 40
5.49786
 40
5.49786
 40
6.28327
 40
6.28327
 40
6.28327
 40
6.28327
 10
2
 20
-2.66454e-15
 30
0
 10
2.0231
 20
0.524003
 30
0
 10
1.8277
 20
1.06255
 30
0
 10
1.45841
 20
1.45841
 30
0
 10
1.09268
 20
1.8569
 30
0
 10
0.557427
 20
2.10628
 30
0
 10
1.60844e-08
 20
2.125
 30
0
 10
-0.556773
 20
2.14823
 30
0
 10
-1.12786
 20
1.93935
 30
0
 10
-1.5468
 20
1.5468
 30
0
 10
-1.96855
 20
1.15799
 30
0
 10
-2.23141
 20
0.590197
 30
0
 10
-2.25
 20
-1.47915e-08
 30
0
 10
-2.27336
 20
-0.589544
 30
0
 10
-2.05101
 20
-1.19317
 30
0
 10
-1.63518
 20
-1.63518
 30
0
 10
-1.2233
 20
-2.08021
 30
0
 10
-0.622968
 20
-2.35654
 30
0
 10
1.95627e-08
 20
-2.375
 30
0
 10
0.622314
 20
-2.3985
 30
0
 10
1.25848
 20
-2.16266
 30
0
 10
1.72357
 20
-1.72357
 30
0
 10
2.19186
 20
-1.28861
 30
0
 10
2.48168
 20
-0.655738
 30
0
 10
2.5
 20
-8.13555e-16
 30
0
  0
SPLINE
  5
A0B
330
A02
100
AcDbEntity
  8
Spiral
100
AcDbSpline
210
0
220
0
230
1
 70
8
 71
3
 72
29
 73
25
 74
0
 40
0
 40
0
 40
0
 40
0
 40
0.785409
 40
0.785409
 40
0.785409
 40
1.57082
 40
1.57082
 40
1.57082
 40
2.35623
 40
2.35623
 40
2.35623
 40
3.14164
 40
3.14164
 40
3.14164
 40
3.92705
 40
3.92705
 40
3.92705
 40
4.71246
 40
4.71246
 40
4.71246
 40
5.49786
 40
5.49786
 40
5.49786
 40
6.28327
 40
6.28327
 40
6.28327
 40
6.28327
 10
2.5
 20
-1.88738e-15
 30
0
 10
2.52363
 20
0.655085
 30
0
 10
2.27431
 20
1.32379
 30
0
 10
1.81196
 20
1.81196
 30
0
 10
1.35392
 20
2.30352
 30
0
 10
0.688509
 20
2.60681
 30
0
 10
2.00451e-08
 20
2.625
 30
0
 10
-0.687856
 20
2.64876
 30
0
 10
-1.3891
 20
2.38597
 30
0
 10
-1.90035
 20
1.90035
 30
0
 10
-2.41517
 20
1.41923
 30
0
 10
-2.73194
 20
0.72128
 30
0
 10
-2.75
 20
-1.47915e-08
 30
0
 10
-2.7739
 20
-0.720626
 30
0
 10
-2.49762
 20
-1.45441
 30
0
 10
-1.98874
 20
-1.98874
 30
0
 10
-1.48454
 20
-2.52683
 30
0
 10
-0.75405
 20
-2.85707
 30
0
 10
2.35234e-08
 20
-2.875
 30
0
 10
0.753397
 20
-2.89903
 30
0
 10
1.51972
 20
-2.60928
 30
0
 10
2.07713
 20
-2.07713
 30
0
 10
2.63848
 20
-1.54985
 30
0
 10
2.98221
 20
-0.786821
 30
0
 10
3
 20
-7.1003e-16
 30
0
  0
SPLINE
  5
A0C
330
A02
100
AcDbEntity
  8
Spiral
100
AcDbSpline
210
0
220
0
230
1
 70
8
 71
3
 72
29
 73
25
 74
0
 40
0
 40
0
 40
0
 40
0
 40
0.785409
 40
0.785409
 40
0.785409
 40
1.57082
 40
1.57082
 40
1.57082
 40
2.35623
 40
2.35623
 40
2.35623
 40
3.14164
 40
3.14164
 40
3.14164
 40
3.92705
 40
3.92705
 40
3.92705
 40
4.71246
 40
4.71246
 40
4.71246
 40
5.49786
 40
5.49786
 40
5.49786
 40
6.28327
 40
6.28327
 40
6.28327
 40
6.28327
 10
3
 20
-3.10862e-15
 30
0
 10
3.02416
 20
0.786168
 30
0
 10
2.72093
 20
1.58503
 30
0
 10
2.16551
 20
2.16551
 30
0
 10
1.61516
 20
2.75014
 30
0
 10
0.819591
 20
3.10734
 30
0
 10
2.40059e-08
 20
3.125
 30
0
 10
-0.818938
 20
3.14929
 30
0
 10
-1.65034
 20
2.83259
 30
0
 10
-2.2539
 20
2.2539
 30
0
 10
-2.86179
 20
1.68046
 30
0
 10
-3.23247
 20
0.852362
 30
0
 10
-3.25
 20
-1.47915e-08
 30
0
 10
-3.27443
 20
-0.851709
 30
0
 10
-2.94424
 20
-1.71565
 30
0
 10
-2.34229
 20
-2.34229
 30
0
 10
-1.74577
 20
-2.97344
 30
0
 10
-0.885132
 20
-3.3576
 30
0
 10
2.74842e-08
 20
-3.375
 30
0
 10
0.884479
 20
-3.39956
 30
0
 10
1.78096
 20
-3.0559
 30
0
 10
2.43068
 20
-2.43068
 30
0
 10
3.0851
 20
-1.81108
 30
0
 10
3.48274
 20
-0.917903
 30
0
 10
3.5
 20
-2.93797e-15
 30
0
  0
SPLINE
  5
A0D
330
A02
100
AcDbEntity
  8
Spiral
100
AcDbSpline
210
0
220
0
230
1
 70
8
 71
3
 72
29
 73
25
 74
0
 40
0
 40
0
 40
0
 40
0
 40
0.785409
 40
0.785409
 40
0.785409
 40
1.57082
 40
1.57082
 40
1.57082
 40
2.35623
 40
2.35623
 40
2.35623
 40
3.14164
 40
3.14164
 40
3.14164
 40
3.92705
 40
3.92705
 40
3.92705
 40
4.71246
 40
4.71246
 40
4.71246
 40
5.49786
 40
5.49786
 40
5.49786
 40
6.28327
 40
6.28327
 40
6.28327
 40
6.28327
 10
3.5
 20
-1.08802e-14
 30
0
 10
3.52469
 20
0.91725
 30
0
 10
3.16755
 20
1.84627
 30
0
 10
2.51907
 20
2.51907
 30
0
 10
1.87639
 20
3.19675
 30
0
 10
0.950674
 20
3.60787
 30
0
 10
-2.00143e-09
 20
3.625
 30
0
 10
-0.95002
 20
3.64982
 30
0
 10
-1.91158
 20
3.2792
 30
0
 10
-2.60746
 20
2.60746
 30
0
 10
-3.30841
 20
1.9417
 30
0
 10
-3.733
 20
0.983444
 30
0
 10
-3.75
 20
-1.65731e-10
 30
0
 10
-3.77496
 20
-0.982791
 30
0
 10
-3.39086
 20
-1.97689
 30
0
 10
-2.69584
 20
-2.69584
 30
0
 10
-2.00701
 20
-3.42006
 30
0
 10
-1.01621
 20
-3.85814
 30
0
 10
1.47687e-09
 20
-3.875
 30
0
 10
1.01556
 20
-3.90009
 30
0
 10
2.0422
 20
-3.50251
 30
0
 10
2.78423
 20
-2.78423
 30
0
 10
3.53172
 20
-2.07232
 30
0
 10
3.98327
 20
-1.04899
 30
0
 10
4
 20
1.71747e-15
 30
0
  0
SPLINE
  5
A0E
330
A02
100
AcDbEntity
  8
Spiral
100
AcDbSpline
210
0
220
0
230
1
 70
8
 71
3
 72
29
 73
25
 74
0
 40
0
 40
0
 40
0
 40
0
 40
0.785409
 40
0.785409
 40
0.785409
 40
1.57082
 40
1.57082
 40
1.57082
 40
2.35623
 40
2.35623
 40
2.35623
 40
3.14164
 40
3.14164
 40
3.14164
 40
3.92705
 40
3.92705
 40
3.92705
 40
4.71246
 40
4.71246
 40
4.71246
 40
5.49786
 40
5.49786
 40
5.49786
 40
6.28327
 40
6.28327
 40
6.28327
 40
6.28327
 10
4
 20
-3.10862e-15
 30
0
 10
4.02522
 20
1.04833
 30
0
 10
3.61417
 20
2.10751
 30
0
 10
2.87262
 20
2.87262
 30
0
 10
2.13763
 20
3.64337
 30
0
 10
1.08176
 20
4.1084
 30
0
 10
-2.0364e-09
 20
4.125
 30
0
 10
-1.0811
 20
4.15035
 30
0
 10
-2.17282
 20
3.72582
 30
0
 10
-2.96101
 20
2.96101
 30
0
 10
-3.75503
 20
2.20294
 30
0
 10
-4.23353
 20
1.11453
 30
0
 10
-4.25
 20
-1.6573e-10
 30
0
 10
-4.27549
 20
-1.11387
 30
0
 10
-3.83748
 20
-2.23813
 30
0
 10
-3.0494
 20
-3.0494
 30
0
 10
-2.26825
 20
-3.86668
 30
0
 10
-1.1473
 20
-4.35867
 30
0
 10
1.44189e-09
 20
-4.375
 30
0
 10
1.14664
 20
-4.40062
 30
0
 10
2.30344
 20
-3.94913
 30
0
 10
3.13779
 20
-3.13779
 30
0
 10
3.97834
 20
-2.33356
 30
0
 10
4.4838
 20
-1.18007
 30
0
 10
4.5
 20
-1.02804e-14
 30
0
  0
SPLINE
  5
A0F
330
A02
100
AcDbEntity
  8
Spiral
100
AcDbSpline
210
0
220
0
230
1
 70
8
 71
3
 72
29
 73
25
 74
0
 40
0
 40
0
 40
0
 40
0
 40
0.785409
 40
0.785409
 40
0.785409
 40
1.57082
 40
1.57082
 40
1.57082
 40
2.35623
 40
2.35623
 40
2.35623
 40
3.14164
 40
3.14164
 40
3.14164
 40
3.92705
 40
3.92705
 40
3.92705
 40
4.71246
 40
4.71246
 40
4.71246
 40
5.49786
 40
5.49786
 40
5.49786
 40
6.28327
 40
6.28327
 40
6.28327
 40
6.28327
 10
4.5
 20
-1.33227e-14
 30
0
 10
4.52575
 20
1.17941
 30
0
 10
4.06079
 20
2.36875
 30
0
 10
3.22617
 20
3.22617
 30
0
 10
2.39887
 20
4.08999
 30
0
 10
1.21284
 20
4.60893
 30
0
 10
-2.07137e-09
 20
4.625
 30
0
 10
-1.21219
 20
4.65089
 30
0
 10
-2.43406
 20
4.17244
 30
0
 10
-3.31456
 20
3.31456
 30
0
 10
-4.20164
 20
2.46418
 30
0
 10
-4.73406
 20
1.24561
 30
0
 10
-4.75
 20
-1.65728e-10
 30
0
 10
-4.77602
 20
-1.24496
 30
0
 10
-4.28409
 20
-2.49936
 30
0
 10
-3.40295
 20
-3.40295
 30
0
 10
-2.52949
 20
-4.3133
 30
0
 10
-1.27838
 20
-4.8592
 30
0
 10
1.40692e-09
 20
-4.875
 30
0
 10
1.27773
 20
-4.90115
 30
0
 10
2.56467
 20
-4.39575
 30
0
 10
3.49134
 20
-3.49134
 30
0
 10
4.42495
 20
-2.5948
 30
0
 10
4.98433
 20
-1.31115
 30
0
 10
5
 20
-4.51478e-15
 30
0
  0
SPLINE
  5
A10
330
A02
100
AcDbEntity
  8
Spiral
100
AcDbSpline
210
0
220
0
230
1
 70
8
 71
3
 72
35
 73
31
 74
0
 40
0
 40
0
 40
0
 40
0
 40
0.785409
 40
0.785409
 40
0.785409
 40
1.57082
 40
1.57082
 40
1.57082
 40
2.35623
 40
2.35623
 40
2.35623
 40
3.14164
 40
3.14164
 40
3.14164
 40
3.92705
 40
3.92705
 40
3.92705
 40
4.71246
 40
4.71246
 40
4.71246
 40
5.10516
 40
5.10516
 40
5.10516
 40
5.49786
 40
5.49786
 40
5.49786
 40
5.89057
 40
5.89057
 40
5.89057
 40
6.28327
 40
6.28327
 40
6.28327
 40
6.28327
 10
5
 20
-1.04361e-14
 30
0
 10
5.02628
 20
1.3105
 30
0
 10
4.5074
 20
2.62998
 30
0
 10
3.57973
 20
3.57973
 30
0
 10
2.66011
 20
4.53661
 30
0
 10
1.34392
 20
5.10946
 30
0
 10
-2.10633e-09
 20
5.125
 30
0
 10
-1.34327
 20
5.15142
 30
0
 10
-2.69529
 20
4.61906
 30
0
 10
-3.66812
 20
3.66812
 30
0
 10
-4.64826
 20
2.72542
 30
0
 10
-5.23459
 20
1.37669
 30
0
 10
-5.25
 20
-1.65726e-10
 30
0
 10
-5.27655
 20
-1.37604
 30
0
 10
-4.73071
 20
-2.7606
 30
0
 10
-3.7565
 20
-3.7565
 30
0
 10
-2.79073
 20
-4.75992
 30
0
 10
-1.40946
 20
-5.35973
 30
0
 10
1.37195e-09
 20
-5.375
 30
0
 10
0.703627
 20
-5.3858
 30
0
 10
1.41115
 20
-5.25629
 30
0
 10
2.06888
 20
-4.99472
 30
0
 10
2.72686
 20
-4.73387
 30
0
 10
3.33444
 20
-4.34115
 30
0
 10
3.84489
 20
-3.84489
 30
0
 10
4.35585
 20
-3.34921
 30
0
 10
4.76921
 20
-2.7504
 30
0
 10
5.05247
 20
-2.0928
 30
0
 10
5.33641
 20
-1.43553
 30
0
 10
5.48996
 20
-0.720034
 30
0
 10
5.5
 20
-1.34113e-14
 30
0
  0
SPLINE
  5
A11
330
A02
100
AcDbEntity
  8
Spiral
100
AcDbSpline
210
0
220
0
230
1
 70
8
 71
3
 72
53
 73
49
 74
0
 40
0
 40
0
 40
0
 40
0
 40
0.392705
 40
0.392705
 40
0.392705
 40
0.785409
 40
0.785409
 40
0.785409
 40
1.17811
 40
1.17811
 40
1.17811
 40
1.57082
 40
1.57082
 40
1.57082
 40
1.96352
 40
1.96352
 40
1.96352
 40
2.35623
 40
2.35623
 40
2.35623
 40
2.74893
 40
2.74893
 40
2.74893
 40
3.14164
 40
3.14164
 40
3.14164
 40
3.53434
 40
3.53434
 40
3.53434
 40
3.92705
 40
3.92705
 40
3.92705
 40
4.31975
 40
4.31975
 40
4.31975
 40
4.71246
 40
4.71246
 40
4.71246
 40
5.10516
 40
5.10516
 40
5.10516
 40
5.49786
 40
5.49786
 40
5.49786
 40
5.89057
 40
5.89057
 40
5.89057
 40
6.28327
 40
6.28327
 40
6.28327
 40
6.28327
 10
5.5
 20
-7.10543e-15
 30
0
 10
5.5108
 20
0.71999
 30
0
 10
5.37805
 20
1.44387
 30
0
 10
5.11021
 20
2.11672
 30
0
 10
4.8431
 20
2.78982
 30
0
 10
4.44111
 20
3.41126
 30
0
 10
3.93328
 20
3.93328
 30
0
 10
3.42603
 20
4.45582
 30
0
 10
2.81336
 20
4.87844
 30
0
 10
2.14064
 20
5.16795
 30
0
 10
1.46825
 20
5.45816
 30
0
 10
0.736398
 20
5.61497
 30
0
 10
-2.1413e-09
 20
5.625
 30
0
 10
-0.736354
 20
5.63581
 30
0
 10
-1.47659
 20
5.4998
 30
0
 10
-2.16455
 20
5.22569
 30
0
 10
-2.85277
 20
4.95233
 30
0
 10
-3.48808
 20
4.54108
 30
0
 10
-4.02167
 20
4.02167
 30
0
 10
-4.55579
 20
3.50285
 30
0
 10
-4.98767
 20
2.87632
 30
0
 10
-5.28344
 20
2.18847
 30
0
 10
-5.57992
 20
1.50097
 30
0
 10
-5.73998
 20
0.752762
 30
0
 10
-5.75
 20
-1.65724e-10
 30
0
 10
-5.76082
 20
-0.752718
 30
0
 10
-5.62156
 20
-1.50931
 30
0
 10
-5.34118
 20
-2.21239
 30
0
 10
-5.06156
 20
-2.91573
 30
0
 10
-4.64104
 20
-3.56491
 30
0
 10
-4.11006
 20
-4.11006
 30
0
 10
-3.57968
 20
-4.65575
 30
0
 10
-2.93927
 20
-5.0969
 30
0
 10
-2.23631
 20
-5.39892
 30
0
 10
-1.53369
 20
-5.70167
 30
0
 10
-0.769126
 20
-5.86499
 30
0
 10
1.33698e-09
 20
-5.875
 30
0
 10
0.769082
 20
-5.88583
 30
0
 10
1.54203
 20
-5.74331
 30
0
 10
2.26022
 20
-5.45666
 30
0
 10
2.97869
 20
-5.17079
 30
0
 10
3.64173
 20
-4.74101
 30
0
 10
4.19845
 20
-4.19845
 30
0
 10
4.75572
 20
-3.6565
 30
0
 10
5.20613
 20
-3.00223
 30
0
 10
5.51441
 20
-2.28414
 30
0
 10
5.82343
 20
-1.56641
 30
0
 10
5.99
 20
-0.78549
 30
0
 10
6
 20
-1.43075e-14
 30
0
  0
SPLINE
  5
A12
330
A02
100
AcDbEntity
  8
Spiral
100
AcDbSpline
210
0
220
0
230
1
 70
8
 71
3
 72
53
 73
49
 74
0
 40
0
 40
0
 40
0
 40
0
 40
0.392705
 40
0.392705
 40
0.392705
 40
0.785409
 40
0.785409
 40
0.785409
 40
1.17811
 40
1.17811
 40
1.17811
 40
1.57082
 40
1.57082
 40
1.57082
 40
1.96352
 40
1.96352
 40
1.96352
 40
2.35623
 40
2.35623
 40
2.35623
 40
2.74893
 40
2.74893
 40
2.74893
 40
3.14164
 40
3.14164
 40
3.14164
 40
3.53434
 40
3.53434
 40
3.53434
 40
3.92705
 40
3.92705
 40
3.92705
 40
4.31975
 40
4.31975
 40
4.31975
 40
4.71246
 40
4.71246
 40
4.71246
 40
5.10516
 40
5.10516
 40
5.10516
 40
5.49786
 40
5.49786
 40
5.49786
 40
5.89057
 40
5.89057
 40
5.89057
 40
6.28327
 40
6.28327
 40
6.28327
 40
6.28327
 10
6
 20
-1.19904e-14
 30
0
 10
6.01084
 20
0.785446
 30
0
 10
5.86507
 20
1.57475
 30
0
 10
5.57215
 20
2.30806
 30
0
 10
5.28002
 20
3.04165
 30
0
 10
4.84098
 20
3.71855
 30
0
 10
4.28683
 20
4.28683
 30
0
 10
3.73332
 20
4.85568
 30
0
 10
3.06519
 20
5.31536
 30
0
 10
2.33198
 20
5.62989
 30
0
 10
1.59913
 20
5.94518
 30
0
 10
0.801854
 20
6.11501
 30
0
 10
-2.17625e-09
 20
6.125
 30
0
 10
-0.80181
 20
6.13585
 30
0
 10
-1.60747
 20
5.98682
 30
0
 10
-2.35589
 20
5.68763
 30
0
 10
-3.1046
 20
5.38925
 30
0
 10
-3.79538
 20
4.94094
 30
0
 10
-4.37522
 20
4.37522
 30
0
 10
-4.95565
 20
3.81015
 30
0
 10
-5.4246
 20
3.12815
 30
0
 10
-5.74538
 20
2.37981
 30
0
 10
-6.06694
 20
1.63185
 30
0
 10
-6.24001
 20
0.818218
 30
0
 10
-6.25
 20
-1.657e-10
 30
0
 10
-6.26086
 20
-0.818174
 30
0
 10
-6.10858
 20
-1.6402
 30
0
 10
-5.80312
 20
-2.40373
 30
0
 10
-5.49848
 20
-3.16756
 30
0
 10
-5.04091
 20
-3.8722
 30
0
 10
-4.46361
 20
-4.46361
 30
0
 10
-3.88697
 20
-5.05561
 30
0
 10
-3.1911
 20
-5.53383
 30
0
 10
-2.42765
 20
-5.86086
 30
0
 10
-1.66457
 20
-6.1887
 30
0
 10
-0.834582
 20
-6.36502
 30
0
 10
1.30197e-09
 20
-6.375
 30
0
 10
0.834538
 20
-6.38587
 30
0
 10
1.67292
 20
-6.23033
 30
0
 10
2.45157
 20
-5.9186
 30
0
 10
3.23052
 20
-5.60771
 30
0
 10
3.94902
 20
-5.14087
 30
0
 10
4.552
 20
-4.552
 30
0
 10
5.15558
 20
-3.96379
 30
0
 10
5.64306
 20
-3.25406
 30
0
 10
5.97635
 20
-2.47548
 30
0
 10
6.31045
 20
-1.69729
 30
0
 10
6.49003
 20
-0.850946
 30
0
 10
6.5
 20
-6.77236e-14
 30
0
  0
SPLINE
  5
A13
330
A02
100
AcDbEntity
  8
Spiral
100
AcDbSpline
210
0
220
0
230
1
 70
8
 71
3
 72
53
 73
49
 74
0
 40
0
 40
0
 40
0
 40
0
 40
0.392705
 40
0.392705
 40
0.392705
 40
0.785409
 40
0.785409
 40
0.785409
 40
1.17811
 40
1.17811
 40
1.17811
 40
1.57082
 40
1.57082
 40
1.57082
 40
1.96352
 40
1.96352
 40
1.96352
 40
2.35623
 40
2.35623
 40
2.35623
 40
2.74893
 40
2.74893
 40
2.74893
 40
3.14164
 40
3.14164
 40
3.14164
 40
3.53434
 40
3.53434
 40
3.53434
 40
3.92705
 40
3.92705
 40
3.92705
 40
4.31975
 40
4.31975
 40
4.31975
 40
4.71246
 40
4.71246
 40
4.71246
 40
5.10516
 40
5.10516
 40
5.10516
 40
5.49786
 40
5.49786
 40
5.49786
 40
5.89057
 40
5.89057
 40
5.89057
 40
6.28327
 40
6.28327
 40
6.28327
 40
6.28327
 10
6.5
 20
-6.17284e-14
 30
0
 10
6.51087
 20
0.850902
 30
0
 10
6.35209
 20
1.70564
 30
0
 10
6.03409
 20
2.4994
 30
0
 10
5.71694
 20
3.29347
 30
0
 10
5.24084
 20
4.02585
 30
0
 10
4.64039
 20
4.64039
 30
0
 10
4.04062
 20
5.25554
 30
0
 10
3.31702
 20
5.75229
 30
0
 10
2.52332
 20
6.09183
 30
0
 10
1.73001
 20
6.43221
 30
0
 10
0.86731
 20
6.61504
 30
0
 10
-2.21122e-09
 20
6.625
 30
0
 10
-0.867266
 20
6.63588
 30
0
 10
-1.73836
 20
6.47384
 30
0
 10
-2.54724
 20
6.14957
 30
0
 10
-3.35643
 20
5.82618
 30
0
 10
-4.10267
 20
5.3408
 30
0
 10
-4.72878
 20
4.72878
 30
0
 10
-5.35551
 20
4.11744
 30
0
 10
-5.86152
 20
3.37997
 30
0
 10
-6.20732
 20
2.57115
 30
0
 10
-6.55396
 20
1.76273
 30
0
 10
-6.74005
 20
0.883674
 30
0
 10
-6.75
 20
-1.65693e-10
 30
0
 10
-6.76089
 20
-0.88363
 30
0
 10
-6.5956
 20
-1.77108
 30
0
 10
-6.26506
 20
-2.59507
 30
0
 10
-5.93541
 20
-3.41939
 30
0
 10
-5.44077
 20
-4.17949
 30
0
 10
-4.81716
 20
-4.81716
 30
0
 10
-4.19426
 20
-5.45548
 30
0
 10
-3.44293
 20
-5.97075
 30
0
 10
-2.61899
 20
-6.3228
 30
0
 10
-1.79545
 20
-6.67572
 30
0
 10
-0.900038
 20
-6.86506
 30
0
 10
1.267e-09
 20
-6.875
 30
0
 10
0.899994
 20
-6.8859
 30
0
 10
1.8038
 20
-6.71735
 30
0
 10
2.64291
 20
-6.38054
 30
0
 10
3.48234
 20
-6.04464
 30
0
 10
4.25632
 20
-5.54073
 30
0
 10
4.90555
 20
-4.90555
 30
0
 10
5.55544
 20
-4.27109
 30
0
 10
6.07998
 20
-3.50589
 30
0
 10
6.43829
 20
-2.66683
 30
0
 10
6.79747
 20
-1.82817
 30
0
 10
6.99007
 20
-0.916401
 30
0
 10
7
 20
-1.82077e-14
 30
0
  0
SPLINE
  5
A14
330
A02
100
AcDbEntity
  8
Spiral
100
AcDbSpline
210
0
220
0
230
1
 70
8
 71
3
 72
53
 73
49
 74
0
 40
0
 40
0
 40
0
 40
0
 40
0.392705
 40
0.392705
 40
0.392705
 40
0.785409
 40
0.785409
 40
0.785409
 40
1.17811
 40
1.17811
 40
1.17811
 40
1.57082
 40
1.57082
 40
1.57082
 40
1.96352
 40
1.96352
 40
1.96352
 40
2.35623
 40
2.35623
 40
2.35623
 40
2.74893
 40
2.74893
 40
2.74893
 40
3.14164
 40
3.14164
 40
3.14164
 40
3.53434
 40
3.53434
 40
3.53434
 40
3.92705
 40
3.92705
 40
3.92705
 40
4.31975
 40
4.31975
 40
4.31975
 40
4.71246
 40
4.71246
 40
4.71246
 40
5.10516
 40
5.10516
 40
5.10516
 40
5.49786
 40
5.49786
 40
5.49786
 40
5.89057
 40
5.89057
 40
5.89057
 40
6.28327
 40
6.28327
 40
6.28327
 40
6.28327
 10
7
 20
-2.30926e-14
 30
0
 10
7.01091
 20
0.916357
 30
0
 10
6.83911
 20
1.83652
 30
0
 10
6.49603
 20
2.69074
 30
0
 10
6.15387
 20
3.5453
 30
0
 10
5.6407
 20
4.33314
 30
0
 10
4.99394
 20
4.99394
 30
0
 10
4.34791
 20
5.65541
 30
0
 10
3.56884
 20
6.18921
 30
0
 10
2.71466
 20
6.55377
 30
0
 10
1.8609
 20
6.91923
 30
0
 10
0.932765
 20
7.11507
 30
0
 10
-2.24623e-09
 20
7.125
 30
0
 10
-0.932721
 20
7.13592
 30
0
 10
-1.86924
 20
6.96086
 30
0
 10
-2.73858
 20
6.61151
 30
0
 10
-3.60826
 20
6.2631
 30
0
 10
-4.40996
 20
5.74067
 30
0
 10
-5.08233
 20
5.08233
 30
0
 10
-5.75537
 20
4.42473
 30
0
 10
-6.29844
 20
3.6318
 30
0
 10
-6.66926
 20
2.7625
 30
0
 10
-7.04098
 20
1.89362
 30
0
 10
-7.24008
 20
0.949129
 30
0
 10
-7.25
 20
-1.65739e-10
 30
0
 10
-7.26093
 20
-0.949085
 30
0
 10
-7.08262
 20
-1.90196
 30
0
 10
-6.727
 20
-2.78641
 30
0
 10
-6.37233
 20
-3.67122
 30
0
 10
-5.84063
 20
-4.48679
 30
0
 10
-5.17072
 20
-5.17072
 30
0
 10
-4.50156
 20
-5.85534
 30
0
 10
-3.69476
 20
-6.40767
 30
0
 10
-2.81033
 20
-6.78474
 30
0
 10
-1.92634
 20
-7.16274
 30
0
 10
-0.965493
 20
-7.36509
 30
0
 10
1.23208e-09
 20
-7.375
 30
0
 10
0.965449
 20
-7.38593
 30
0
 10
1.93468
 20
-7.20438
 30
0
 10
2.83425
 20
-6.84248
 30
0
 10
3.73417
 20
-6.48156
 30
0
 10
4.56361
 20
-5.9406
 30
0
 10
5.25911
 20
-5.25911
 30
0
 10
5.9553
 20
-4.57838
 30
0
 10
6.5169
 20
-3.75772
 30
0
 10
6.90023
 20
-2.85817
 30
0
 10
7.28449
 20
-1.95906
 30
0
 10
7.4901
 20
-0.981857
 30
0
 10
7.5
 20
3.88578e-14
 30
0
  0
SPLINE
  5
A15
330
A02
100
AcDbEntity
  8
Spiral
100
AcDbSpline
210
0
220
0
230
1
 70
8
 71
3
 72
53
 73
49
 74
0
 40
0
 40
0
 40
0
 40
0
 40
0.392705
 40
0.392705
 40
0.392705
 40
0.785409
 40
0.785409
 40
0.785409
 40
1.17811
 40
1.17811
 40
1.17811
 40
1.57082
 40
1.57082
 40
1.57082
 40
1.96352
 40
1.96352
 40
1.96352
 40
2.35623
 40
2.35623
 40
2.35623
 40
2.74893
 40
2.74893
 40
2.74893
 40
3.14164
 40
3.14164
 40
3.14164
 40
3.53434
 40
3.53434
 40
3.53434
 40
3.92705
 40
3.92705
 40
3.92705
 40
4.31975
 40
4.31975
 40
4.31975
 40
4.71246
 40
4.71246
 40
4.71246
 40
5.10516
 40
5.10516
 40
5.10516
 40
5.49786
 40
5.49786
 40
5.49786
 40
5.89057
 40
5.89057
 40
5.89057
 40
6.28327
 40
6.28327
 40
6.28327
 40
6.28327
 10
7.5
 20
2.9754e-14
 30
0
 10
7.51094
 20
0.981813
 30
0
 10
7.32613
 20
1.9674
 30
0
 10
6.95797
 20
2.88208
 30
0
 10
6.59079
 20
3.79713
 30
0
 10
6.04056
 20
4.64044
 30
0
 10
5.3475
 20
5.3475
 30
0
 10
4.6552
 20
6.05527
 30
0
 10
3.82067
 20
6.62613
 30
0
 10
2.906
 20
7.01571
 30
0
 10
1.99178
 20
7.40625
 30
0
 10
0.998221
 20
7.61511
 30
0
 10
-2.28126e-09
 20
7.625
 30
0
 10
-0.998177
 20
7.63595
 30
0
 10
-2.00012
 20
7.44789
 30
0
 10
-2.92992
 20
7.07345
 30
0
 10
-3.86009
 20
6.70002
 30
0
 10
-4.71726
 20
6.14053
 30
0
 10
-5.43588
 20
5.43588
 30
0
 10
-6.15523
 20
4.73203
 30
0
 10
-6.73536
 20
3.88363
 30
0
 10
-7.1312
 20
2.95384
 30
0
 10
-7.528
 20
2.0245
 30
0
 10
-7.74012
 20
1.01458
 30
0
 10
-7.75
 20
-1.65793e-10
 30
0
 10
-7.76096
 20
-1.01454
 30
0
 10
-7.56964
 20
-2.03284
 30
0
 10
-7.18894
 20
-2.97776
 30
0
 10
-6.80925
 20
-3.92304
 30
0
 10
-6.24049
 20
-4.79408
 30
0
 10
-5.52427
 20
-5.52427
 30
0
 10
-4.80885
 20
-6.2552
 30
0
 10
-3.94659
 20
-6.8446
 30
0
 10
-3.00167
 20
-7.24668
 30
0
 10
-2.05722
 20
-7.64976
 30
0
 10
-1.03095
 20
-7.86513
 30
0
 10
1.19717e-09
 20
-7.875
 30
0
 10
1.0309
 20
-7.88597
 30
0
 10
2.06556
 20
-7.6914
 30
0
 10
3.02559
 20
-7.30442
 30
0
 10
3.986
 20
-6.91848
 30
0
 10
4.87091
 20
-6.34046
 30
0
 10
5.61266
 20
-5.61266
 30
0
 10
6.35517
 20
-4.88567
 30
0
 10
6.95383
 20
-4.00954
 30
0
 10
7.36217
 20
-3.04951
 30
0
 10
7.77151
 20
-2.08994
 30
0
 10
7.99014
 20
-1.04731
 30
0
 10
8
 20
8.50431e-14
 30
0
  0
SPLINE
  5
A16
330
A02
100
AcDbEntity
  8
Spiral
100
AcDbSpline
210
0
220
0
230
1
 70
8
 71
3
 72
53
 73
49
 74
0
 40
0
 40
0
 40
0
 40
0
 40
0.392705
 40
0.392705
 40
0.392705
 40
0.785409
 40
0.785409
 40
0.785409
 40
1.17811
 40
1.17811
 40
1.17811
 40
1.57082
 40
1.57082
 40
1.57082
 40
1.96352
 40
1.96352
 40
1.96352
 40
2.35623
 40
2.35623
 40
2.35623
 40
2.74893
 40
2.74893
 40
2.74893
 40
3.14164
 40
3.14164
 40
3.14164
 40
3.53434
 40
3.53434
 40
3.53434
 40
3.92705
 40
3.92705
 40
3.92705
 40
4.31975
 40
4.31975
 40
4.31975
 40
4.71246
 40
4.71246
 40
4.71246
 40
5.10516
 40
5.10516
 40
5.10516
 40
5.49786
 40
5.49786
 40
5.49786
 40
5.89057
 40
5.89057
 40
5.89057
 40
6.28327
 40
6.28327
 40
6.28327
 40
6.28327
 10
8
 20
7.9492e-14
 30
0
 10
8.01098
 20
1.04727
 30
0
 10
7.81315
 20
2.09828
 30
0
 10
7.41991
 20
3.07343
 30
0
 10
7.02771
 20
4.04896
 30
0
 10
6.44042
 20
4.94773
 30
0
 10
5.70105
 20
5.70105
 30
0
 10
4.9625
 20
6.45513
 30
0
 10
4.0725
 20
7.06306
 30
0
 10
3.09734
 20
7.47765
 30
0
 10
2.12266
 20
7.89327
 30
0
 10
1.06368
 20
8.11514
 30
0
 10
-2.31628e-09
 20
8.125
 30
0
 10
-1.06363
 20
8.13599
 30
0
 10
-2.131
 20
7.93491
 30
0
 10
-3.12126
 20
7.53539
 30
0
 10
-4.11192
 20
7.13695
 30
0
 10
-5.02455
 20
6.54039
 30
0
 10
-5.78944
 20
5.78944
 30
0
 10
-6.5551
 20
5.03932
 30
0
 10
-7.17229
 20
4.13546
 30
0
 10
-7.59313
 20
3.14518
 30
0
 10
-8.01502
 20
2.15538
 30
0
 10
-8.24015
 20
1.08004
 30
0
 10
-8.25
 20
-1.65854e-10
 30
0
 10
-8.261
 20
-1.08
 30
0
 10
-8.05666
 20
-2.16372
 30
0
 10
-7.65088
 20
-3.1691
 30
0
 10
-7.24618
 20
-4.17487
 30
0
 10
-6.64036
 20
-5.10138
 30
0
 10
-5.87783
 20
-5.87783
 30
0
 10
-5.11615
 20
-6.65506
 30
0
 10
-4.19842
 20
-7.28152
 30
0
 10
-3.19301
 20
-7.70862
 30
0
 10
-2.1881
 20
-8.13678
 30
0
 10
-1.0964
 20
-8.36516
 30
0
 10
1.16226e-09
 20
-8.375
 30
0
 10
1.09636
 20
-8.386
 30
0
 10
2.19644
 20
-8.17842
 30
0
 10
3.21693
 20
-7.76636
 30
0
 10
4.23783
 20
-7.35541
 30
0
 10
5.1782
 20
-6.74032
 30
0
 10
5.96621
 20
-5.96621
 30
0
 10
6.75503
 20
-5.19297
 30
0
 10
7.39075
 20
-4.26137
 30
0
 10
7.8241
 20
-3.24085
 30
0
 10
8.25853
 20
-2.22082
 30
0
 10
8.49017
 20
-1.11277
 30
0
 10
8.5
 20
1.56541e-13
 30
0
  0
SPLINE
  5
A17
330
A02
100
AcDbEntity
  8
Spiral
100
AcDbSpline
210
0
220
0
230
1
 70
8
 71
3
 72
53
 73
49
 74
0
 40
0
 40
0
 40
0
 40
0
 40
0.392705
 40
0.392705
 40
0.392705
 40
0.785409
 40
0.785409
 40
0.785409
 40
1.17811
 40
1.17811
 40
1.17811
 40
1.57082
 40
1.57082
 40
1.57082
 40
1.96352
 40
1.96352
 40
1.96352
 40
2.35623
 40
2.35623
 40
2.35623
 40
2.74893
 40
2.74893
 40
2.74893
 40
3.14164
 40
3.14164
 40
3.14164
 40
3.53434
 40
3.53434
 40
3.53434
 40
3.92705
 40
3.92705
 40
3.92705
 40
4.31975
 40
4.31975
 40
4.31975
 40
4.71246
 40
4.71246
 40
4.71246
 40
5.10516
 40
5.10516
 40
5.10516
 40
5.49786
 40
5.49786
 40
5.49786
 40
5.89057
 40
5.89057
 40
5.89057
 40
6.28327
 40
6.28327
 40
6.28327
 40
6.28327
 10
8.5
 20
1.40776e-13
 30
0
 10
8.51101
 20
1.11272
 30
0
 10
8.30017
 20
2.22916
 30
0
 10
7.88185
 20
3.26477
 30
0
 10
7.46464
 20
4.30079
 30
0
 10
6.84029
 20
5.25502
 30
0
 10
6.0546
 20
6.0546
 30
0
 10
5.26979
 20
6.85499
 30
0
 10
4.32433
 20
7.49998
 30
0
 10
3.28869
 20
7.93959
 30
0
 10
2.25354
 20
8.38029
 30
0
 10
1.12913
 20
8.61518
 30
0
 10
-2.35132e-09
 20
8.625
 30
0
 10
-1.12909
 20
8.63602
 30
0
 10
-2.26188
 20
8.42193
 30
0
 10
-3.3126
 20
7.99733
 30
0
 10
-4.36374
 20
7.57387
 30
0
 10
-5.33185
 20
6.94025
 30
0
 10
-6.14299
 20
6.14299
 30
0
 10
-6.95496
 20
5.34662
 30
0
 10
-7.60921
 20
4.38729
 30
0
 10
-8.05507
 20
3.33652
 30
0
 10
-8.50204
 20
2.28626
 30
0
 10
-8.74019
 20
1.1455
 30
0
 10
-8.75
 20
-1.6592e-10
 30
0
 10
-8.76103
 20
-1.14545
 30
0
 10
-8.54368
 20
-2.2946
 30
0
 10
-8.11282
 20
-3.36044
 30
0
 10
-7.6831
 20
-4.4267
 30
0
 10
-7.04022
 20
-5.40867
 30
0
 10
-6.23138
 20
-6.23138
 30
0
 10
-5.42344
 20
-7.05492
 30
0
 10
-4.45024
 20
-7.71844
 30
0
 10
-3.38436
 20
-8.17056
 30
0
 10
-2.31898
 20
-8.6238
 30
0
 10
-1.16186
 20
-8.8652
 30
0
 10
1.12735e-09
 20
-8.875
 30
0
 10
1.16182
 20
-8.88604
 30
0
 10
2.32733
 20
-8.66544
 30
0
 10
3.40827
 20
-8.2283
 30
0
 10
4.48966
 20
-7.79233
 30
0
 10
5.48549
 20
-7.14018
 30
0
 10
6.31977
 20
-6.31977
 30
0
 10
7.15489
 20
-5.50026
 30
0
 10
7.82767
 20
-4.5132
 30
0
 10
8.28604
 20
-3.43219
 30
0
 10
8.74555
 20
-2.3517
 30
0
 10
8.99021
 20
-1.17822
 30
0
 10
9
 20
2.21601e-13
 30
0
  0
SPLINE
  5
A18
330
A02
100
AcDbEntity
  8
Spiral
100
AcDbSpline
210
0
220
0
230
1
 70
8
 71
3
 72
53
 73
49
 74
0
 40
0
 40
0
 40
0
 40
0
 40
0.392705
 40
0.392705
 40
0.392705
 40
0.785409
 40
0.785409
 40
0.785409
 40
1.17811
 40
1.17811
 40
1.17811
 40
1.57082
 40
1.57082
 40
1.57082
 40
1.96352
 40
1.96352
 40
1.96352
 40
2.35623
 40
2.35623
 40
2.35623
 40
2.74893
 40
2.74893
 40
2.74893
 40
3.14164
 40
3.14164
 40
3.14164
 40
3.53434
 40
3.53434
 40
3.53434
 40
3.92705
 40
3.92705
 40
3.92705
 40
4.31975
 40
4.31975
 40
4.31975
 40
4.71246
 40
4.71246
 40
4.71246
 40
5.10516
 40
5.10516
 40
5.10516
 40
5.49786
 40
5.49786
 40
5.49786
 40
5.89057
 40
5.89057
 40
5.89057
 40
6.28327
 40
6.28327
 40
6.28327
 40
6.28327
 10
9
 20
2.1938e-13
 30
0
 10
9.01105
 20
1.17818
 30
0
 10
8.78719
 20
2.36005
 30
0
 10
8.34379
 20
3.45611
 30
0
 10
7.90156
 20
4.55261
 30
0
 10
7.24015
 20
5.56232
 30
0
 10
6.40816
 20
6.40816
 30
0
 10
5.57709
 20
7.25486
 30
0
 10
4.57616
 20
7.9369
 30
0
 10
3.48003
 20
8.40153
 30
0
 10
2.38442
 20
8.86731
 30
0
 10
1.19459
 20
9.11521
 30
0
 10
-2.38636e-09
 20
9.125
 30
0
 10
-1.19454
 20
9.13606
 30
0
 10
-2.39277
 20
8.90895
 30
0
 10
-3.50395
 20
8.45927
 30
0
 10
-4.61557
 20
8.01079
 30
0
 10
-5.63914
 20
7.34011
 30
0
 10
-6.49654
 20
6.49654
 30
0
 10
-7.35482
 20
5.65391
 30
0
 10
-8.04613
 20
4.63911
 30
0
 10
-8.51701
 20
3.52786
 30
0
 10
-8.98906
 20
2.41714
 30
0
 10
-9.24022
 20
1.21095
 30
0
 10
-9.25
 20
-1.65993e-10
 30
0
 10
-9.26107
 20
-1.21091
 30
0
 10
-9.0307
 20
-2.42549
 30
0
 10
-8.57476
 20
-3.55178
 30
0
 10
-8.12002
 20
-4.67853
 30
0
 10
-7.44008
 20
-5.71596
 30
0
 10
-6.58493
 20
-6.58493
 30
0
 10
-5.73073
 20
-7.45479
 30
0
 10
-4.70207
 20
-8.15536
 30
0
 10
-3.5757
 20
-8.6325
 30
0
 10
-2.44986
 20
-9.11082
 30
0
 10
-1.22732
 20
-9.36523
 30
0
 10
1.09246e-09
 20
-9.375
 30
0
 10
1.22727
 20
-9.38607
 30
0
 10
2.45821
 20
-9.15246
 30
0
 10
3.59962
 20
-8.69024
 30
0
 10
4.74149
 20
-8.22925
 30
0
 10
5.79279
 20
-7.54005
 30
0
 10
6.67332
 20
-6.67332
 30
0
 10
7.55475
 20
-5.80756
 30
0
 10
8.2646
 20
-4.76503
 30
0
 10
8.74798
 20
-3.62353
 30
0
 10
9.23257
 20
-2.48258
 30
0
 10
9.49024
 20
-1.24368
 30
0
 10
9.5
 20
2.9754e-13
 30
0
  0
SPLINE
  5
A19
330
A02
100
AcDbEntity
  8
Spiral
100
AcDbSpline
210
0
220
0
230
1
 70
8
 71
3
 72
53
 73
49
 74
0
 40
0
 40
0
 40
0
 40
0
 40
0.392705
 40
0.392705
 40
0.392705
 40
0.785409
 40
0.785409
 40
0.785409
 40
1.17811
 40
1.17811
 40
1.17811
 40
1.57082
 40
1.57082
 40
1.57082
 40
1.96352
 40
1.96352
 40
1.96352
 40
2.35623
 40
2.35623
 40
2.35623
 40
2.74893
 40
2.74893
 40
2.74893
 40
3.14164
 40
3.14164
 40
3.14164
 40
3.53434
 40
3.53434
 40
3.53434
 40
3.92705
 40
3.92705
 40
3.92705
 40
4.31975
 40
4.31975
 40
4.31975
 40
4.71246
 40
4.71246
 40
4.71246
 40
5.10516
 40
5.10516
 40
5.10516
 40
5.49786
 40
5.49786
 40
5.49786
 40
5.89057
 40
5.89057
 40
5.89057
 40
6.28327
 40
6.28327
 40
6.28327
 40
6.28327
 10
9.5
 20
2.91323e-13
 30
0
 10
9.51108
 20
1.24364
 30
0
 10
9.27421
 20
2.49093
 30
0
 10
8.80573
 20
3.64745
 30
0
 10
8.33848
 20
4.80444
 30
0
 10
7.64001
 20
5.86961
 30
0
 10
6.76171
 20
6.76171
 30
0
 10
5.88438
 20
7.65472
 30
0
 10
4.82799
 20
8.37383
 30
0
 10
3.67137
 20
8.86347
 30
0
 10
2.5153
 20
9.35433
 30
0
 10
1.26004
 20
9.61525
 30
0
 10
-2.42141e-09
 20
9.625
 30
0
 10
-1.26
 20
9.63609
 30
0
 10
-2.52365
 20
9.39597
 30
0
 10
-3.69529
 20
8.92121
 30
0
 10
-4.8674
 20
8.44771
 30
0
 10
-5.94643
 20
7.73998
 30
0
 10
-6.8501
 20
6.8501
 30
0
 10
-7.75468
 20
5.9612
 30
0
 10
-8.48306
 20
4.89094
 30
0
 10
-8.97895
 20
3.7192
 30
0
 10
-9.47609
 20
2.54803
 30
0
 10
-9.74026
 20
1.27641
 30
0
 10
-9.75
 20
-1.66075e-10
 30
0
 10
-9.7611
 20
-1.27636
 30
0
 10
-9.51772
 20
-2.55637
 30
0
 10
-9.0367
 20
-3.74312
 30
0
 10
-8.55695
 20
-4.93036
 30
0
 10
-7.83994
 20
-6.02326
 30
0
 10
-6.93849
 20
-6.93849
 30
0
 10
-6.03803
 20
-7.85465
 30
0
 10
-4.9539
 20
-8.59229
 30
0
 10
-3.76704
 20
-9.09444
 30
0
 10
-2.58075
 20
-9.59784
 30
0
 10
-1.29277
 20
-9.86527
 30
0
 10
1.05757e-09
 20
-9.875
 30
0
 10
1.29273
 20
-9.88611
 30
0
 10
2.58909
 20
-9.63948
 30
0
 10
3.79096
 20
-9.15218
 30
0
 10
4.99331
 20
-8.66618
 30
0
 10
6.10008
 20
-7.93991
 30
0
 10
7.02687
 20
-7.02687
 30
0
 10
7.95461
 20
-6.11485
 30
0
 10
8.70152
 20
-5.01686
 30
0
 10
9.20992
 20
-3.81488
 30
0
 10
9.7196
 20
-2.61347
 30
0
 10
9.99028
 20
-1.30914
 30
0
 10
10
 20
3.90576e-13
 30
0
  0
SPLINE
  5
A1A
330
A02
100
AcDbEntity
  8
Spiral
100
AcDbSpline
210
0
220
0
230
1
 70
8
 71
3
 72
53
 73
49
 74
0
 40
0
 40
0
 40
0
 40
0
 40
0.392705
 40
0.392705
 40
0.392705
 40
0.785409
 40
0.785409
 40
0.785409
 40
1.17811
 40
1.17811
 40
1.17811
 40
1.57082
 40
1.57082
 40
1.57082
 40
1.96352
 40
1.96352
 40
1.96352
 40
2.35623
 40
2.35623
 40
2.35623
 40
2.74893
 40
2.74893
 40
2.74893
 40
3.14164
 40
3.14164
 40
3.14164
 40
3.53434
 40
3.53434
 40
3.53434
 40
3.92705
 40
3.92705
 40
3.92705
 40
4.31975
 40
4.31975
 40
4.31975
 40
4.71246
 40
4.71246
 40
4.71246
 40
5.10516
 40
5.10516
 40
5.10516
 40
5.49786
 40
5.49786
 40
5.49786
 40
5.89057
 40
5.89057
 40
5.89057
 40
6.28327
 40
6.28327
 40
6.28327
 40
6.28327
 10
10
 20
3.88134e-13
 30
0
 10
10.0111
 20
1.30909
 30
0
 10
9.76123
 20
2.62181
 30
0
 10
9.26767
 20
3.83879
 30
0
 10
8.77541
 20
5.05627
 30
0
 10
8.03987
 20
6.1769
 30
0
 10
7.11526
 20
7.11526
 30
0
 10
6.19167
 20
8.05458
 30
0
 10
5.07981
 20
8.81075
 30
0
 10
3.86271
 20
9.32541
 30
0
 10
2.64619
 20
9.84135
 30
0
 10
1.3255
 20
10.1153
 30
0
 10
-2.45647e-09
 20
10.125
 30
0
 10
-1.32546
 20
10.1361
 30
0
 10
-2.65453
 20
9.88299
 30
0
 10
-3.88663
 20
9.38315
 30
0
 10
-5.11923
 20
8.88464
 30
0
 10
-6.25373
 20
8.13984
 30
0
 10
-7.20365
 20
7.20365
 30
0
 10
-8.15455
 20
6.2685
 30
0
 10
-8.91998
 20
5.14277
 30
0
 10
-9.44089
 20
3.91055
 30
0
 10
-9.96311
 20
2.67891
 30
0
 10
-10.2403
 20
1.34186
 30
0
 10
-10.25
 20
-1.66163e-10
 30
0
 10
-10.2611
 20
-1.34182
 30
0
 10
-10.0047
 20
-2.68725
 30
0
 10
-9.49864
 20
-3.93446
 30
0
 10
-8.99387
 20
-5.18219
 30
0
 10
-8.2398
 20
-6.33055
 30
0
 10
-7.29204
 20
-7.29204
 30
0
 10
-6.34532
 20
-8.25451
 30
0
 10
-5.20573
 20
-9.02921
 30
0
 10
-3.95838
 20
-9.55638
 30
0
 10
-2.71163
 20
-10.0849
 30
0
 10
-1.35823
 20
-10.3653
 30
0
 10
1.02268e-09
 20
-10.375
 30
0
 10
1.35818
 20
-10.3861
 30
0
 10
2.71997
 20
-10.1265
 30
0
 10
3.9823
 20
-9.61412
 30
0
 10
5.24514
 20
-9.1031
 30
0
 10
6.40737
 20
-8.33977
 30
0
 10
7.38043
 20
-7.38043
 30
0
 10
8.35448
 20
-6.42214
 30
0
 10
9.13844
 20
-5.26869
 30
0
 10
9.67186
 20
-4.00622
 30
0
 10
10.2066
 20
-2.74435
 30
0
 10
10.4903
 20
-1.37459
 30
0
 10
10.5
 20
4.66738e-13
 30
0
  0
SPLINE
  5
A1B
330
A02
100
AcDbEntity
  8
Spiral
100
AcDbSpline
210
0
220
0
230
1
 70
8
 71
3
 72
53
 73
49
 74
0
 40
0
 40
0
 40
0
 40
0
 40
0.392705
 40
0.392705
 40
0.392705
 40
0.785409
 40
0.785409
 40
0.785409
 40
1.17811
 40
1.17811
 40
1.17811
 40
1.57082
 40
1.57082
 40
1.57082
 40
1.96352
 40
1.96352
 40
1.96352
 40
2.35623
 40
2.35623
 40
2.35623
 40
2.74893
 40
2.74893
 40
2.74893
 40
3.14164
 40
3.14164
 40
3.14164
 40
3.53434
 40
3.53434
 40
3.53434
 40
3.92705
 40
3.92705
 40
3.92705
 40
4.31975
 40
4.31975
 40
4.31975
 40
4.71246
 40
4.71246
 40
4.71246
 40
5.10516
 40
5.10516
 40
5.10516
 40
5.49786
 40
5.49786
 40
5.49786
 40
5.89057
 40
5.89057
 40
5.89057
 40
6.28327
 40
6.28327
 40
6.28327
 40
6.28327
 10
10.5
 20
4.78728e-13
 30
0
 10
10.5112
 20
1.37455
 30
0
 10
10.2483
 20
2.75269
 30
0
 10
9.72961
 20
4.03013
 30
0
 10
9.21233
 20
5.3081
 30
0
 10
8.43973
 20
6.4842
 30
0
 10
7.46882
 20
7.46882
 30
0
 10
6.49897
 20
8.45444
 30
0
 10
5.33164
 20
9.24767
 30
0
 10
4.05405
 20
9.78735
 30
0
 10
2.77707
 20
10.3284
 30
0
 10
1.39096
 20
10.6153
 30
0
 10
-2.49154e-09
 20
10.625
 30
0
 10
-1.39091
 20
10.6362
 30
0
 10
-2.78541
 20
10.37
 30
0
 10
-4.07797
 20
9.84509
 30
0
 10
-5.37106
 20
9.32156
 30
0
 10
-6.56102
 20
8.5397
 30
0
 10
-7.5572
 20
7.5572
 30
0
 10
-8.55441
 20
6.57579
 30
0
 10
-9.3569
 20
5.3946
 30
0
 10
-9.90283
 20
4.10189
 30
0
 10
-10.4501
 20
2.80979
 30
0
 10
-10.7403
 20
1.40732
 30
0
 10
-10.75
 20
-1.66258e-10
 30
0
 10
-10.7612
 20
-1.40727
 30
0
 10
-10.4918
 20
-2.81813
 30
0
 10
-9.96058
 20
-4.12581
 30
0
 10
-9.43079
 20
-5.43401
 30
0
 10
-8.63967
 20
-6.63785
 30
0
 10
-7.64559
 20
-7.64559
 30
0
 10
-6.65261
 20
-8.65437
 30
0
 10
-5.45756
 20
-9.46613
 30
0
 10
-4.14972
 20
-10.0183
 30
0
 10
-2.84251
 20
-10.5719
 30
0
 10
-1.42368
 20
-10.8653
 30
0
 10
9.87814e-10
 20
-10.875
 30
0
 10
1.42364
 20
-10.8862
 30
0
 10
2.85085
 20
-10.6135
 30
0
 10
4.17364
 20
-10.0761
 30
0
 10
5.49697
 20
-9.54002
 30
0
 10
6.71467
 20
-8.73963
 30
0
 10
7.73398
 20
-7.73398
 30
0
 10
8.75434
 20
-6.72944
 30
0
 10
9.57536
 20
-5.52051
 30
0
 10
10.1338
 20
-4.19756
 30
0
 10
10.6936
 20
-2.87523
 30
0
 10
10.9903
 20
-1.44005
 30
0
 10
11
 20
5.71099e-13
 30
0
  0
SPLINE
  5
A1C
330
A02
100
AcDbEntity
  8
Spiral
100
AcDbSpline
210
0
220
0
230
1
 70
8
 71
3
 72
53
 73
49
 74
0
 40
0
 40
0
 40
0
 40
0
 40
0.392705
 40
0.392705
 40
0.392705
 40
0.785409
 40
0.785409
 40
0.785409
 40
1.17811
 40
1.17811
 40
1.17811
 40
1.57082
 40
1.57082
 40
1.57082
 40
1.96352
 40
1.96352
 40
1.96352
 40
2.35623
 40
2.35623
 40
2.35623
 40
2.74893
 40
2.74893
 40
2.74893
 40
3.14164
 40
3.14164
 40
3.14164
 40
3.53434
 40
3.53434
 40
3.53434
 40
3.92705
 40
3.92705
 40
3.92705
 40
4.31975
 40
4.31975
 40
4.31975
 40
4.71246
 40
4.71246
 40
4.71246
 40
5.10516
 40
5.10516
 40
5.10516
 40
5.49786
 40
5.49786
 40
5.49786
 40
5.89057
 40
5.89057
 40
5.89057
 40
6.28327
 40
6.28327
 40
6.28327
 40
6.28327
 10
11
 20
5.57776e-13
 30
0
 10
11.0112
 20
1.44
 30
0
 10
10.7353
 20
2.88357
 30
0
 10
10.1915
 20
4.22148
 30
0
 10
9.64925
 20
5.55993
 30
0
 10
8.8396
 20
6.79149
 30
0
 10
7.82237
 20
7.82237
 30
0
 10
6.80626
 20
8.8543
 30
0
 10
5.58347
 20
9.6846
 30
0
 10
4.24539
 20
10.2493
 30
0
 10
2.90795
 20
10.8154
 30
0
 10
1.45641
 20
11.1154
 30
0
 10
-2.52658e-09
 20
11.125
 30
0
 10
-1.45637
 20
11.1362
 30
0
 10
-2.91629
 20
10.857
 30
0
 10
-4.26931
 20
10.307
 30
0
 10
-5.62288
 20
9.75848
 30
0
 10
-6.86832
 20
8.93956
 30
0
 10
-7.91076
 20
7.91076
 30
0
 10
-8.95427
 20
6.88308
 30
0
 10
-9.79383
 20
5.64643
 30
0
 10
-10.3648
 20
4.29323
 30
0
 10
-10.9371
 20
2.94067
 30
0
 10
-11.2404
 20
1.47277
 30
0
 10
-11.25
 20
-1.66363e-10
 30
0
 10
-11.2612
 20
-1.47273
 30
0
 10
-10.9788
 20
-2.94901
 30
0
 10
-10.4225
 20
-4.31715
 30
0
 10
-9.86771
 20
-5.68584
 30
0
 10
-9.03953
 20
-6.94514
 30
0
 10
-7.99915
 20
-7.99915
 30
0
 10
-6.95991
 20
-9.05423
 30
0
 10
-5.70938
 20
-9.90306
 30
0
 10
-4.34107
 20
-10.4803
 30
0
 10
-2.97339
 20
-11.0589
 30
0
 10
-1.48914
 20
-11.3654
 30
0
 10
9.53018e-10
 20
-11.375
 30
0
 10
1.48909
 20
-11.3862
 30
0
 10
2.98173
 20
-11.1005
 30
0
 10
4.36498
 20
-10.538
 30
0
 10
5.7488
 20
-9.97695
 30
0
 10
7.02196
 20
-9.13949
 30
0
 10
8.08753
 20
-8.08753
 30
0
 10
9.1542
 20
-7.03673
 30
0
 10
10.0123
 20
-5.77234
 30
0
 10
10.5957
 20
-4.3889
 30
0
 10
11.1807
 20
-3.00611
 30
0
 10
11.4904
 20
-1.5055
 30
0
 10
11.5
 20
6.79456e-13
 30
0
  0
SPLINE
  5
A1D
330
A02
100
AcDbEntity
  8
Spiral
100
AcDbSpline
210
0
220
0
230
1
 70
8
 71
3
 72
53
 73
49
 74
0
 40
0
 40
0
 40
0
 40
0
 40
0.392705
 40
0.392705
 40
0.392705
 40
0.785409
 40
0.785409
 40
0.785409
 40
1.17811
 40
1.17811
 40
1.17811
 40
1.57082
 40
1.57082
 40
1.57082
 40
1.96352
 40
1.96352
 40
1.96352
 40
2.35623
 40
2.35623
 40
2.35623
 40
2.74893
 40
2.74893
 40
2.74893
 40
3.14164
 40
3.14164
 40
3.14164
 40
3.53434
 40
3.53434
 40
3.53434
 40
3.92705
 40
3.92705
 40
3.92705
 40
4.31975
 40
4.31975
 40
4.31975
 40
4.71246
 40
4.71246
 40
4.71246
 40
5.10516
 40
5.10516
 40
5.10516
 40
5.49786
 40
5.49786
 40
5.49786
 40
5.89057
 40
5.89057
 40
5.89057
 40
6.28327
 40
6.28327
 40
6.28327
 40
6.28327
 10
11.5
 20
6.81233e-13
 30
0
 10
11.5112
 20
1.50546
 30
0
 10
11.2223
 20
3.01446
 30
0
 10
10.6535
 20
4.41282
 30
0
 10
10.0862
 20
5.81176
 30
0
 10
9.23946
 20
7.09879
 30
0
 10
8.17592
 20
8.17592
 30
0
 10
7.11356
 20
9.25417
 30
0
 10
5.8353
 20
10.1215
 30
0
 10
4.43674
 20
10.7112
 30
0
 10
3.03883
 20
11.3024
 30
0
 10
1.52187
 20
11.6154
 30
0
 10
-2.56161e-09
 20
11.625
 30
0
 10
-1.52182
 20
11.6362
 30
0
 10
-3.04718
 20
11.3441
 30
0
 10
-4.46065
 20
10.769
 30
0
 10
-5.87471
 20
10.1954
 30
0
 10
-7.17561
 20
9.33942
 30
0
 10
-8.26431
 20
8.26431
 30
0
 10
-9.35413
 20
7.19038
 30
0
 10
-10.2307
 20
5.89826
 30
0
 10
-10.8267
 20
4.48457
 30
0
 10
-11.4242
 20
3.07155
 30
0
 10
-11.7404
 20
1.53823
 30
0
 10
-11.75
 20
-1.66466e-10
 30
0
 10
-11.7612
 20
-1.53819
 30
0
 10
-11.4658
 20
-3.0799
 30
0
 10
-10.8845
 20
-4.50849
 30
0
 10
-10.3046
 20
-5.93767
 30
0
 10
-9.43939
 20
-7.25243
 30
0
 10
-8.3527
 20
-8.3527
 30
0
 10
-7.2672
 20
-9.4541
 30
0
 10
-5.96121
 20
-10.34
 30
0
 10
-4.53241
 20
-10.9422
 30
0
 10
-3.10427
 20
-11.5459
 30
0
 10
-1.55459
 20
-11.8654
 30
0
 10
9.18162e-10
 20
-11.875
 30
0
 10
1.55455
 20
-11.8862
 30
0
 10
3.11262
 20
-11.5876
 30
0
 10
4.55632
 20
-10.9999
 30
0
 10
6.00063
 20
-10.4139
 30
0
 10
7.32926
 20
-9.53936
 30
0
 10
8.44109
 20
-8.44109
 30
0
 10
9.55406
 20
-7.34403
 30
0
 10
10.4492
 20
-6.02417
 30
0
 10
11.0577
 20
-4.58024
 30
0
 10
11.6677
 20
-3.13699
 30
0
 10
11.9904
 20
-1.57096
 30
0
 10
12
 20
7.81597e-13
 30
0
  0
SPLINE
  5
A1E
330
A02
100
AcDbEntity
  8
Spiral
100
AcDbSpline
210
0
220
0
230
1
 70
8
 71
3
 72
53
 73
49
 74
0
 40
0
 40
0
 40
0
 40
0
 40
0.392705
 40
0.392705
 40
0.392705
 40
0.785409
 40
0.785409
 40
0.785409
 40
1.17811
 40
1.17811
 40
1.17811
 40
1.57082
 40
1.57082
 40
1.57082
 40
1.96352
 40
1.96352
 40
1.96352
 40
2.35623
 40
2.35623
 40
2.35623
 40
2.74893
 40
2.74893
 40
2.74893
 40
3.14164
 40
3.14164
 40
3.14164
 40
3.53434
 40
3.53434
 40
3.53434
 40
3.92705
 40
3.92705
 40
3.92705
 40
4.31975
 40
4.31975
 40
4.31975
 40
4.71246
 40
4.71246
 40
4.71246
 40
5.10516
 40
5.10516
 40
5.10516
 40
5.49786
 40
5.49786
 40
5.49786
 40
5.89057
 40
5.89057
 40
5.89057
 40
6.28327
 40
6.28327
 40
6.28327
 40
6.28327
 10
12
 20
7.85594e-13
 30
0
 10
12.0113
 20
1.57091
 30
0
 10
11.7093
 20
3.14534
 30
0
 10
11.1154
 20
4.60416
 30
0
 10
10.5231
 20
6.06358
 30
0
 10
9.63932
 20
7.40608
 30
0
 10
8.52948
 20
8.52948
 30
0
 10
7.42085
 20
9.65403
 30
0
 10
6.08713
 20
10.5584
 30
0
 10
4.62808
 20
11.1732
 30
0
 10
3.16971
 20
11.7894
 30
0
 10
1.58732
 20
12.1154
 30
0
 10
-2.5967e-09
 20
12.125
 30
0
 10
-1.58728
 20
12.1363
 30
0
 10
-3.17806
 20
11.8311
 30
0
 10
-4.652
 20
11.2309
 30
0
 10
-6.12654
 20
10.6323
 30
0
 10
-7.4829
 20
9.73929
 30
0
 10
-8.61786
 20
8.61786
 30
0
 10
-9.75399
 20
7.49767
 30
0
 10
-10.6677
 20
6.15008
 30
0
 10
-11.2887
 20
4.67591
 30
0
 10
-11.9112
 20
3.20243
 30
0
 10
-12.2404
 20
1.60369
 30
0
 10
-12.25
 20
-1.66582e-10
 30
0
 10
-12.2613
 20
-1.60364
 30
0
 10
-11.9528
 20
-3.21078
 30
0
 10
-11.3464
 20
-4.69983
 30
0
 10
-10.7416
 20
-6.1895
 30
0
 10
-9.83925
 20
-7.55973
 30
0
 10
-8.70625
 20
-8.70625
 30
0
 10
-7.5745
 20
-9.85396
 30
0
 10
-6.21304
 20
-10.7769
 30
0
 10
-4.72375
 20
-11.4041
 30
0
 10
-3.23515
 20
-12.0329
 30
0
 10
-1.62005
 20
-12.3654
 30
0
 10
8.83305e-10
 20
-12.375
 30
0
 10
1.62001
 20
-12.3863
 30
0
 10
3.2435
 20
-12.0746
 30
0
 10
4.74767
 20
-11.4619
 30
0
 10
6.25245
 20
-10.8508
 30
0
 10
7.63655
 20
-9.93922
 30
0
 10
8.79464
 20
-8.79464
 30
0
 10
9.95392
 20
-7.65132
 30
0
 10
10.8861
 20
-6.276
 30
0
 10
11.5196
 20
-4.77158
 30
0
 10
12.1547
 20
-3.26788
 30
0
 10
12.4904
 20
-1.63641
 30
0
 10
12.5
 20
9.08162e-13
 30
0
  0
SPLINE
  5
A1F
330
A02
100
AcDbEntity
  8
Spiral
100
AcDbSpline
210
0
220
0
230
1
 70
8
 71
3
 72
53
 73
49
 74
0
 40
0
 40
0
 40
0
 40
0
 40
0.392705
 40
0.392705
 40
0.392705
 40
0.785409
 40
0.785409
 40
0.785409
 40
1.17811
 40
1.17811
 40
1.17811
 40
1.57082
 40
1.57082
 40
1.57082
 40
1.96352
 40
1.96352
 40
1.96352
 40
2.35623
 40
2.35623
 40
2.35623
 40
2.74893
 40
2.74893
 40
2.74893
 40
3.14164
 40
3.14164
 40
3.14164
 40
3.53434
 40
3.53434
 40
3.53434
 40
3.92705
 40
3.92705
 40
3.92705
 40
4.31975
 40
4.31975
 40
4.31975
 40
4.71246
 40
4.71246
 40
4.71246
 40
5.10516
 40
5.10516
 40
5.10516
 40
5.49786
 40
5.49786
 40
5.49786
 40
5.89057
 40
5.89057
 40
5.89057
 40
6.28327
 40
6.28327
 40
6.28327
 40
6.28327
 10
12.5
 20
9.05942e-13
 30
0
 10
12.5113
 20
1.63637
 30
0
 10
12.1963
 20
3.27622
 30
0
 10
11.5774
 20
4.7955
 30
0
 10
10.96
 20
6.31541
 30
0
 10
10.0392
 20
7.71337
 30
0
 10
8.88303
 20
8.88303
 30
0
 10
7.72814
 20
10.0539
 30
0
 10
6.33896
 20
10.9954
 30
0
 10
4.81942
 20
11.6351
 30
0
 10
3.3006
 20
12.2765
 30
0
 10
1.65278
 20
12.6155
 30
0
 10
-2.63179e-09
 20
12.625
 30
0
 10
-1.65273
 20
12.6363
 30
0
 10
-3.30894
 20
12.3181
 30
0
 10
-4.84334
 20
11.6929
 30
0
 10
-6.37837
 20
11.0693
 30
0
 10
-7.7902
 20
10.1391
 30
0
 10
-8.97142
 20
8.97142
 30
0
 10
-10.1539
 20
7.80497
 30
0
 10
-11.1046
 20
6.40191
 30
0
 10
-11.7506
 20
4.86725
 30
0
 10
-12.3982
 20
3.33332
 30
0
 10
-12.7405
 20
1.66914
 30
0
 10
-12.75
 20
-1.66703e-10
 30
0
 10
-12.7613
 20
-1.6691
 30
0
 10
-12.4398
 20
-3.34166
 30
0
 10
-11.8083
 20
-4.89117
 30
0
 10
-11.1785
 20
-6.44133
 30
0
 10
-10.2391
 20
-7.86702
 30
0
 10
-9.05981
 20
-9.05981
 30
0
 10
-7.88179
 20
-10.2538
 30
0
 10
-6.46487
 20
-11.2138
 30
0
 10
-4.91509
 20
-11.8661
 30
0
 10
-3.36604
 20
-12.52
 30
0
 10
-1.68551
 20
-12.8655
 30
0
 10
8.48451e-10
 20
-12.875
 30
0
 10
1.68546
 20
-12.8863
 30
0
 10
3.37438
 20
-12.5616
 30
0
 10
4.93901
 20
-11.9238
 30
0
 10
6.50428
 20
-11.2877
 30
0
 10
7.94384
 20
-10.3391
 30
0
 10
9.14819
 20
-9.14819
 30
0
 10
10.3538
 20
-7.95861
 30
0
 10
11.3231
 20
-6.52783
 30
0
 10
11.9816
 20
-4.96293
 30
0
 10
12.6417
 20
-3.39876
 30
0
 10
12.9905
 20
-1.70187
 30
0
 10
13
 20
1.03606e-12
 30
0
  0
SPLINE
  5
A20
330
A02
100
AcDbEntity
  8
Spiral
100
AcDbSpline
210
0
220
0
230
1
 70
8
 71
3
 72
53
 73
49
 74
0
 40
0
 40
0
 40
0
 40
0
 40
0.392705
 40
0.392705
 40
0.392705
 40
0.785409
 40
0.785409
 40
0.785409
 40
1.17811
 40
1.17811
 40
1.17811
 40
1.57082
 40
1.57082
 40
1.57082
 40
1.96352
 40
1.96352
 40
1.96352
 40
2.35623
 40
2.35623
 40
2.35623
 40
2.74893
 40
2.74893
 40
2.74893
 40
3.14164
 40
3.14164
 40
3.14164
 40
3.53434
 40
3.53434
 40
3.53434
 40
3.92705
 40
3.92705
 40
3.92705
 40
4.31975
 40
4.31975
 40
4.31975
 40
4.71246
 40
4.71246
 40
4.71246
 40
5.10516
 40
5.10516
 40
5.10516
 40
5.49786
 40
5.49786
 40
5.49786
 40
5.89057
 40
5.89057
 40
5.89057
 40
6.28327
 40
6.28327
 40
6.28327
 40
6.28327
 10
13
 20
1.03295e-12
 30
0
 10
13.0113
 20
1.70183
 30
0
 10
12.6834
 20
3.4071
 30
0
 10
12.0393
 20
4.98684
 30
0
 10
11.3969
 20
6.56724
 30
0
 10
10.439
 20
8.02067
 30
0
 10
9.23658
 20
9.23658
 30
0
 10
8.03544
 20
10.4538
 30
0
 10
6.59078
 20
11.4323
 30
0
 10
5.01076
 20
12.097
 30
0
 10
3.43148
 20
12.7635
 30
0
 10
1.71823
 20
13.1155
 30
0
 10
-2.66688e-09
 20
13.125
 30
0
 10
-1.71819
 20
13.1363
 30
0
 10
-3.43982
 20
12.8051
 30
0
 10
-5.03468
 20
12.1548
 30
0
 10
-6.6302
 20
11.5062
 30
0
 10
-8.09749
 20
10.539
 30
0
 10
-9.32497
 20
9.32497
 30
0
 10
-10.5537
 20
8.11226
 30
0
 10
-11.5415
 20
6.65374
 30
0
 10
-12.2125
 20
5.0586
 30
0
 10
-12.8852
 20
3.4642
 30
0
 10
-13.2405
 20
1.7346
 30
0
 10
-13.25
 20
-1.66832e-10
 30
0
 10
-13.2613
 20
-1.73455
 30
0
 10
-12.9269
 20
-3.47254
 30
0
 10
-12.2703
 20
-5.08251
 30
0
 10
-11.6154
 20
-6.69315
 30
0
 10
-10.639
 20
-8.17431
 30
0
 10
-9.41336
 20
-9.41336
 30
0
 10
-8.18908
 20
-10.6537
 30
0
 10
-6.7167
 20
-11.6507
 30
0
 10
-5.10643
 20
-12.328
 30
0
 10
-3.49692
 20
-13.007
 30
0
 10
-1.75096
 20
-13.3655
 30
0
 10
8.1362e-10
 20
-13.375
 30
0
 10
1.75092
 20
-13.3864
 30
0
 10
3.50526
 20
-13.0486
 30
0
 10
5.13035
 20
-12.3858
 30
0
 10
6.75611
 20
-11.7246
 30
0
 10
8.25114
 20
-10.7389
 30
0
 10
9.50175
 20
-9.50175
 30
0
 10
10.7536
 20
-8.26591
 30
0
 10
11.76
 20
-6.77965
 30
0
 10
12.4435
 20
-5.15427
 30
0
 10
13.1287
 20
-3.52964
 30
0
 10
13.4905
 20
-1.76733
 30
0
 10
13.5
 20
1.16263e-12
 30
0
  0
SPLINE
  5
A21
330
A02
100
AcDbEntity
  8
Spiral
100
AcDbSpline
210
0
220
0
230
1
 70
8
 71
3
 72
53
 73
49
 74
0
 40
0
 40
0
 40
0
 40
0
 40
0.392705
 40
0.392705
 40
0.392705
 40
0.785409
 40
0.785409
 40
0.785409
 40
1.17811
 40
1.17811
 40
1.17811
 40
1.57082
 40
1.57082
 40
1.57082
 40
1.96352
 40
1.96352
 40
1.96352
 40
2.35623
 40
2.35623
 40
2.35623
 40
2.74893
 40
2.74893
 40
2.74893
 40
3.14164
 40
3.14164
 40
3.14164
 40
3.53434
 40
3.53434
 40
3.53434
 40
3.92705
 40
3.92705
 40
3.92705
 40
4.31975
 40
4.31975
 40
4.31975
 40
4.71246
 40
4.71246
 40
4.71246
 40
5.10516
 40
5.10516
 40
5.10516
 40
5.49786
 40
5.49786
 40
5.49786
 40
5.89057
 40
5.89057
 40
5.89057
 40
6.28327
 40
6.28327
 40
6.28327
 40
6.28327
 10
13.5
 20
1.18838e-12
 30
0
 10
13.5114
 20
1.76728
 30
0
 10
13.1704
 20
3.53798
 30
0
 10
12.5012
 20
5.17819
 30
0
 10
11.8339
 20
6.81907
 30
0
 10
10.8389
 20
8.32796
 30
0
 10
9.59014
 20
9.59014
 30
0
 10
8.34273
 20
10.8536
 30
0
 10
6.84261
 20
11.8692
 30
0
 10
5.2021
 20
12.559
 30
0
 10
3.56236
 20
13.2505
 30
0
 10
1.78369
 20
13.6155
 30
0
 10
-2.70198e-09
 20
13.625
 30
0
 10
-1.78365
 20
13.6364
 30
0
 10
-3.5707
 20
13.2921
 30
0
 10
-5.22602
 20
12.6167
 30
0
 10
-6.88203
 20
11.9431
 30
0
 10
-8.40479
 20
10.9389
 30
0
 10
-9.67852
 20
9.67852
 30
0
 10
-10.9536
 20
8.41955
 30
0
 10
-11.9784
 20
6.90557
 30
0
 10
-12.6745
 20
5.24994
 30
0
 10
-13.3723
 20
3.59508
 30
0
 10
-13.7405
 20
1.80005
 30
0
 10
-13.75
 20
-1.66969e-10
 30
0
 10
-13.7614
 20
-1.80001
 30
0
 10
-13.4139
 20
-3.60342
 30
0
 10
-12.7322
 20
-5.27386
 30
0
 10
-12.0523
 20
-6.94498
 30
0
 10
-11.0388
 20
-8.48161
 30
0
 10
-9.76691
 20
-9.76691
 30
0
 10
-8.49638
 20
-11.0535
 30
0
 10
-6.96853
 20
-12.0877
 30
0
 10
-5.29777
 20
-12.79
 30
0
 10
-3.6278
 20
-13.494
 30
0
 10
-1.81642
 20
-13.8655
 30
0
 10
7.78794e-10
 20
-13.875
 30
0
 10
1.81637
 20
-13.8864
 30
0
 10
3.63614
 20
-13.5356
 30
0
 10
5.32169
 20
-12.8477
 30
0
 10
7.00794
 20
-12.1616
 30
0
 10
8.55843
 20
-11.1388
 30
0
 10
9.8553
 20
-9.8553
 30
0
 10
11.1535
 20
-8.5732
 30
0
 10
12.1969
 20
-7.03148
 30
0
 10
12.9054
 20
-5.34561
 30
0
 10
13.6158
 20
-3.66052
 30
0
 10
13.9906
 20
-1.83278
 30
0
 10
14
 20
1.28297e-12
 30
0
  0
SPLINE
  5
A22
330
A02
100
AcDbEntity
  8
Spiral
100
AcDbSpline
210
0
220
0
230
1
 70
8
 71
3
 72
53
 73
49
 74
0
 40
0
 40
0
 40
0
 40
0
 40
0.392705
 40
0.392705
 40
0.392705
 40
0.785409
 40
0.785409
 40
0.785409
 40
1.17811
 40
1.17811
 40
1.17811
 40
1.57082
 40
1.57082
 40
1.57082
 40
1.96352
 40
1.96352
 40
1.96352
 40
2.35623
 40
2.35623
 40
2.35623
 40
2.74893
 40
2.74893
 40
2.74893
 40
3.14164
 40
3.14164
 40
3.14164
 40
3.53434
 40
3.53434
 40
3.53434
 40
3.92705
 40
3.92705
 40
3.92705
 40
4.31975
 40
4.31975
 40
4.31975
 40
4.71246
 40
4.71246
 40
4.71246
 40
5.10516
 40
5.10516
 40
5.10516
 40
5.49786
 40
5.49786
 40
5.49786
 40
5.89057
 40
5.89057
 40
5.89057
 40
6.28327
 40
6.28327
 40
6.28327
 40
6.28327
 10
14
 20
1.29408e-12
 30
0
 10
14.0114
 20
1.83274
 30
0
 10
13.6574
 20
3.66886
 30
0
 10
12.9632
 20
5.36953
 30
0
 10
12.2708
 20
7.0709
 30
0
 10
11.2388
 20
8.63526
 30
0
 10
9.94369
 20
9.94369
 30
0
 10
8.65002
 20
11.2535
 30
0
 10
7.09444
 20
12.3061
 30
0
 10
5.39344
 20
13.0209
 30
0
 10
3.69324
 20
13.7375
 30
0
 10
1.84914
 20
14.1156
 30
0
 10
-2.73708e-09
 20
14.125
 30
0
 10
-1.8491
 20
14.1364
 30
0
 10
-3.70159
 20
13.7792
 30
0
 10
-5.41736
 20
13.0787
 30
0
 10
-7.13385
 20
12.38
 30
0
 10
-8.71208
 20
11.3387
 30
0
 10
-10.0321
 20
10.0321
 30
0
 10
-11.3534
 20
8.72685
 30
0
 10
-12.4154
 20
7.1574
 30
0
 10
-13.1364
 20
5.44128
 30
0
 10
-13.8593
 20
3.72596
 30
0
 10
-14.2406
 20
1.86551
 30
0
 10
-14.25
 20
-1.67112e-10
 30
0
 10
-14.2614
 20
-1.86546
 30
0
 10
-13.9009
 20
-3.73431
 30
0
 10
-13.1942
 20
-5.4652
 30
0
 10
-12.4893
 20
-7.19681
 30
0
 10
-11.4387
 20
-8.7889
 30
0
 10
-10.1205
 20
-10.1205
 30
0
 10
-8.80367
 20
-11.4534
 30
0
 10
-7.22035
 20
-12.5246
 30
0
 10
-5.48912
 20
-13.2519
 30
0
 10
-3.75868
 20
-13.981
 30
0
 10
-1.88187
 20
-14.3656
 30
0
 10
7.43976e-10
 20
-14.375
 30
0
 10
1.88183
 20
-14.3864
 30
0
 10
3.76703
 20
-14.0227
 30
0
 10
5.51303
 20
-13.3096
 30
0
 10
7.25977
 20
-12.5985
 30
0
 10
8.86573
 20
-11.5387
 30
0
 10
10.2089
 20
-10.2089
 30
0
 10
11.5534
 20
-8.88049
 30
0
 10
12.6338
 20
-7.28331
 30
0
 10
13.3674
 20
-5.53695
 30
0
 10
14.1028
 20
-3.7914
 30
0
 10
14.4906
 20
-1.89824
 30
0
 10
14.5
 20
1.46771e-12
 30
0
  0
SPLINE
  5
A23
330
A02
100
AcDbEntity
  8
Spiral
100
AcDbSpline
210
0
220
0
230
1
 70
8
 71
3
 72
53
 73
49
 74
0
 40
0
 40
0
 40
0
 40
0
 40
0.392705
 40
0.392705
 40
0.392705
 40
0.785409
 40
0.785409
 40
0.785409
 40
1.17811
 40
1.17811
 40
1.17811
 40
1.57082
 40
1.57082
 40
1.57082
 40
1.96352
 40
1.96352
 40
1.96352
 40
2.35623
 40
2.35623
 40
2.35623
 40
2.74893
 40
2.74893
 40
2.74893
 40
3.14164
 40
3.14164
 40
3.14164
 40
3.53434
 40
3.53434
 40
3.53434
 40
3.92705
 40
3.92705
 40
3.92705
 40
4.31975
 40
4.31975
 40
4.31975
 40
4.71246
 40
4.71246
 40
4.71246
 40
5.10516
 40
5.10516
 40
5.10516
 40
5.49786
 40
5.49786
 40
5.49786
 40
5.89057
 40
5.89057
 40
5.89057
 40
6.28327
 40
6.28327
 40
6.28327
 40
6.28327
 10
14.5
 20
1.44329e-12
 30
0
 10
14.5114
 20
1.89819
 30
0
 10
14.1444
 20
3.79975
 30
0
 10
13.4251
 20
5.56087
 30
0
 10
12.7077
 20
7.32272
 30
0
 10
11.6386
 20
8.94255
 30
0
 10
10.2972
 20
10.2972
 30
0
 10
8.95732
 20
11.6533
 30
0
 10
7.34627
 20
12.7431
 30
0
 10
5.58479
 20
13.4829
 30
0
 10
3.82412
 20
14.2245
 30
0
 10
1.9146
 20
14.6156
 30
0
 10
-2.77221e-09
 20
14.625
 30
0
 10
-1.91456
 20
14.6364
 30
0
 10
-3.83247
 20
14.2662
 30
0
 10
-5.6087
 20
13.5406
 30
0
 10
-7.38568
 20
12.8169
 30
0
 10
-9.01937
 20
11.7386
 30
0
 10
-10.3856
 20
10.3856
 30
0
 10
-11.7533
 20
9.03414
 30
0
 10
-12.8523
 20
7.40922
 30
0
 10
-13.5984
 20
5.63262
 30
0
 10
-14.3463
 20
3.85684
 30
0
 10
-14.7406
 20
1.93096
 30
0
 10
-14.75
 20
-1.6726e-10
 30
0
 10
-14.7614
 20
-1.93092
 30
0
 10
-14.3879
 20
-3.86519
 30
0
 10
-13.6561
 20
-5.65654
 30
0
 10
-12.9262
 20
-7.44864
 30
0
 10
-11.8386
 20
-9.0962
 30
0
 10
-10.474
 20
-10.474
 30
0
 10
-9.11097
 20
-11.8533
 30
0
 10
-7.47218
 20
-12.9615
 30
0
 10
-5.68046
 20
-13.7138
 30
0
 10
-3.88956
 20
-14.468
 30
0
 10
-1.94733
 20
-14.8656
 30
0
 10
7.09154e-10
 20
-14.875
 30
0
 10
1.94728
 20
-14.8865
 30
0
 10
3.89791
 20
-14.5097
 30
0
 10
5.70437
 20
-13.7716
 30
0
 10
7.5116
 20
-13.0354
 30
0
 10
9.17302
 20
-11.9385
 30
0
 10
10.5624
 20
-10.5624
 30
0
 10
11.9532
 20
-9.18779
 30
0
 10
13.0708
 20
-7.53514
 30
0
 10
13.8293
 20
-5.72829
 30
0
 10
14.5898
 20
-3.92228
 30
0
 10
14.9906
 20
-1.96369
 30
0
 10
15
 20
1.61737e-12
 30
0
  0
SPLINE
  5
A24
330
A02
100
AcDbEntity
  8
Spiral
100
AcDbSpline
210
0
220
0
230
1
 70
8
 71
3
 72
53
 73
49
 74
0
 40
0
 40
0
 40
0
 40
0
 40
0.392705
 40
0.392705
 40
0.392705
 40
0.785409
 40
0.785409
 40
0.785409
 40
1.17811
 40
1.17811
 40
1.17811
 40
1.57082
 40
1.57082
 40
1.57082
 40
1.96352
 40
1.96352
 40
1.96352
 40
2.35623
 40
2.35623
 40
2.35623
 40
2.74893
 40
2.74893
 40
2.74893
 40
3.14164
 40
3.14164
 40
3.14164
 40
3.53434
 40
3.53434
 40
3.53434
 40
3.92705
 40
3.92705
 40
3.92705
 40
4.31975
 40
4.31975
 40
4.31975
 40
4.71246
 40
4.71246
 40
4.71246
 40
5.10516
 40
5.10516
 40
5.10516
 40
5.49786
 40
5.49786
 40
5.49786
 40
5.89057
 40
5.89057
 40
5.89057
 40
6.28327
 40
6.28327
 40
6.28327
 40
6.28327
 10
15
 20
1.61382e-12
 30
0
 10
15.0115
 20
1.96365
 30
0
 10
14.6314
 20
3.93063
 30
0
 10
13.8871
 20
5.75221
 30
0
 10
13.1446
 20
7.57455
 30
0
 10
12.0385
 20
9.24984
 30
0
 10
10.6508
 20
10.6508
 30
0
 10
9.26461
 20
12.0532
 30
0
 10
7.5981
 20
13.18
 30
0
 10
5.77613
 20
13.9448
 30
0
 10
3.95501
 20
14.7116
 30
0
 10
1.98006
 20
15.1156
 30
0
 10
-2.80734e-09
 20
15.125
 30
0
 10
-1.98001
 20
15.1365
 30
0
 10
-3.96335
 20
14.7532
 30
0
 10
-5.80005
 20
14.0025
 30
0
 10
-7.63751
 20
13.2539
 30
0
 10
-9.32667
 20
12.1385
 30
0
 10
-10.7392
 20
10.7392
 30
0
 10
-12.1532
 20
9.34144
 30
0
 10
-13.2892
 20
7.66105
 30
0
 10
-14.0603
 20
5.82396
 30
0
 10
-14.8333
 20
3.98773
 30
0
 10
-15.2406
 20
1.99642
 30
0
 10
-15.25
 20
-1.67416e-10
 30
0
 10
-15.2615
 20
-1.99638
 30
0
 10
-14.875
 20
-3.99607
 30
0
 10
-14.118
 20
-5.84788
 30
0
 10
-13.3631
 20
-7.70047
 30
0
 10
-12.2384
 20
-9.40349
 30
0
 10
-10.8276
 20
-10.8276
 30
0
 10
-9.41826
 20
-12.2531
 30
0
 10
-7.72401
 20
-13.3984
 30
0
 10
-5.8718
 20
-14.1758
 30
0
 10
-4.02045
 20
-14.9551
 30
0
 10
-2.01278
 20
-15.3656
 30
0
 10
6.74335e-10
 20
-15.375
 30
0
 10
2.01274
 20
-15.3865
 30
0
 10
4.02879
 20
-14.9967
 30
0
 10
5.89572
 20
-14.2335
 30
0
 10
7.76342
 20
-13.4723
 30
0
 10
9.48031
 20
-12.3384
 30
0
 10
10.916
 20
-10.916
 30
0
 10
12.3531
 20
-9.49508
 30
0
 10
13.5077
 20
-7.78697
 30
0
 10
14.2913
 20
-5.91963
 30
0
 10
15.0768
 20
-4.05317
 30
0
 10
15.4907
 20
-2.02915
 30
0
 10
15.5
 20
1.74527e-12
 30
0
  0
SPLINE
  5
A25
330
A02
100
AcDbEntity
  8
Spiral
100
AcDbSpline
210
0
220
0
230
1
 70
8
 71
3
 72
53
 73
49
 74
0
 40
0
 40
0
 40
0
 40
0
 40
0.392705
 40
0.392705
 40
0.392705
 40
0.785409
 40
0.785409
 40
0.785409
 40
1.17811
 40
1.17811
 40
1.17811
 40
1.57082
 40
1.57082
 40
1.57082
 40
1.96352
 40
1.96352
 40
1.96352
 40
2.35623
 40
2.35623
 40
2.35623
 40
2.74893
 40
2.74893
 40
2.74893
 40
3.14164
 40
3.14164
 40
3.14164
 40
3.53434
 40
3.53434
 40
3.53434
 40
3.92705
 40
3.92705
 40
3.92705
 40
4.31975
 40
4.31975
 40
4.31975
 40
4.71246
 40
4.71246
 40
4.71246
 40
5.10516
 40
5.10516
 40
5.10516
 40
5.49786
 40
5.49786
 40
5.49786
 40
5.89057
 40
5.89057
 40
5.89057
 40
6.28327
 40
6.28327
 40
6.28327
 40
6.28327
 10
15.5
 20
1.77103e-12
 30
0
 10
15.5115
 20
2.0291
 30
0
 10
15.1185
 20
4.06151
 30
0
 10
14.349
 20
5.94355
 30
0
 10
13.5816
 20
7.82638
 30
0
 10
12.4384
 20
9.55714
 30
0
 10
11.0043
 20
11.0043
 30
0
 10
9.57191
 20
12.4531
 30
0
 10
7.84992
 20
13.6169
 30
0
 10
5.96747
 20
14.4067
 30
0
 10
4.08589
 20
15.1986
 30
0
 10
2.04551
 20
15.6157
 30
0
 10
-2.84246e-09
 20
15.625
 30
0
 10
-2.04547
 20
15.6365
 30
0
 10
-4.09423
 20
15.2402
 30
0
 10
-5.99139
 20
14.4645
 30
0
 10
-7.88934
 20
13.6908
 30
0
 10
-9.63396
 20
12.5383
 30
0
 10
-11.0927
 20
11.0927
 30
0
 10
-12.553
 20
9.64873
 30
0
 10
-13.7261
 20
7.91288
 30
0
 10
-14.5222
 20
6.01531
 30
0
 10
-15.3203
 20
4.11861
 30
0
 10
-15.7407
 20
2.06188
 30
0
 10
-15.75
 20
-1.6758e-10
 30
0
 10
-15.7615
 20
-2.06183
 30
0
 10
-15.362
 20
-4.12695
 30
0
 10
-14.58
 20
-6.03922
 30
0
 10
-13.8
 20
-7.9523
 30
0
 10
-12.6383
 20
-9.71078
 30
0
 10
-11.1811
 20
-11.1811
 30
0
 10
-9.72555
 20
-12.653
 30
0
 10
-7.97584
 20
-13.8354
 30
0
 10
-6.06314
 20
-14.6377
 30
0
 10
-4.15133
 20
-15.4421
 30
0
 10
-2.07824
 20
-15.8657
 30
0
 10
6.39545e-10
 20
-15.875
 30
0
 10
2.0782
 20
-15.8865
 30
0
 10
4.15967
 20
-15.4837
 30
0
 10
6.08706
 20
-14.6955
 30
0
 10
8.01525
 20
-13.9093
 30
0
 10
9.78761
 20
-12.7383
 30
0
 10
11.2695
 20
-11.2695
 30
0
 10
12.753
 20
-9.80238
 30
0
 10
13.9446
 20
-8.0388
 30
0
 10
14.7532
 20
-6.11098
 30
0
 10
15.5638
 20
-4.18405
 30
0
 10
15.9907
 20
-2.0946
 30
0
 10
16
 20
1.92379e-12
 30
0
  0
ENDSEC
  0
SECTION
  2
OBJECTS
  0
DICTIONARY
  5
F000
330
0
100
AcDbDictionary
  3
ACAD_GROUP
350
F001
  0
DICTIONARY
  5
F001
330
F000
100
AcDbDictionary
  0
ENDSEC
  0
EOF