%TF.GenerationSoftware,KiCad,Pcbnew,8.0.0*%
%TF.CreationDate,2024-03-27T12:23:41-02:30*%
%TF.ProjectId,wireless-power,77697265-6c65-4737-932d-706f7765722e,rev?*%
%TF.SameCoordinates,Original*%
%TF.FileFunction,Copper,L2,Bot*%
%TF.FilePolarity,Positive*%
%FSLAX46Y46*%
G04 Gerber Fmt 4.6, Leading zero omitted, Abs format (unit mm)*
G04 Created by KiCad (PCBNEW 8.0.0) date 2024-03-27 12:23:41*
%MOMM*%
%LPD*%
G01*
G04 APERTURE LIST*
%TA.AperFunction,Conductor*%
%ADD10C,0.200000*%
%TD*%
%TA.AperFunction,ComponentPad*%
%ADD11R,1.000000X1.000000*%
%TD*%
%TA.AperFunction,ViaPad*%
%ADD12C,0.600000*%
%TD*%
%TA.AperFunction,Conductor*%
%ADD13C,0.230000*%
%TD*%
G04 APERTURE END LIST*
%TO.N,GND*%
D10*
X130850000Y-80100000D02*
X139300000Y-80100000D01*
X139300000Y-83950000D01*
X130850000Y-83950000D01*
X130850000Y-80100000D01*
%TA.AperFunction,Conductor*%
G36*
X130850000Y-80100000D02*
G01*
X139300000Y-80100000D01*
X139300000Y-83950000D01*
X130850000Y-83950000D01*
X130850000Y-80100000D01*
G37*
%TD.AperFunction*%
X113750000Y-63000000D02*
X144150000Y-63000000D01*
X144150000Y-75200000D01*
X113750000Y-75200000D01*
X113750000Y-63000000D01*
%TA.AperFunction,Conductor*%
G36*
X113750000Y-63000000D02*
G01*
X144150000Y-63000000D01*
X144150000Y-75200000D01*
X113750000Y-75200000D01*
X113750000Y-63000000D01*
G37*
%TD.AperFunction*%
X113700000Y-80000000D02*
X125950000Y-80000000D01*
X125950000Y-83550000D01*
X113700000Y-83550000D01*
X113700000Y-80000000D01*
%TA.AperFunction,Conductor*%
G36*
X113700000Y-80000000D02*
G01*
X125950000Y-80000000D01*
X125950000Y-83550000D01*
X113700000Y-83550000D01*
X113700000Y-80000000D01*
G37*
%TD.AperFunction*%
X125300000Y-81950000D02*
X136300000Y-81950000D01*
X136300000Y-89000000D01*
X125300000Y-89000000D01*
X125300000Y-81950000D01*
%TA.AperFunction,Conductor*%
G36*
X125300000Y-81950000D02*
G01*
X136300000Y-81950000D01*
X136300000Y-89000000D01*
X125300000Y-89000000D01*
X125300000Y-81950000D01*
G37*
%TD.AperFunction*%
X136300000Y-85475000D02*
X142000000Y-85475000D01*
X142000000Y-89000000D01*
X136300000Y-89000000D01*
X136300000Y-85475000D01*
%TA.AperFunction,Conductor*%
G36*
X136300000Y-85475000D02*
G01*
X142000000Y-85475000D01*
X142000000Y-89000000D01*
X136300000Y-89000000D01*
X136300000Y-85475000D01*
G37*
%TD.AperFunction*%
X113700000Y-74350000D02*
X128500000Y-74350000D01*
X128500000Y-80650000D01*
X113700000Y-80650000D01*
X113700000Y-74350000D01*
%TA.AperFunction,Conductor*%
G36*
X113700000Y-74350000D02*
G01*
X128500000Y-74350000D01*
X128500000Y-80650000D01*
X113700000Y-80650000D01*
X113700000Y-74350000D01*
G37*
%TD.AperFunction*%
X128450000Y-76300000D02*
X139300000Y-76300000D01*
X139300000Y-80650000D01*
X128450000Y-80650000D01*
X128450000Y-76300000D01*
%TA.AperFunction,Conductor*%
G36*
X128450000Y-76300000D02*
G01*
X139300000Y-76300000D01*
X139300000Y-80650000D01*
X128450000Y-80650000D01*
X128450000Y-76300000D01*
G37*
%TD.AperFunction*%
%TD*%
D11*
%TO.P,TP3,1,1*%
%TO.N,/+5V*%
X139800000Y-60100000D03*
%TD*%
%TO.P,TP4,1,1*%
%TO.N,GND*%
X114700000Y-60300000D03*
%TD*%
%TO.P,TP2,1,1*%
%TO.N,/+5V*%
X147500000Y-88930000D03*
%TD*%
%TO.P,TP1,1,1*%
%TO.N,/+5V*%
X147500000Y-84900000D03*
%TD*%
D12*
%TO.N,GND*%
X130200000Y-81100000D03*
X119650000Y-84570000D03*
X137100000Y-84500000D03*
X129000000Y-75600000D03*
X126600000Y-81100000D03*
X116506342Y-62506342D03*
X138300000Y-89800000D03*
%TO.N,/+5V*%
X166250000Y-77100000D03*
X146500000Y-86750000D03*
%TD*%
D10*
%TO.N,GND*%
X119650000Y-78400000D02*
X128950000Y-69100000D01*
X119650000Y-84570000D02*
X119650000Y-78400000D01*
X126600000Y-77500000D02*
X121100000Y-77500000D01*
X126600000Y-81100000D02*
X124700000Y-81100000D01*
X137100000Y-84500000D02*
X135075000Y-82475000D01*
X129000000Y-69150000D02*
X122356342Y-62506342D01*
X122356342Y-62506342D02*
X116506342Y-62506342D01*
X129000000Y-75600000D02*
X129000000Y-69150000D01*
X124700000Y-81100000D02*
X121100000Y-77500000D01*
X135075000Y-82475000D02*
X135075000Y-82025000D01*
X138300000Y-88087500D02*
X139150000Y-87237500D01*
X130200000Y-81100000D02*
X126600000Y-77500000D01*
X138300000Y-89800000D02*
X138300000Y-88087500D01*
D13*
%TO.N,/+5V*%
X156600000Y-86750000D02*
X146500000Y-86750000D01*
X166250000Y-77100000D02*
X156600000Y-86750000D01*
%TD*%
M02*
