%TF.GenerationSoftware,KiCad,Pcbnew,8.0.0*%
%TF.CreationDate,2024-03-27T12:23:41-02:30*%
%TF.ProjectId,wireless-power,77697265-6c65-4737-932d-706f7765722e,rev?*%
%TF.SameCoordinates,Original*%
%TF.FileFunction,Paste,Top*%
%TF.FilePolarity,Positive*%
%FSLAX46Y46*%
G04 Gerber Fmt 4.6, Leading zero omitted, Abs format (unit mm)*
G04 Created by KiCad (PCBNEW 8.0.0) date 2024-03-27 12:23:41*
%MOMM*%
%LPD*%
G01*
G04 APERTURE LIST*
%ADD10C,0.000000*%
%ADD11R,0.965200X0.381000*%
%ADD12R,0.381000X0.965200*%
%ADD13R,2.159000X2.159000*%
%ADD14R,0.329999X0.433200*%
%ADD15R,0.812800X0.762000*%
%ADD16R,0.762000X0.812800*%
%ADD17R,0.304800X0.558800*%
%ADD18R,0.609600X0.508000*%
%ADD19R,0.508000X0.660400*%
%ADD20R,1.100000X1.380000*%
%ADD21R,3.800000X2.000000*%
%ADD22R,1.981200X0.558800*%
%ADD23R,1.397000X2.895600*%
%ADD24R,0.755599X0.799998*%
%ADD25R,3.860800X5.511800*%
%ADD26R,0.482600X1.638300*%
G04 APERTURE END LIST*
D10*
%TO.C,U3*%
G36*
X136131300Y-90741500D02*
G01*
X136817100Y-91401900D01*
X136817100Y-94170500D01*
X134962900Y-94170500D01*
X134962900Y-91401900D01*
X135648700Y-90741500D01*
X135648700Y-90398600D01*
X136131300Y-90398600D01*
X136131300Y-90741500D01*
G37*
%TD*%
D11*
%TO.C,U1*%
X129921000Y-75996800D03*
X129921000Y-76631800D03*
X129921000Y-77292200D03*
X129921000Y-77927200D03*
D12*
X130860800Y-78867000D03*
X131495800Y-78867000D03*
X132156200Y-78867000D03*
X132791200Y-78867000D03*
D11*
X133731000Y-77927200D03*
X133731000Y-77292200D03*
X133731000Y-76631800D03*
X133731000Y-75996800D03*
D12*
X132791200Y-75057000D03*
X132156200Y-75057000D03*
X131495800Y-75057000D03*
X130860800Y-75057000D03*
D13*
X131826000Y-76962000D03*
%TD*%
D14*
%TO.C,C4*%
X135150000Y-84153200D03*
X135150000Y-83550000D03*
%TD*%
D15*
%TO.C,R3*%
X126238000Y-84328000D03*
X126238000Y-85877400D03*
%TD*%
D16*
%TO.C,R1*%
X132054600Y-73152000D03*
X133604000Y-73152000D03*
%TD*%
D17*
%TO.C,C6*%
X145110200Y-85979000D03*
X145110200Y-86741000D03*
%TD*%
D18*
%TO.C,C5*%
X135407400Y-85344000D03*
X136499600Y-85344000D03*
%TD*%
D19*
%TO.C,R4*%
X129540000Y-84480400D03*
X129540000Y-85598000D03*
%TD*%
D20*
%TO.C,C1*%
X132943000Y-81280000D03*
X131217000Y-81280000D03*
%TD*%
D21*
%TO.C,J2*%
X116078000Y-64262000D03*
%TD*%
D22*
%TO.C,U2*%
X118262400Y-84582000D03*
X118262400Y-85852000D03*
X118262400Y-87122000D03*
X118262400Y-88392000D03*
X123190000Y-88392000D03*
X123190000Y-87122000D03*
X123190000Y-85852000D03*
X123190000Y-84582000D03*
%TD*%
D23*
%TO.C,C2*%
X123164600Y-78994000D03*
X126771400Y-78994000D03*
%TD*%
D21*
%TO.C,J1*%
X116078000Y-74676000D03*
%TD*%
D23*
%TO.C,C3*%
X139725400Y-76454000D03*
X136118600Y-76454000D03*
%TD*%
D24*
%TO.C,R2*%
X125698402Y-91186000D03*
X127254000Y-91186000D03*
%TD*%
D25*
%TO.C,L1*%
X126187200Y-65024000D03*
X136144000Y-65024000D03*
%TD*%
D26*
%TO.C,U3*%
X137390000Y-90189050D03*
X135890000Y-90189050D03*
X134390000Y-90189050D03*
%TD*%
M02*
