%TF.GenerationSoftware,KiCad,Pcbnew,8.0.0*%
%TF.CreationDate,2024-03-27T12:23:41-02:30*%
%TF.ProjectId,wireless-power,77697265-6c65-4737-932d-706f7765722e,rev?*%
%TF.SameCoordinates,Original*%
%TF.FileFunction,Soldermask,Top*%
%TF.FilePolarity,Negative*%
%FSLAX46Y46*%
G04 Gerber Fmt 4.6, Leading zero omitted, Abs format (unit mm)*
G04 Created by KiCad (PCBNEW 8.0.0) date 2024-03-27 12:23:41*
%MOMM*%
%LPD*%
G01*
G04 APERTURE LIST*
G04 Aperture macros list*
%AMRoundRect*
0 Rectangle with rounded corners*
0 $1 Rounding radius*
0 $2 $3 $4 $5 $6 $7 $8 $9 X,Y pos of 4 corners*
0 Add a 4 corners polygon primitive as box body*
4,1,4,$2,$3,$4,$5,$6,$7,$8,$9,$2,$3,0*
0 Add four circle primitives for the rounded corners*
1,1,$1+$1,$2,$3*
1,1,$1+$1,$4,$5*
1,1,$1+$1,$6,$7*
1,1,$1+$1,$8,$9*
0 Add four rect primitives between the rounded corners*
20,1,$1+$1,$2,$3,$4,$5,0*
20,1,$1+$1,$4,$5,$6,$7,0*
20,1,$1+$1,$6,$7,$8,$9,0*
20,1,$1+$1,$8,$9,$2,$3,0*%
G04 Aperture macros list end*
%ADD10C,0.000000*%
%ADD11RoundRect,0.102000X-0.482600X0.190500X-0.482600X-0.190500X0.482600X-0.190500X0.482600X0.190500X0*%
%ADD12RoundRect,0.102000X0.190500X0.482600X-0.190500X0.482600X-0.190500X-0.482600X0.190500X-0.482600X0*%
%ADD13RoundRect,0.102000X-1.079500X-1.079500X1.079500X-1.079500X1.079500X1.079500X-1.079500X1.079500X0*%
%ADD14R,0.329999X0.433200*%
%ADD15R,0.812800X0.762000*%
%ADD16R,0.762000X0.812800*%
%ADD17R,0.304800X0.558800*%
%ADD18R,0.609600X0.508000*%
%ADD19R,1.000000X1.000000*%
%ADD20R,0.508000X0.660400*%
%ADD21RoundRect,0.102000X0.550000X0.690000X-0.550000X0.690000X-0.550000X-0.690000X0.550000X-0.690000X0*%
%ADD22R,3.800000X2.000000*%
%ADD23R,1.981200X0.558800*%
%ADD24R,1.397000X2.895600*%
%ADD25R,0.755599X0.799998*%
%ADD26R,3.860800X5.511800*%
%ADD27R,0.482600X1.638300*%
G04 APERTURE END LIST*
D10*
%TO.C,U3*%
G36*
X136131300Y-90741500D02*
G01*
X136817100Y-91401900D01*
X136817100Y-94170500D01*
X134962900Y-94170500D01*
X134962900Y-91401900D01*
X135648700Y-90741500D01*
X135648700Y-90398600D01*
X136131300Y-90398600D01*
X136131300Y-90741500D01*
G37*
%TD*%
D11*
%TO.C,U1*%
X129921000Y-75996800D03*
X129921000Y-76631800D03*
X129921000Y-77292200D03*
X129921000Y-77927200D03*
D12*
X130860800Y-78867000D03*
X131495800Y-78867000D03*
X132156200Y-78867000D03*
X132791200Y-78867000D03*
D11*
X133731000Y-77927200D03*
X133731000Y-77292200D03*
X133731000Y-76631800D03*
X133731000Y-75996800D03*
D12*
X132791200Y-75057000D03*
X132156200Y-75057000D03*
X131495800Y-75057000D03*
X130860800Y-75057000D03*
D13*
X131826000Y-76962000D03*
%TD*%
D14*
%TO.C,C4*%
X135150000Y-84153200D03*
X135150000Y-83550000D03*
%TD*%
D15*
%TO.C,R3*%
X126238000Y-84328000D03*
X126238000Y-85877400D03*
%TD*%
D16*
%TO.C,R1*%
X132054600Y-73152000D03*
X133604000Y-73152000D03*
%TD*%
D17*
%TO.C,C6*%
X145110200Y-85979000D03*
X145110200Y-86741000D03*
%TD*%
D18*
%TO.C,C5*%
X135407400Y-85344000D03*
X136499600Y-85344000D03*
%TD*%
D19*
%TO.C,TP3*%
X139800000Y-60100000D03*
%TD*%
D20*
%TO.C,R4*%
X129540000Y-84480400D03*
X129540000Y-85598000D03*
%TD*%
D21*
%TO.C,C1*%
X132943000Y-81280000D03*
X131217000Y-81280000D03*
%TD*%
D22*
%TO.C,J2*%
X116078000Y-64262000D03*
%TD*%
D23*
%TO.C,U2*%
X118262400Y-84582000D03*
X118262400Y-85852000D03*
X118262400Y-87122000D03*
X118262400Y-88392000D03*
X123190000Y-88392000D03*
X123190000Y-87122000D03*
X123190000Y-85852000D03*
X123190000Y-84582000D03*
%TD*%
D19*
%TO.C,TP4*%
X114700000Y-60300000D03*
%TD*%
%TO.C,TP2*%
X147500000Y-88930000D03*
%TD*%
D24*
%TO.C,C2*%
X123164600Y-78994000D03*
X126771400Y-78994000D03*
%TD*%
D22*
%TO.C,J1*%
X116078000Y-74676000D03*
%TD*%
D24*
%TO.C,C3*%
X139725400Y-76454000D03*
X136118600Y-76454000D03*
%TD*%
D19*
%TO.C,TP1*%
X147500000Y-84900000D03*
%TD*%
D25*
%TO.C,R2*%
X125698402Y-91186000D03*
X127254000Y-91186000D03*
%TD*%
D26*
%TO.C,L1*%
X126187200Y-65024000D03*
X136144000Y-65024000D03*
%TD*%
D27*
%TO.C,U3*%
X137390000Y-90189050D03*
X135890000Y-90189050D03*
X134390000Y-90189050D03*
%TD*%
M02*
