%TF.GenerationSoftware,KiCad,Pcbnew,8.0.0*%
%TF.CreationDate,2024-03-27T14:53:21-02:30*%
%TF.ProjectId,wireless-power,77697265-6c65-4737-932d-706f7765722e,rev?*%
%TF.SameCoordinates,Original*%
%TF.FileFunction,Legend,Top*%
%TF.FilePolarity,Positive*%
%FSLAX46Y46*%
G04 Gerber Fmt 4.6, Leading zero omitted, Abs format (unit mm)*
G04 Created by KiCad (PCBNEW 8.0.0) date 2024-03-27 14:53:21*
%MOMM*%
%LPD*%
G01*
G04 APERTURE LIST*
%ADD10C,0.150000*%
%ADD11C,0.125000*%
%ADD12C,0.098425*%
%ADD13C,0.000000*%
%ADD14C,0.152400*%
%ADD15C,0.120000*%
G04 APERTURE END LIST*
D10*
X135509580Y-84018266D02*
X135557200Y-84065885D01*
X135557200Y-84065885D02*
X135604819Y-84208742D01*
X135604819Y-84208742D02*
X135604819Y-84303980D01*
X135604819Y-84303980D02*
X135557200Y-84446837D01*
X135557200Y-84446837D02*
X135461961Y-84542075D01*
X135461961Y-84542075D02*
X135366723Y-84589694D01*
X135366723Y-84589694D02*
X135176247Y-84637313D01*
X135176247Y-84637313D02*
X135033390Y-84637313D01*
X135033390Y-84637313D02*
X134842914Y-84589694D01*
X134842914Y-84589694D02*
X134747676Y-84542075D01*
X134747676Y-84542075D02*
X134652438Y-84446837D01*
X134652438Y-84446837D02*
X134604819Y-84303980D01*
X134604819Y-84303980D02*
X134604819Y-84208742D01*
X134604819Y-84208742D02*
X134652438Y-84065885D01*
X134652438Y-84065885D02*
X134700057Y-84018266D01*
X134938152Y-83161123D02*
X135604819Y-83161123D01*
X134557200Y-83399218D02*
X135271485Y-83637313D01*
X135271485Y-83637313D02*
X135271485Y-83018266D01*
X132330152Y-69936566D02*
X132330152Y-71267015D01*
X132330152Y-71267015D02*
X132408414Y-71423539D01*
X132408414Y-71423539D02*
X132486676Y-71501801D01*
X132486676Y-71501801D02*
X132643199Y-71580062D01*
X132643199Y-71580062D02*
X132956246Y-71580062D01*
X132956246Y-71580062D02*
X133112769Y-71501801D01*
X133112769Y-71501801D02*
X133191031Y-71423539D01*
X133191031Y-71423539D02*
X133269293Y-71267015D01*
X133269293Y-71267015D02*
X133269293Y-69936566D01*
X134912789Y-71580062D02*
X133973648Y-71580062D01*
X134443219Y-71580062D02*
X134443219Y-69936566D01*
X134443219Y-69936566D02*
X134286695Y-70171351D01*
X134286695Y-70171351D02*
X134130172Y-70327875D01*
X134130172Y-70327875D02*
X133973648Y-70406137D01*
X125783180Y-84936033D02*
X126259371Y-84602700D01*
X125783180Y-84364605D02*
X126783180Y-84364605D01*
X126783180Y-84364605D02*
X126783180Y-84745557D01*
X126783180Y-84745557D02*
X126735561Y-84840795D01*
X126735561Y-84840795D02*
X126687942Y-84888414D01*
X126687942Y-84888414D02*
X126592704Y-84936033D01*
X126592704Y-84936033D02*
X126449847Y-84936033D01*
X126449847Y-84936033D02*
X126354609Y-84888414D01*
X126354609Y-84888414D02*
X126306990Y-84840795D01*
X126306990Y-84840795D02*
X126259371Y-84745557D01*
X126259371Y-84745557D02*
X126259371Y-84364605D01*
X126783180Y-85269367D02*
X126783180Y-85888414D01*
X126783180Y-85888414D02*
X126402228Y-85555081D01*
X126402228Y-85555081D02*
X126402228Y-85697938D01*
X126402228Y-85697938D02*
X126354609Y-85793176D01*
X126354609Y-85793176D02*
X126306990Y-85840795D01*
X126306990Y-85840795D02*
X126211752Y-85888414D01*
X126211752Y-85888414D02*
X125973657Y-85888414D01*
X125973657Y-85888414D02*
X125878419Y-85840795D01*
X125878419Y-85840795D02*
X125830800Y-85793176D01*
X125830800Y-85793176D02*
X125783180Y-85697938D01*
X125783180Y-85697938D02*
X125783180Y-85412224D01*
X125783180Y-85412224D02*
X125830800Y-85316986D01*
X125830800Y-85316986D02*
X125878419Y-85269367D01*
X132662633Y-73606819D02*
X132329300Y-73130628D01*
X132091205Y-73606819D02*
X132091205Y-72606819D01*
X132091205Y-72606819D02*
X132472157Y-72606819D01*
X132472157Y-72606819D02*
X132567395Y-72654438D01*
X132567395Y-72654438D02*
X132615014Y-72702057D01*
X132615014Y-72702057D02*
X132662633Y-72797295D01*
X132662633Y-72797295D02*
X132662633Y-72940152D01*
X132662633Y-72940152D02*
X132615014Y-73035390D01*
X132615014Y-73035390D02*
X132567395Y-73083009D01*
X132567395Y-73083009D02*
X132472157Y-73130628D01*
X132472157Y-73130628D02*
X132091205Y-73130628D01*
X133615014Y-73606819D02*
X133043586Y-73606819D01*
X133329300Y-73606819D02*
X133329300Y-72606819D01*
X133329300Y-72606819D02*
X133234062Y-72749676D01*
X133234062Y-72749676D02*
X133138824Y-72844914D01*
X133138824Y-72844914D02*
X133043586Y-72892533D01*
X144750619Y-86193333D02*
X144703000Y-86145714D01*
X144703000Y-86145714D02*
X144655380Y-86002857D01*
X144655380Y-86002857D02*
X144655380Y-85907619D01*
X144655380Y-85907619D02*
X144703000Y-85764762D01*
X144703000Y-85764762D02*
X144798238Y-85669524D01*
X144798238Y-85669524D02*
X144893476Y-85621905D01*
X144893476Y-85621905D02*
X145083952Y-85574286D01*
X145083952Y-85574286D02*
X145226809Y-85574286D01*
X145226809Y-85574286D02*
X145417285Y-85621905D01*
X145417285Y-85621905D02*
X145512523Y-85669524D01*
X145512523Y-85669524D02*
X145607761Y-85764762D01*
X145607761Y-85764762D02*
X145655380Y-85907619D01*
X145655380Y-85907619D02*
X145655380Y-86002857D01*
X145655380Y-86002857D02*
X145607761Y-86145714D01*
X145607761Y-86145714D02*
X145560142Y-86193333D01*
X145655380Y-87050476D02*
X145655380Y-86860000D01*
X145655380Y-86860000D02*
X145607761Y-86764762D01*
X145607761Y-86764762D02*
X145560142Y-86717143D01*
X145560142Y-86717143D02*
X145417285Y-86621905D01*
X145417285Y-86621905D02*
X145226809Y-86574286D01*
X145226809Y-86574286D02*
X144845857Y-86574286D01*
X144845857Y-86574286D02*
X144750619Y-86621905D01*
X144750619Y-86621905D02*
X144703000Y-86669524D01*
X144703000Y-86669524D02*
X144655380Y-86764762D01*
X144655380Y-86764762D02*
X144655380Y-86955238D01*
X144655380Y-86955238D02*
X144703000Y-87050476D01*
X144703000Y-87050476D02*
X144750619Y-87098095D01*
X144750619Y-87098095D02*
X144845857Y-87145714D01*
X144845857Y-87145714D02*
X145083952Y-87145714D01*
X145083952Y-87145714D02*
X145179190Y-87098095D01*
X145179190Y-87098095D02*
X145226809Y-87050476D01*
X145226809Y-87050476D02*
X145274428Y-86955238D01*
X145274428Y-86955238D02*
X145274428Y-86764762D01*
X145274428Y-86764762D02*
X145226809Y-86669524D01*
X145226809Y-86669524D02*
X145179190Y-86621905D01*
X145179190Y-86621905D02*
X145083952Y-86574286D01*
X135786833Y-85703580D02*
X135739214Y-85751200D01*
X135739214Y-85751200D02*
X135596357Y-85798819D01*
X135596357Y-85798819D02*
X135501119Y-85798819D01*
X135501119Y-85798819D02*
X135358262Y-85751200D01*
X135358262Y-85751200D02*
X135263024Y-85655961D01*
X135263024Y-85655961D02*
X135215405Y-85560723D01*
X135215405Y-85560723D02*
X135167786Y-85370247D01*
X135167786Y-85370247D02*
X135167786Y-85227390D01*
X135167786Y-85227390D02*
X135215405Y-85036914D01*
X135215405Y-85036914D02*
X135263024Y-84941676D01*
X135263024Y-84941676D02*
X135358262Y-84846438D01*
X135358262Y-84846438D02*
X135501119Y-84798819D01*
X135501119Y-84798819D02*
X135596357Y-84798819D01*
X135596357Y-84798819D02*
X135739214Y-84846438D01*
X135739214Y-84846438D02*
X135786833Y-84894057D01*
X136691595Y-84798819D02*
X136215405Y-84798819D01*
X136215405Y-84798819D02*
X136167786Y-85275009D01*
X136167786Y-85275009D02*
X136215405Y-85227390D01*
X136215405Y-85227390D02*
X136310643Y-85179771D01*
X136310643Y-85179771D02*
X136548738Y-85179771D01*
X136548738Y-85179771D02*
X136643976Y-85227390D01*
X136643976Y-85227390D02*
X136691595Y-85275009D01*
X136691595Y-85275009D02*
X136739214Y-85370247D01*
X136739214Y-85370247D02*
X136739214Y-85608342D01*
X136739214Y-85608342D02*
X136691595Y-85703580D01*
X136691595Y-85703580D02*
X136643976Y-85751200D01*
X136643976Y-85751200D02*
X136548738Y-85798819D01*
X136548738Y-85798819D02*
X136310643Y-85798819D01*
X136310643Y-85798819D02*
X136215405Y-85751200D01*
X136215405Y-85751200D02*
X136167786Y-85703580D01*
D11*
X139169048Y-58376809D02*
X139454762Y-58376809D01*
X139311905Y-58876809D02*
X139311905Y-58376809D01*
X139621428Y-58876809D02*
X139621428Y-58376809D01*
X139621428Y-58376809D02*
X139811904Y-58376809D01*
X139811904Y-58376809D02*
X139859523Y-58400619D01*
X139859523Y-58400619D02*
X139883333Y-58424428D01*
X139883333Y-58424428D02*
X139907142Y-58472047D01*
X139907142Y-58472047D02*
X139907142Y-58543476D01*
X139907142Y-58543476D02*
X139883333Y-58591095D01*
X139883333Y-58591095D02*
X139859523Y-58614904D01*
X139859523Y-58614904D02*
X139811904Y-58638714D01*
X139811904Y-58638714D02*
X139621428Y-58638714D01*
X140073809Y-58376809D02*
X140383333Y-58376809D01*
X140383333Y-58376809D02*
X140216666Y-58567285D01*
X140216666Y-58567285D02*
X140288095Y-58567285D01*
X140288095Y-58567285D02*
X140335714Y-58591095D01*
X140335714Y-58591095D02*
X140359523Y-58614904D01*
X140359523Y-58614904D02*
X140383333Y-58662523D01*
X140383333Y-58662523D02*
X140383333Y-58781571D01*
X140383333Y-58781571D02*
X140359523Y-58829190D01*
X140359523Y-58829190D02*
X140335714Y-58853000D01*
X140335714Y-58853000D02*
X140288095Y-58876809D01*
X140288095Y-58876809D02*
X140145238Y-58876809D01*
X140145238Y-58876809D02*
X140097619Y-58853000D01*
X140097619Y-58853000D02*
X140073809Y-58829190D01*
D10*
X129085180Y-84872533D02*
X129561371Y-84539200D01*
X129085180Y-84301105D02*
X130085180Y-84301105D01*
X130085180Y-84301105D02*
X130085180Y-84682057D01*
X130085180Y-84682057D02*
X130037561Y-84777295D01*
X130037561Y-84777295D02*
X129989942Y-84824914D01*
X129989942Y-84824914D02*
X129894704Y-84872533D01*
X129894704Y-84872533D02*
X129751847Y-84872533D01*
X129751847Y-84872533D02*
X129656609Y-84824914D01*
X129656609Y-84824914D02*
X129608990Y-84777295D01*
X129608990Y-84777295D02*
X129561371Y-84682057D01*
X129561371Y-84682057D02*
X129561371Y-84301105D01*
X129751847Y-85729676D02*
X129085180Y-85729676D01*
X130132800Y-85491581D02*
X129418514Y-85253486D01*
X129418514Y-85253486D02*
X129418514Y-85872533D01*
D12*
X132424383Y-82689519D02*
X132405635Y-82708267D01*
X132405635Y-82708267D02*
X132349392Y-82727014D01*
X132349392Y-82727014D02*
X132311897Y-82727014D01*
X132311897Y-82727014D02*
X132255654Y-82708267D01*
X132255654Y-82708267D02*
X132218159Y-82670771D01*
X132218159Y-82670771D02*
X132199411Y-82633276D01*
X132199411Y-82633276D02*
X132180663Y-82558285D01*
X132180663Y-82558285D02*
X132180663Y-82502042D01*
X132180663Y-82502042D02*
X132199411Y-82427052D01*
X132199411Y-82427052D02*
X132218159Y-82389556D01*
X132218159Y-82389556D02*
X132255654Y-82352061D01*
X132255654Y-82352061D02*
X132311897Y-82333313D01*
X132311897Y-82333313D02*
X132349392Y-82333313D01*
X132349392Y-82333313D02*
X132405635Y-82352061D01*
X132405635Y-82352061D02*
X132424383Y-82370809D01*
X132799336Y-82727014D02*
X132574364Y-82727014D01*
X132686850Y-82727014D02*
X132686850Y-82333313D01*
X132686850Y-82333313D02*
X132649355Y-82389556D01*
X132649355Y-82389556D02*
X132611860Y-82427052D01*
X132611860Y-82427052D02*
X132574364Y-82445799D01*
D10*
X115744666Y-61466819D02*
X115744666Y-62181104D01*
X115744666Y-62181104D02*
X115697047Y-62323961D01*
X115697047Y-62323961D02*
X115601809Y-62419200D01*
X115601809Y-62419200D02*
X115458952Y-62466819D01*
X115458952Y-62466819D02*
X115363714Y-62466819D01*
X116173238Y-61562057D02*
X116220857Y-61514438D01*
X116220857Y-61514438D02*
X116316095Y-61466819D01*
X116316095Y-61466819D02*
X116554190Y-61466819D01*
X116554190Y-61466819D02*
X116649428Y-61514438D01*
X116649428Y-61514438D02*
X116697047Y-61562057D01*
X116697047Y-61562057D02*
X116744666Y-61657295D01*
X116744666Y-61657295D02*
X116744666Y-61752533D01*
X116744666Y-61752533D02*
X116697047Y-61895390D01*
X116697047Y-61895390D02*
X116125619Y-62466819D01*
X116125619Y-62466819D02*
X116744666Y-62466819D01*
X119964295Y-85941819D02*
X119964295Y-86751342D01*
X119964295Y-86751342D02*
X120011914Y-86846580D01*
X120011914Y-86846580D02*
X120059533Y-86894200D01*
X120059533Y-86894200D02*
X120154771Y-86941819D01*
X120154771Y-86941819D02*
X120345247Y-86941819D01*
X120345247Y-86941819D02*
X120440485Y-86894200D01*
X120440485Y-86894200D02*
X120488104Y-86846580D01*
X120488104Y-86846580D02*
X120535723Y-86751342D01*
X120535723Y-86751342D02*
X120535723Y-85941819D01*
X120964295Y-86037057D02*
X121011914Y-85989438D01*
X121011914Y-85989438D02*
X121107152Y-85941819D01*
X121107152Y-85941819D02*
X121345247Y-85941819D01*
X121345247Y-85941819D02*
X121440485Y-85989438D01*
X121440485Y-85989438D02*
X121488104Y-86037057D01*
X121488104Y-86037057D02*
X121535723Y-86132295D01*
X121535723Y-86132295D02*
X121535723Y-86227533D01*
X121535723Y-86227533D02*
X121488104Y-86370390D01*
X121488104Y-86370390D02*
X120916676Y-86941819D01*
X120916676Y-86941819D02*
X121535723Y-86941819D01*
X118008400Y-82335019D02*
X118008400Y-82573114D01*
X117770305Y-82477876D02*
X118008400Y-82573114D01*
X118008400Y-82573114D02*
X118246495Y-82477876D01*
X117865543Y-82763590D02*
X118008400Y-82573114D01*
X118008400Y-82573114D02*
X118151257Y-82763590D01*
X118008400Y-82335019D02*
X118008400Y-82573114D01*
X117770305Y-82477876D02*
X118008400Y-82573114D01*
X118008400Y-82573114D02*
X118246495Y-82477876D01*
X117865543Y-82763590D02*
X118008400Y-82573114D01*
X118008400Y-82573114D02*
X118151257Y-82763590D01*
D11*
X114069048Y-58576809D02*
X114354762Y-58576809D01*
X114211905Y-59076809D02*
X114211905Y-58576809D01*
X114521428Y-59076809D02*
X114521428Y-58576809D01*
X114521428Y-58576809D02*
X114711904Y-58576809D01*
X114711904Y-58576809D02*
X114759523Y-58600619D01*
X114759523Y-58600619D02*
X114783333Y-58624428D01*
X114783333Y-58624428D02*
X114807142Y-58672047D01*
X114807142Y-58672047D02*
X114807142Y-58743476D01*
X114807142Y-58743476D02*
X114783333Y-58791095D01*
X114783333Y-58791095D02*
X114759523Y-58814904D01*
X114759523Y-58814904D02*
X114711904Y-58838714D01*
X114711904Y-58838714D02*
X114521428Y-58838714D01*
X115235714Y-58743476D02*
X115235714Y-59076809D01*
X115116666Y-58553000D02*
X114997619Y-58910142D01*
X114997619Y-58910142D02*
X115307142Y-58910142D01*
X146869048Y-87206809D02*
X147154762Y-87206809D01*
X147011905Y-87706809D02*
X147011905Y-87206809D01*
X147321428Y-87706809D02*
X147321428Y-87206809D01*
X147321428Y-87206809D02*
X147511904Y-87206809D01*
X147511904Y-87206809D02*
X147559523Y-87230619D01*
X147559523Y-87230619D02*
X147583333Y-87254428D01*
X147583333Y-87254428D02*
X147607142Y-87302047D01*
X147607142Y-87302047D02*
X147607142Y-87373476D01*
X147607142Y-87373476D02*
X147583333Y-87421095D01*
X147583333Y-87421095D02*
X147559523Y-87444904D01*
X147559523Y-87444904D02*
X147511904Y-87468714D01*
X147511904Y-87468714D02*
X147321428Y-87468714D01*
X147797619Y-87254428D02*
X147821428Y-87230619D01*
X147821428Y-87230619D02*
X147869047Y-87206809D01*
X147869047Y-87206809D02*
X147988095Y-87206809D01*
X147988095Y-87206809D02*
X148035714Y-87230619D01*
X148035714Y-87230619D02*
X148059523Y-87254428D01*
X148059523Y-87254428D02*
X148083333Y-87302047D01*
X148083333Y-87302047D02*
X148083333Y-87349666D01*
X148083333Y-87349666D02*
X148059523Y-87421095D01*
X148059523Y-87421095D02*
X147773809Y-87706809D01*
X147773809Y-87706809D02*
X148083333Y-87706809D01*
D10*
X124801333Y-79353580D02*
X124753714Y-79401200D01*
X124753714Y-79401200D02*
X124610857Y-79448819D01*
X124610857Y-79448819D02*
X124515619Y-79448819D01*
X124515619Y-79448819D02*
X124372762Y-79401200D01*
X124372762Y-79401200D02*
X124277524Y-79305961D01*
X124277524Y-79305961D02*
X124229905Y-79210723D01*
X124229905Y-79210723D02*
X124182286Y-79020247D01*
X124182286Y-79020247D02*
X124182286Y-78877390D01*
X124182286Y-78877390D02*
X124229905Y-78686914D01*
X124229905Y-78686914D02*
X124277524Y-78591676D01*
X124277524Y-78591676D02*
X124372762Y-78496438D01*
X124372762Y-78496438D02*
X124515619Y-78448819D01*
X124515619Y-78448819D02*
X124610857Y-78448819D01*
X124610857Y-78448819D02*
X124753714Y-78496438D01*
X124753714Y-78496438D02*
X124801333Y-78544057D01*
X125182286Y-78544057D02*
X125229905Y-78496438D01*
X125229905Y-78496438D02*
X125325143Y-78448819D01*
X125325143Y-78448819D02*
X125563238Y-78448819D01*
X125563238Y-78448819D02*
X125658476Y-78496438D01*
X125658476Y-78496438D02*
X125706095Y-78544057D01*
X125706095Y-78544057D02*
X125753714Y-78639295D01*
X125753714Y-78639295D02*
X125753714Y-78734533D01*
X125753714Y-78734533D02*
X125706095Y-78877390D01*
X125706095Y-78877390D02*
X125134667Y-79448819D01*
X125134667Y-79448819D02*
X125753714Y-79448819D01*
X115744666Y-71880819D02*
X115744666Y-72595104D01*
X115744666Y-72595104D02*
X115697047Y-72737961D01*
X115697047Y-72737961D02*
X115601809Y-72833200D01*
X115601809Y-72833200D02*
X115458952Y-72880819D01*
X115458952Y-72880819D02*
X115363714Y-72880819D01*
X116744666Y-72880819D02*
X116173238Y-72880819D01*
X116458952Y-72880819D02*
X116458952Y-71880819D01*
X116458952Y-71880819D02*
X116363714Y-72023676D01*
X116363714Y-72023676D02*
X116268476Y-72118914D01*
X116268476Y-72118914D02*
X116173238Y-72166533D01*
X138088666Y-76094419D02*
X138136285Y-76046800D01*
X138136285Y-76046800D02*
X138279142Y-75999180D01*
X138279142Y-75999180D02*
X138374380Y-75999180D01*
X138374380Y-75999180D02*
X138517237Y-76046800D01*
X138517237Y-76046800D02*
X138612475Y-76142038D01*
X138612475Y-76142038D02*
X138660094Y-76237276D01*
X138660094Y-76237276D02*
X138707713Y-76427752D01*
X138707713Y-76427752D02*
X138707713Y-76570609D01*
X138707713Y-76570609D02*
X138660094Y-76761085D01*
X138660094Y-76761085D02*
X138612475Y-76856323D01*
X138612475Y-76856323D02*
X138517237Y-76951561D01*
X138517237Y-76951561D02*
X138374380Y-76999180D01*
X138374380Y-76999180D02*
X138279142Y-76999180D01*
X138279142Y-76999180D02*
X138136285Y-76951561D01*
X138136285Y-76951561D02*
X138088666Y-76903942D01*
X137755332Y-76999180D02*
X137136285Y-76999180D01*
X137136285Y-76999180D02*
X137469618Y-76618228D01*
X137469618Y-76618228D02*
X137326761Y-76618228D01*
X137326761Y-76618228D02*
X137231523Y-76570609D01*
X137231523Y-76570609D02*
X137183904Y-76522990D01*
X137183904Y-76522990D02*
X137136285Y-76427752D01*
X137136285Y-76427752D02*
X137136285Y-76189657D01*
X137136285Y-76189657D02*
X137183904Y-76094419D01*
X137183904Y-76094419D02*
X137231523Y-76046800D01*
X137231523Y-76046800D02*
X137326761Y-75999180D01*
X137326761Y-75999180D02*
X137612475Y-75999180D01*
X137612475Y-75999180D02*
X137707713Y-76046800D01*
X137707713Y-76046800D02*
X137755332Y-76094419D01*
D11*
X146869048Y-83176809D02*
X147154762Y-83176809D01*
X147011905Y-83676809D02*
X147011905Y-83176809D01*
X147321428Y-83676809D02*
X147321428Y-83176809D01*
X147321428Y-83176809D02*
X147511904Y-83176809D01*
X147511904Y-83176809D02*
X147559523Y-83200619D01*
X147559523Y-83200619D02*
X147583333Y-83224428D01*
X147583333Y-83224428D02*
X147607142Y-83272047D01*
X147607142Y-83272047D02*
X147607142Y-83343476D01*
X147607142Y-83343476D02*
X147583333Y-83391095D01*
X147583333Y-83391095D02*
X147559523Y-83414904D01*
X147559523Y-83414904D02*
X147511904Y-83438714D01*
X147511904Y-83438714D02*
X147321428Y-83438714D01*
X148083333Y-83676809D02*
X147797619Y-83676809D01*
X147940476Y-83676809D02*
X147940476Y-83176809D01*
X147940476Y-83176809D02*
X147892857Y-83248238D01*
X147892857Y-83248238D02*
X147845238Y-83295857D01*
X147845238Y-83295857D02*
X147797619Y-83319666D01*
D10*
X126309534Y-91640819D02*
X125976201Y-91164628D01*
X125738106Y-91640819D02*
X125738106Y-90640819D01*
X125738106Y-90640819D02*
X126119058Y-90640819D01*
X126119058Y-90640819D02*
X126214296Y-90688438D01*
X126214296Y-90688438D02*
X126261915Y-90736057D01*
X126261915Y-90736057D02*
X126309534Y-90831295D01*
X126309534Y-90831295D02*
X126309534Y-90974152D01*
X126309534Y-90974152D02*
X126261915Y-91069390D01*
X126261915Y-91069390D02*
X126214296Y-91117009D01*
X126214296Y-91117009D02*
X126119058Y-91164628D01*
X126119058Y-91164628D02*
X125738106Y-91164628D01*
X126690487Y-90736057D02*
X126738106Y-90688438D01*
X126738106Y-90688438D02*
X126833344Y-90640819D01*
X126833344Y-90640819D02*
X127071439Y-90640819D01*
X127071439Y-90640819D02*
X127166677Y-90688438D01*
X127166677Y-90688438D02*
X127214296Y-90736057D01*
X127214296Y-90736057D02*
X127261915Y-90831295D01*
X127261915Y-90831295D02*
X127261915Y-90926533D01*
X127261915Y-90926533D02*
X127214296Y-91069390D01*
X127214296Y-91069390D02*
X126642868Y-91640819D01*
X126642868Y-91640819D02*
X127261915Y-91640819D01*
X130998933Y-65478819D02*
X130522743Y-65478819D01*
X130522743Y-65478819D02*
X130522743Y-64478819D01*
X131856076Y-65478819D02*
X131284648Y-65478819D01*
X131570362Y-65478819D02*
X131570362Y-64478819D01*
X131570362Y-64478819D02*
X131475124Y-64621676D01*
X131475124Y-64621676D02*
X131379886Y-64716914D01*
X131379886Y-64716914D02*
X131284648Y-64764533D01*
X136651904Y-92239180D02*
X136651904Y-91429657D01*
X136651904Y-91429657D02*
X136604285Y-91334419D01*
X136604285Y-91334419D02*
X136556666Y-91286800D01*
X136556666Y-91286800D02*
X136461428Y-91239180D01*
X136461428Y-91239180D02*
X136270952Y-91239180D01*
X136270952Y-91239180D02*
X136175714Y-91286800D01*
X136175714Y-91286800D02*
X136128095Y-91334419D01*
X136128095Y-91334419D02*
X136080476Y-91429657D01*
X136080476Y-91429657D02*
X136080476Y-92239180D01*
X135699523Y-92239180D02*
X135080476Y-92239180D01*
X135080476Y-92239180D02*
X135413809Y-91858228D01*
X135413809Y-91858228D02*
X135270952Y-91858228D01*
X135270952Y-91858228D02*
X135175714Y-91810609D01*
X135175714Y-91810609D02*
X135128095Y-91762990D01*
X135128095Y-91762990D02*
X135080476Y-91667752D01*
X135080476Y-91667752D02*
X135080476Y-91429657D01*
X135080476Y-91429657D02*
X135128095Y-91334419D01*
X135128095Y-91334419D02*
X135175714Y-91286800D01*
X135175714Y-91286800D02*
X135270952Y-91239180D01*
X135270952Y-91239180D02*
X135556666Y-91239180D01*
X135556666Y-91239180D02*
X135651904Y-91286800D01*
X135651904Y-91286800D02*
X135699523Y-91334419D01*
D13*
%TO.C,G\u002A\u002A\u002A*%
G36*
X151681612Y-58092323D02*
G01*
X151709319Y-58141020D01*
X151716802Y-58187893D01*
X151699268Y-58249953D01*
X151651926Y-58344216D01*
X151570506Y-58486793D01*
X151514632Y-58582826D01*
X151424817Y-58736888D01*
X151305975Y-58940563D01*
X151163017Y-59185437D01*
X151000858Y-59463094D01*
X150824411Y-59765122D01*
X150638588Y-60083104D01*
X150508264Y-60306060D01*
X149619608Y-61826212D01*
X150371584Y-61845454D01*
X150643684Y-61853252D01*
X150848386Y-61862251D01*
X150995256Y-61874577D01*
X151093859Y-61892356D01*
X151153761Y-61917716D01*
X151184529Y-61952782D01*
X151195727Y-61999681D01*
X151196986Y-62028946D01*
X151173071Y-62066789D01*
X151104066Y-62158053D01*
X150994422Y-62297248D01*
X150848590Y-62478887D01*
X150671019Y-62697482D01*
X150466162Y-62947544D01*
X150238467Y-63223586D01*
X149992385Y-63520119D01*
X149823824Y-63722279D01*
X149526048Y-64078767D01*
X149209301Y-64457995D01*
X148883409Y-64848198D01*
X148558197Y-65237610D01*
X148243492Y-65614463D01*
X147949120Y-65966992D01*
X147684907Y-66283431D01*
X147470203Y-66540606D01*
X147192029Y-66873548D01*
X146958617Y-67152042D01*
X146765617Y-67380902D01*
X146608678Y-67564946D01*
X146483450Y-67708988D01*
X146385582Y-67817845D01*
X146310724Y-67896332D01*
X146254527Y-67949266D01*
X146212638Y-67981462D01*
X146180709Y-67997737D01*
X146154388Y-68002905D01*
X146149137Y-68003030D01*
X146078866Y-67973216D01*
X146022139Y-67913403D01*
X146011435Y-67892381D01*
X146005946Y-67864530D01*
X146007473Y-67824474D01*
X146017817Y-67766835D01*
X146038782Y-67686238D01*
X146072167Y-67577307D01*
X146119776Y-67434666D01*
X146183408Y-67252937D01*
X146264867Y-67026746D01*
X146365954Y-66750715D01*
X146488470Y-66419469D01*
X146634217Y-66027630D01*
X146804997Y-65569824D01*
X146829434Y-65504371D01*
X146979732Y-65101017D01*
X147121758Y-64718274D01*
X147253249Y-64362342D01*
X147371942Y-64039421D01*
X147475576Y-63755711D01*
X147561887Y-63517414D01*
X147628614Y-63330729D01*
X147673493Y-63201857D01*
X147694263Y-63136998D01*
X147695454Y-63130968D01*
X147683637Y-63112287D01*
X147642223Y-63098307D01*
X147562269Y-63088410D01*
X147434831Y-63081978D01*
X147250968Y-63078392D01*
X147001736Y-63077035D01*
X146914212Y-63076970D01*
X146632310Y-63076024D01*
X146418168Y-63072100D01*
X146262590Y-63063564D01*
X146156378Y-63048783D01*
X146090336Y-63026124D01*
X146055265Y-62993955D01*
X146041969Y-62950643D01*
X146040606Y-62921874D01*
X146052756Y-62872596D01*
X146087511Y-62758071D01*
X146102374Y-62711363D01*
X146475119Y-62711363D01*
X147265112Y-62721786D01*
X147564149Y-62727830D01*
X147802520Y-62737123D01*
X147975716Y-62749382D01*
X148079228Y-62764324D01*
X148106188Y-62774604D01*
X148147788Y-62845154D01*
X148157273Y-62902497D01*
X148144094Y-62954359D01*
X148106265Y-63071062D01*
X148046342Y-63245450D01*
X147966886Y-63470365D01*
X147870453Y-63738650D01*
X147759603Y-64043146D01*
X147636894Y-64376697D01*
X147504885Y-64732145D01*
X147467715Y-64831649D01*
X147333126Y-65191669D01*
X147206236Y-65531431D01*
X147089698Y-65843809D01*
X146986164Y-66121674D01*
X146898288Y-66357900D01*
X146828723Y-66545360D01*
X146780121Y-66676926D01*
X146755136Y-66745472D01*
X146752775Y-66752273D01*
X146747978Y-66772817D01*
X146753013Y-66779586D01*
X146771107Y-66768867D01*
X146805484Y-66736947D01*
X146859372Y-66680114D01*
X146935995Y-66594654D01*
X147038581Y-66476854D01*
X147170355Y-66323001D01*
X147334543Y-66129383D01*
X147534372Y-65892286D01*
X147773067Y-65607998D01*
X148053854Y-65272805D01*
X148379959Y-64882995D01*
X148458098Y-64789545D01*
X148733138Y-64460625D01*
X149002993Y-64137964D01*
X149261900Y-63828450D01*
X149504095Y-63538970D01*
X149723815Y-63276412D01*
X149915296Y-63047663D01*
X150072775Y-62859610D01*
X150190489Y-62719141D01*
X150243954Y-62655418D01*
X150367389Y-62506309D01*
X150470611Y-62377560D01*
X150544517Y-62280834D01*
X150580004Y-62227798D01*
X150581818Y-62222463D01*
X150545370Y-62212622D01*
X150444168Y-62204092D01*
X150290423Y-62197420D01*
X150096346Y-62193152D01*
X149896788Y-62191818D01*
X149632720Y-62190628D01*
X149435874Y-62185698D01*
X149296520Y-62174987D01*
X149204926Y-62156454D01*
X149151365Y-62128057D01*
X149126105Y-62087758D01*
X149119418Y-62033513D01*
X149119394Y-62028757D01*
X149132159Y-61991250D01*
X149171340Y-61910702D01*
X149238266Y-61784793D01*
X149334269Y-61611199D01*
X149460676Y-61387601D01*
X149618818Y-61111677D01*
X149810024Y-60781106D01*
X150035624Y-60393567D01*
X150296948Y-59946737D01*
X150595325Y-59438297D01*
X150895760Y-58927605D01*
X150999905Y-58748506D01*
X151088500Y-58591877D01*
X151154777Y-58470025D01*
X151191969Y-58395257D01*
X151197576Y-58378778D01*
X151159840Y-58369965D01*
X151049602Y-58362722D01*
X150871314Y-58357120D01*
X150629429Y-58353232D01*
X150328399Y-58351129D01*
X149972676Y-58350884D01*
X149571591Y-58352537D01*
X147945606Y-58362576D01*
X147210362Y-60536970D01*
X146475119Y-62711363D01*
X146102374Y-62711363D01*
X146142332Y-62585798D01*
X146214675Y-62363275D01*
X146302001Y-62098001D01*
X146401768Y-61797476D01*
X146511435Y-61469198D01*
X146628460Y-61120665D01*
X146750303Y-60759378D01*
X146874423Y-60392833D01*
X146998277Y-60028531D01*
X147119326Y-59673970D01*
X147235028Y-59336649D01*
X147342841Y-59024066D01*
X147440225Y-58743721D01*
X147524638Y-58503112D01*
X147593539Y-58309739D01*
X147644388Y-58171099D01*
X147674642Y-58094692D01*
X147680194Y-58083560D01*
X147735714Y-57996970D01*
X149677424Y-57996970D01*
X151619135Y-57996970D01*
X151681612Y-58092323D01*
G37*
D14*
%TO.C,U1*%
X129743200Y-74879200D02*
X129743200Y-75463400D01*
X129743200Y-78460600D02*
X129743200Y-79044800D01*
X129743200Y-79044800D02*
X130327400Y-79044800D01*
X130327400Y-74879200D02*
X129743200Y-74879200D01*
X133324600Y-79044800D02*
X133908800Y-79044800D01*
X133908800Y-74879200D02*
X133324600Y-74879200D01*
X133908800Y-75463400D02*
X133908800Y-74879200D01*
X133908800Y-79044800D02*
X133908800Y-78460600D01*
%TO.C,R3*%
X125704600Y-85016550D02*
X125704600Y-85188850D01*
X126771400Y-85188850D02*
X126771400Y-85016550D01*
%TO.C,R1*%
X132743150Y-73685400D02*
X132915450Y-73685400D01*
X132915450Y-72618600D02*
X132743150Y-72618600D01*
D15*
%TO.C,TP3*%
X139100000Y-59400000D02*
X140500000Y-59400000D01*
X139100000Y-60800000D02*
X139100000Y-59400000D01*
X140500000Y-59400000D02*
X140500000Y-60800000D01*
X140500000Y-60800000D02*
X139100000Y-60800000D01*
D10*
%TO.C,J2*%
X113978000Y-63062000D02*
X118178000Y-63062000D01*
X113978000Y-65462000D02*
X113978000Y-63062000D01*
X118178000Y-63062000D02*
X118178000Y-65462000D01*
X118178000Y-65462000D02*
X113978000Y-65462000D01*
D14*
%TO.C,U2*%
X119352547Y-88988900D02*
X122099853Y-88988900D01*
X122099853Y-83985100D02*
X119352547Y-83985100D01*
X121031000Y-83985100D02*
G75*
G02*
X120421400Y-83985100I-304800J0D01*
G01*
D15*
%TO.C,TP4*%
X114000000Y-59600000D02*
X115400000Y-59600000D01*
X114000000Y-61000000D02*
X114000000Y-59600000D01*
X115400000Y-59600000D02*
X115400000Y-61000000D01*
X115400000Y-61000000D02*
X114000000Y-61000000D01*
%TO.C,TP2*%
X146800000Y-88230000D02*
X148200000Y-88230000D01*
X146800000Y-89630000D02*
X146800000Y-88230000D01*
X148200000Y-88230000D02*
X148200000Y-89630000D01*
X148200000Y-89630000D02*
X146800000Y-89630000D01*
D14*
%TO.C,C2*%
X124186997Y-80518000D02*
X125749003Y-80518000D01*
X125749003Y-77470000D02*
X124186997Y-77470000D01*
D10*
%TO.C,J1*%
X113978000Y-73476000D02*
X118178000Y-73476000D01*
X113978000Y-75876000D02*
X113978000Y-73476000D01*
X118178000Y-73476000D02*
X118178000Y-75876000D01*
X118178000Y-75876000D02*
X113978000Y-75876000D01*
D14*
%TO.C,C3*%
X137140997Y-77978000D02*
X138703003Y-77978000D01*
X138703003Y-74930000D02*
X137140997Y-74930000D01*
D15*
%TO.C,TP1*%
X146800000Y-84200000D02*
X148200000Y-84200000D01*
X146800000Y-85600000D02*
X146800000Y-84200000D01*
X148200000Y-84200000D02*
X148200000Y-85600000D01*
X148200000Y-85600000D02*
X146800000Y-85600000D01*
D14*
%TO.C,R2*%
X126383752Y-91712999D02*
X126568650Y-91712999D01*
X126568650Y-90659001D02*
X126383752Y-90659001D01*
%TO.C,L1*%
X124790200Y-58648600D02*
X124790200Y-61935360D01*
X124790200Y-68112640D02*
X124790200Y-71399400D01*
X124790200Y-71399400D02*
X137541000Y-71399400D01*
X137541000Y-58648600D02*
X124790200Y-58648600D01*
X137541000Y-61935360D02*
X137541000Y-58648600D01*
X137541000Y-71399400D02*
X137541000Y-68112640D01*
%TO.C,U3*%
X133464300Y-90271600D02*
X133464300Y-93116400D01*
X133464300Y-93116400D02*
X134630160Y-93116400D01*
X133815960Y-90271600D02*
X133464300Y-90271600D01*
X135315960Y-90271600D02*
X134964040Y-90271600D01*
X136815960Y-90271600D02*
X136464040Y-90271600D01*
X137149840Y-93116400D02*
X138315700Y-93116400D01*
X138315700Y-90271600D02*
X137964040Y-90271600D01*
X138315700Y-93116400D02*
X138315700Y-90271600D01*
X139585700Y-89573100D02*
G75*
G02*
X139331700Y-89573100I-127000J0D01*
G01*
X139331700Y-89573100D02*
G75*
G02*
X139585700Y-89573100I127000J0D01*
G01*
%TD*%
M02*
