%TF.GenerationSoftware,KiCad,Pcbnew,8.0.0*%
%TF.CreationDate,2024-03-27T12:37:06-02:30*%
%TF.ProjectId,test-receiver,74657374-2d72-4656-9365-697665722e6b,rev?*%
%TF.SameCoordinates,Original*%
%TF.FileFunction,Legend,Top*%
%TF.FilePolarity,Positive*%
%FSLAX46Y46*%
G04 Gerber Fmt 4.6, Leading zero omitted, Abs format (unit mm)*
G04 Created by KiCad (PCBNEW 8.0.0) date 2024-03-27 12:37:06*
%MOMM*%
%LPD*%
G01*
G04 APERTURE LIST*
%ADD10C,0.150000*%
%ADD11C,0.000000*%
%ADD12C,0.152400*%
G04 APERTURE END LIST*
D10*
X110651202Y-70684819D02*
X110175012Y-70684819D01*
X110175012Y-70684819D02*
X110175012Y-69684819D01*
X110984536Y-70161009D02*
X111317869Y-70161009D01*
X111460726Y-70684819D02*
X110984536Y-70684819D01*
X110984536Y-70684819D02*
X110984536Y-69684819D01*
X110984536Y-69684819D02*
X111460726Y-69684819D01*
X111889298Y-70684819D02*
X111889298Y-69684819D01*
X111889298Y-69684819D02*
X112127393Y-69684819D01*
X112127393Y-69684819D02*
X112270250Y-69732438D01*
X112270250Y-69732438D02*
X112365488Y-69827676D01*
X112365488Y-69827676D02*
X112413107Y-69922914D01*
X112413107Y-69922914D02*
X112460726Y-70113390D01*
X112460726Y-70113390D02*
X112460726Y-70256247D01*
X112460726Y-70256247D02*
X112413107Y-70446723D01*
X112413107Y-70446723D02*
X112365488Y-70541961D01*
X112365488Y-70541961D02*
X112270250Y-70637200D01*
X112270250Y-70637200D02*
X112127393Y-70684819D01*
X112127393Y-70684819D02*
X111889298Y-70684819D01*
X112794060Y-69684819D02*
X113413107Y-69684819D01*
X113413107Y-69684819D02*
X113079774Y-70065771D01*
X113079774Y-70065771D02*
X113222631Y-70065771D01*
X113222631Y-70065771D02*
X113317869Y-70113390D01*
X113317869Y-70113390D02*
X113365488Y-70161009D01*
X113365488Y-70161009D02*
X113413107Y-70256247D01*
X113413107Y-70256247D02*
X113413107Y-70494342D01*
X113413107Y-70494342D02*
X113365488Y-70589580D01*
X113365488Y-70589580D02*
X113317869Y-70637200D01*
X113317869Y-70637200D02*
X113222631Y-70684819D01*
X113222631Y-70684819D02*
X112936917Y-70684819D01*
X112936917Y-70684819D02*
X112841679Y-70637200D01*
X112841679Y-70637200D02*
X112794060Y-70589580D01*
X112929047Y-75545180D02*
X113405237Y-75545180D01*
X113405237Y-75545180D02*
X113405237Y-76545180D01*
X112595713Y-76068990D02*
X112262380Y-76068990D01*
X112119523Y-75545180D02*
X112595713Y-75545180D01*
X112595713Y-75545180D02*
X112595713Y-76545180D01*
X112595713Y-76545180D02*
X112119523Y-76545180D01*
X111690951Y-75545180D02*
X111690951Y-76545180D01*
X111690951Y-76545180D02*
X111452856Y-76545180D01*
X111452856Y-76545180D02*
X111309999Y-76497561D01*
X111309999Y-76497561D02*
X111214761Y-76402323D01*
X111214761Y-76402323D02*
X111167142Y-76307085D01*
X111167142Y-76307085D02*
X111119523Y-76116609D01*
X111119523Y-76116609D02*
X111119523Y-75973752D01*
X111119523Y-75973752D02*
X111167142Y-75783276D01*
X111167142Y-75783276D02*
X111214761Y-75688038D01*
X111214761Y-75688038D02*
X111309999Y-75592800D01*
X111309999Y-75592800D02*
X111452856Y-75545180D01*
X111452856Y-75545180D02*
X111690951Y-75545180D01*
X110262380Y-76545180D02*
X110452856Y-76545180D01*
X110452856Y-76545180D02*
X110548094Y-76497561D01*
X110548094Y-76497561D02*
X110595713Y-76449942D01*
X110595713Y-76449942D02*
X110690951Y-76307085D01*
X110690951Y-76307085D02*
X110738570Y-76116609D01*
X110738570Y-76116609D02*
X110738570Y-75735657D01*
X110738570Y-75735657D02*
X110690951Y-75640419D01*
X110690951Y-75640419D02*
X110643332Y-75592800D01*
X110643332Y-75592800D02*
X110548094Y-75545180D01*
X110548094Y-75545180D02*
X110357618Y-75545180D01*
X110357618Y-75545180D02*
X110262380Y-75592800D01*
X110262380Y-75592800D02*
X110214761Y-75640419D01*
X110214761Y-75640419D02*
X110167142Y-75735657D01*
X110167142Y-75735657D02*
X110167142Y-75973752D01*
X110167142Y-75973752D02*
X110214761Y-76068990D01*
X110214761Y-76068990D02*
X110262380Y-76116609D01*
X110262380Y-76116609D02*
X110357618Y-76164228D01*
X110357618Y-76164228D02*
X110548094Y-76164228D01*
X110548094Y-76164228D02*
X110643332Y-76116609D01*
X110643332Y-76116609D02*
X110690951Y-76068990D01*
X110690951Y-76068990D02*
X110738570Y-75973752D01*
X112929047Y-80990180D02*
X113405237Y-80990180D01*
X113405237Y-80990180D02*
X113405237Y-81990180D01*
X112595713Y-81513990D02*
X112262380Y-81513990D01*
X112119523Y-80990180D02*
X112595713Y-80990180D01*
X112595713Y-80990180D02*
X112595713Y-81990180D01*
X112595713Y-81990180D02*
X112119523Y-81990180D01*
X111690951Y-80990180D02*
X111690951Y-81990180D01*
X111690951Y-81990180D02*
X111452856Y-81990180D01*
X111452856Y-81990180D02*
X111309999Y-81942561D01*
X111309999Y-81942561D02*
X111214761Y-81847323D01*
X111214761Y-81847323D02*
X111167142Y-81752085D01*
X111167142Y-81752085D02*
X111119523Y-81561609D01*
X111119523Y-81561609D02*
X111119523Y-81418752D01*
X111119523Y-81418752D02*
X111167142Y-81228276D01*
X111167142Y-81228276D02*
X111214761Y-81133038D01*
X111214761Y-81133038D02*
X111309999Y-81037800D01*
X111309999Y-81037800D02*
X111452856Y-80990180D01*
X111452856Y-80990180D02*
X111690951Y-80990180D01*
X110214761Y-81990180D02*
X110690951Y-81990180D01*
X110690951Y-81990180D02*
X110738570Y-81513990D01*
X110738570Y-81513990D02*
X110690951Y-81561609D01*
X110690951Y-81561609D02*
X110595713Y-81609228D01*
X110595713Y-81609228D02*
X110357618Y-81609228D01*
X110357618Y-81609228D02*
X110262380Y-81561609D01*
X110262380Y-81561609D02*
X110214761Y-81513990D01*
X110214761Y-81513990D02*
X110167142Y-81418752D01*
X110167142Y-81418752D02*
X110167142Y-81180657D01*
X110167142Y-81180657D02*
X110214761Y-81085419D01*
X110214761Y-81085419D02*
X110262380Y-81037800D01*
X110262380Y-81037800D02*
X110357618Y-80990180D01*
X110357618Y-80990180D02*
X110595713Y-80990180D01*
X110595713Y-80990180D02*
X110690951Y-81037800D01*
X110690951Y-81037800D02*
X110738570Y-81085419D01*
X110651202Y-65239819D02*
X110175012Y-65239819D01*
X110175012Y-65239819D02*
X110175012Y-64239819D01*
X110984536Y-64716009D02*
X111317869Y-64716009D01*
X111460726Y-65239819D02*
X110984536Y-65239819D01*
X110984536Y-65239819D02*
X110984536Y-64239819D01*
X110984536Y-64239819D02*
X111460726Y-64239819D01*
X111889298Y-65239819D02*
X111889298Y-64239819D01*
X111889298Y-64239819D02*
X112127393Y-64239819D01*
X112127393Y-64239819D02*
X112270250Y-64287438D01*
X112270250Y-64287438D02*
X112365488Y-64382676D01*
X112365488Y-64382676D02*
X112413107Y-64477914D01*
X112413107Y-64477914D02*
X112460726Y-64668390D01*
X112460726Y-64668390D02*
X112460726Y-64811247D01*
X112460726Y-64811247D02*
X112413107Y-65001723D01*
X112413107Y-65001723D02*
X112365488Y-65096961D01*
X112365488Y-65096961D02*
X112270250Y-65192200D01*
X112270250Y-65192200D02*
X112127393Y-65239819D01*
X112127393Y-65239819D02*
X111889298Y-65239819D01*
X112841679Y-64335057D02*
X112889298Y-64287438D01*
X112889298Y-64287438D02*
X112984536Y-64239819D01*
X112984536Y-64239819D02*
X113222631Y-64239819D01*
X113222631Y-64239819D02*
X113317869Y-64287438D01*
X113317869Y-64287438D02*
X113365488Y-64335057D01*
X113365488Y-64335057D02*
X113413107Y-64430295D01*
X113413107Y-64430295D02*
X113413107Y-64525533D01*
X113413107Y-64525533D02*
X113365488Y-64668390D01*
X113365488Y-64668390D02*
X112794060Y-65239819D01*
X112794060Y-65239819D02*
X113413107Y-65239819D01*
X112929047Y-86435180D02*
X113405237Y-86435180D01*
X113405237Y-86435180D02*
X113405237Y-87435180D01*
X112595713Y-86958990D02*
X112262380Y-86958990D01*
X112119523Y-86435180D02*
X112595713Y-86435180D01*
X112595713Y-86435180D02*
X112595713Y-87435180D01*
X112595713Y-87435180D02*
X112119523Y-87435180D01*
X111690951Y-86435180D02*
X111690951Y-87435180D01*
X111690951Y-87435180D02*
X111452856Y-87435180D01*
X111452856Y-87435180D02*
X111309999Y-87387561D01*
X111309999Y-87387561D02*
X111214761Y-87292323D01*
X111214761Y-87292323D02*
X111167142Y-87197085D01*
X111167142Y-87197085D02*
X111119523Y-87006609D01*
X111119523Y-87006609D02*
X111119523Y-86863752D01*
X111119523Y-86863752D02*
X111167142Y-86673276D01*
X111167142Y-86673276D02*
X111214761Y-86578038D01*
X111214761Y-86578038D02*
X111309999Y-86482800D01*
X111309999Y-86482800D02*
X111452856Y-86435180D01*
X111452856Y-86435180D02*
X111690951Y-86435180D01*
X110262380Y-87101847D02*
X110262380Y-86435180D01*
X110500475Y-87482800D02*
X110738570Y-86768514D01*
X110738570Y-86768514D02*
X110119523Y-86768514D01*
X110651202Y-59794819D02*
X110175012Y-59794819D01*
X110175012Y-59794819D02*
X110175012Y-58794819D01*
X110984536Y-59271009D02*
X111317869Y-59271009D01*
X111460726Y-59794819D02*
X110984536Y-59794819D01*
X110984536Y-59794819D02*
X110984536Y-58794819D01*
X110984536Y-58794819D02*
X111460726Y-58794819D01*
X111889298Y-59794819D02*
X111889298Y-58794819D01*
X111889298Y-58794819D02*
X112127393Y-58794819D01*
X112127393Y-58794819D02*
X112270250Y-58842438D01*
X112270250Y-58842438D02*
X112365488Y-58937676D01*
X112365488Y-58937676D02*
X112413107Y-59032914D01*
X112413107Y-59032914D02*
X112460726Y-59223390D01*
X112460726Y-59223390D02*
X112460726Y-59366247D01*
X112460726Y-59366247D02*
X112413107Y-59556723D01*
X112413107Y-59556723D02*
X112365488Y-59651961D01*
X112365488Y-59651961D02*
X112270250Y-59747200D01*
X112270250Y-59747200D02*
X112127393Y-59794819D01*
X112127393Y-59794819D02*
X111889298Y-59794819D01*
X113413107Y-59794819D02*
X112841679Y-59794819D01*
X113127393Y-59794819D02*
X113127393Y-58794819D01*
X113127393Y-58794819D02*
X113032155Y-58937676D01*
X113032155Y-58937676D02*
X112936917Y-59032914D01*
X112936917Y-59032914D02*
X112841679Y-59080533D01*
X127235433Y-59834819D02*
X126902100Y-59358628D01*
X126664005Y-59834819D02*
X126664005Y-58834819D01*
X126664005Y-58834819D02*
X127044957Y-58834819D01*
X127044957Y-58834819D02*
X127140195Y-58882438D01*
X127140195Y-58882438D02*
X127187814Y-58930057D01*
X127187814Y-58930057D02*
X127235433Y-59025295D01*
X127235433Y-59025295D02*
X127235433Y-59168152D01*
X127235433Y-59168152D02*
X127187814Y-59263390D01*
X127187814Y-59263390D02*
X127140195Y-59311009D01*
X127140195Y-59311009D02*
X127044957Y-59358628D01*
X127044957Y-59358628D02*
X126664005Y-59358628D01*
X128187814Y-59834819D02*
X127616386Y-59834819D01*
X127902100Y-59834819D02*
X127902100Y-58834819D01*
X127902100Y-58834819D02*
X127806862Y-58977676D01*
X127806862Y-58977676D02*
X127711624Y-59072914D01*
X127711624Y-59072914D02*
X127616386Y-59120533D01*
X128419580Y-75526666D02*
X128467200Y-75574285D01*
X128467200Y-75574285D02*
X128514819Y-75717142D01*
X128514819Y-75717142D02*
X128514819Y-75812380D01*
X128514819Y-75812380D02*
X128467200Y-75955237D01*
X128467200Y-75955237D02*
X128371961Y-76050475D01*
X128371961Y-76050475D02*
X128276723Y-76098094D01*
X128276723Y-76098094D02*
X128086247Y-76145713D01*
X128086247Y-76145713D02*
X127943390Y-76145713D01*
X127943390Y-76145713D02*
X127752914Y-76098094D01*
X127752914Y-76098094D02*
X127657676Y-76050475D01*
X127657676Y-76050475D02*
X127562438Y-75955237D01*
X127562438Y-75955237D02*
X127514819Y-75812380D01*
X127514819Y-75812380D02*
X127514819Y-75717142D01*
X127514819Y-75717142D02*
X127562438Y-75574285D01*
X127562438Y-75574285D02*
X127610057Y-75526666D01*
X128514819Y-74574285D02*
X128514819Y-75145713D01*
X128514819Y-74859999D02*
X127514819Y-74859999D01*
X127514819Y-74859999D02*
X127657676Y-74955237D01*
X127657676Y-74955237D02*
X127752914Y-75050475D01*
X127752914Y-75050475D02*
X127800533Y-75145713D01*
D11*
%TO.C,G\u002A\u002A\u002A*%
G36*
X138021612Y-53672323D02*
G01*
X138049319Y-53721020D01*
X138056802Y-53767893D01*
X138039268Y-53829953D01*
X137991926Y-53924216D01*
X137910506Y-54066793D01*
X137854632Y-54162826D01*
X137764817Y-54316888D01*
X137645975Y-54520563D01*
X137503017Y-54765437D01*
X137340858Y-55043094D01*
X137164411Y-55345122D01*
X136978588Y-55663104D01*
X136848264Y-55886060D01*
X135959608Y-57406212D01*
X136711584Y-57425454D01*
X136983684Y-57433252D01*
X137188386Y-57442251D01*
X137335256Y-57454577D01*
X137433859Y-57472356D01*
X137493761Y-57497716D01*
X137524529Y-57532782D01*
X137535727Y-57579681D01*
X137536986Y-57608946D01*
X137513071Y-57646789D01*
X137444066Y-57738053D01*
X137334422Y-57877248D01*
X137188590Y-58058887D01*
X137011019Y-58277482D01*
X136806162Y-58527544D01*
X136578467Y-58803586D01*
X136332385Y-59100119D01*
X136163824Y-59302279D01*
X135866048Y-59658767D01*
X135549301Y-60037995D01*
X135223409Y-60428198D01*
X134898197Y-60817610D01*
X134583492Y-61194463D01*
X134289120Y-61546992D01*
X134024907Y-61863431D01*
X133810203Y-62120606D01*
X133532029Y-62453548D01*
X133298617Y-62732042D01*
X133105617Y-62960902D01*
X132948678Y-63144946D01*
X132823450Y-63288988D01*
X132725582Y-63397845D01*
X132650724Y-63476332D01*
X132594527Y-63529266D01*
X132552638Y-63561462D01*
X132520709Y-63577737D01*
X132494388Y-63582905D01*
X132489137Y-63583030D01*
X132418866Y-63553216D01*
X132362139Y-63493403D01*
X132351435Y-63472381D01*
X132345946Y-63444530D01*
X132347473Y-63404474D01*
X132357817Y-63346835D01*
X132378782Y-63266238D01*
X132412167Y-63157307D01*
X132459776Y-63014666D01*
X132523408Y-62832937D01*
X132604867Y-62606746D01*
X132705954Y-62330715D01*
X132828470Y-61999469D01*
X132974217Y-61607630D01*
X133144997Y-61149824D01*
X133169434Y-61084371D01*
X133319732Y-60681017D01*
X133461758Y-60298274D01*
X133593249Y-59942342D01*
X133711942Y-59619421D01*
X133815576Y-59335711D01*
X133901887Y-59097414D01*
X133968614Y-58910729D01*
X134013493Y-58781857D01*
X134034263Y-58716998D01*
X134035454Y-58710968D01*
X134023637Y-58692287D01*
X133982223Y-58678307D01*
X133902269Y-58668410D01*
X133774831Y-58661978D01*
X133590968Y-58658392D01*
X133341736Y-58657035D01*
X133254212Y-58656970D01*
X132972310Y-58656024D01*
X132758168Y-58652100D01*
X132602590Y-58643564D01*
X132496378Y-58628783D01*
X132430336Y-58606124D01*
X132395265Y-58573955D01*
X132381969Y-58530643D01*
X132380606Y-58501874D01*
X132392756Y-58452596D01*
X132427511Y-58338071D01*
X132442374Y-58291363D01*
X132815119Y-58291363D01*
X133605112Y-58301786D01*
X133904149Y-58307830D01*
X134142520Y-58317123D01*
X134315716Y-58329382D01*
X134419228Y-58344324D01*
X134446188Y-58354604D01*
X134487788Y-58425154D01*
X134497273Y-58482497D01*
X134484094Y-58534359D01*
X134446265Y-58651062D01*
X134386342Y-58825450D01*
X134306886Y-59050365D01*
X134210453Y-59318650D01*
X134099603Y-59623146D01*
X133976894Y-59956697D01*
X133844885Y-60312145D01*
X133807715Y-60411649D01*
X133673126Y-60771669D01*
X133546236Y-61111431D01*
X133429698Y-61423809D01*
X133326164Y-61701674D01*
X133238288Y-61937900D01*
X133168723Y-62125360D01*
X133120121Y-62256926D01*
X133095136Y-62325472D01*
X133092775Y-62332273D01*
X133087978Y-62352817D01*
X133093013Y-62359586D01*
X133111107Y-62348867D01*
X133145484Y-62316947D01*
X133199372Y-62260114D01*
X133275995Y-62174654D01*
X133378581Y-62056854D01*
X133510355Y-61903001D01*
X133674543Y-61709383D01*
X133874372Y-61472286D01*
X134113067Y-61187998D01*
X134393854Y-60852805D01*
X134719959Y-60462995D01*
X134798098Y-60369545D01*
X135073138Y-60040625D01*
X135342993Y-59717964D01*
X135601900Y-59408450D01*
X135844095Y-59118970D01*
X136063815Y-58856412D01*
X136255296Y-58627663D01*
X136412775Y-58439610D01*
X136530489Y-58299141D01*
X136583954Y-58235418D01*
X136707389Y-58086309D01*
X136810611Y-57957560D01*
X136884517Y-57860834D01*
X136920004Y-57807798D01*
X136921818Y-57802463D01*
X136885370Y-57792622D01*
X136784168Y-57784092D01*
X136630423Y-57777420D01*
X136436346Y-57773152D01*
X136236788Y-57771818D01*
X135972720Y-57770628D01*
X135775874Y-57765698D01*
X135636520Y-57754987D01*
X135544926Y-57736454D01*
X135491365Y-57708057D01*
X135466105Y-57667758D01*
X135459418Y-57613513D01*
X135459394Y-57608757D01*
X135472159Y-57571250D01*
X135511340Y-57490702D01*
X135578266Y-57364793D01*
X135674269Y-57191199D01*
X135800676Y-56967601D01*
X135958818Y-56691677D01*
X136150024Y-56361106D01*
X136375624Y-55973567D01*
X136636948Y-55526737D01*
X136935325Y-55018297D01*
X137235760Y-54507605D01*
X137339905Y-54328506D01*
X137428500Y-54171877D01*
X137494777Y-54050025D01*
X137531969Y-53975257D01*
X137537576Y-53958778D01*
X137499840Y-53949965D01*
X137389602Y-53942722D01*
X137211314Y-53937120D01*
X136969429Y-53933232D01*
X136668399Y-53931129D01*
X136312676Y-53930884D01*
X135911591Y-53932537D01*
X134285606Y-53942576D01*
X133550362Y-56116970D01*
X132815119Y-58291363D01*
X132442374Y-58291363D01*
X132482332Y-58165798D01*
X132554675Y-57943275D01*
X132642001Y-57678001D01*
X132741768Y-57377476D01*
X132851435Y-57049198D01*
X132968460Y-56700665D01*
X133090303Y-56339378D01*
X133214423Y-55972833D01*
X133338277Y-55608531D01*
X133459326Y-55253970D01*
X133575028Y-54916649D01*
X133682841Y-54604066D01*
X133780225Y-54323721D01*
X133864638Y-54083112D01*
X133933539Y-53889739D01*
X133984388Y-53751099D01*
X134014642Y-53674692D01*
X134020194Y-53663560D01*
X134075714Y-53576970D01*
X136017424Y-53576970D01*
X137959135Y-53576970D01*
X138021612Y-53672323D01*
G37*
D12*
%TO.C,LED3*%
X108417450Y-69595000D02*
X108417450Y-70865000D01*
X108417450Y-70230000D02*
X109179450Y-69595000D01*
X108417450Y-70230000D02*
X109179450Y-69722000D01*
X108417450Y-70230000D02*
X109179450Y-69849000D01*
X108417450Y-70230000D02*
X109179450Y-69976000D01*
X108417450Y-70230000D02*
X109179450Y-70103000D01*
X108417450Y-70230000D02*
X109179450Y-70357000D01*
X108417450Y-70230000D02*
X109179450Y-70484000D01*
X108417450Y-70230000D02*
X109179450Y-70611000D01*
X108417450Y-70230000D02*
X109179450Y-70738000D01*
X108417450Y-70230000D02*
X109179450Y-70865000D01*
X109179450Y-69595000D02*
X109179450Y-70865000D01*
X109433450Y-70230000D02*
X108163450Y-70230000D01*
X109796064Y-69566192D02*
G75*
G02*
X113744436Y-69566192I1974186J-663808D01*
G01*
X113744436Y-70893808D02*
G75*
G02*
X109796064Y-70893808I-1974186J663808D01*
G01*
%TO.C,LED6*%
X114146800Y-76000000D02*
X115416800Y-76000000D01*
X114400800Y-76635000D02*
X114400800Y-75365000D01*
X115162800Y-76000000D02*
X114400800Y-75365000D01*
X115162800Y-76000000D02*
X114400800Y-75492000D01*
X115162800Y-76000000D02*
X114400800Y-75619000D01*
X115162800Y-76000000D02*
X114400800Y-75746000D01*
X115162800Y-76000000D02*
X114400800Y-75873000D01*
X115162800Y-76000000D02*
X114400800Y-76127000D01*
X115162800Y-76000000D02*
X114400800Y-76254000D01*
X115162800Y-76000000D02*
X114400800Y-76381000D01*
X115162800Y-76000000D02*
X114400800Y-76508000D01*
X115162800Y-76000000D02*
X114400800Y-76635000D01*
X115162800Y-76635000D02*
X115162800Y-75365000D01*
X109835814Y-75336192D02*
G75*
G02*
X113784186Y-75336192I1974186J-663808D01*
G01*
X113784186Y-76663808D02*
G75*
G02*
X109835814Y-76663808I-1974186J663808D01*
G01*
%TO.C,LED5*%
X114146800Y-81445000D02*
X115416800Y-81445000D01*
X114400800Y-82080000D02*
X114400800Y-80810000D01*
X115162800Y-81445000D02*
X114400800Y-80810000D01*
X115162800Y-81445000D02*
X114400800Y-80937000D01*
X115162800Y-81445000D02*
X114400800Y-81064000D01*
X115162800Y-81445000D02*
X114400800Y-81191000D01*
X115162800Y-81445000D02*
X114400800Y-81318000D01*
X115162800Y-81445000D02*
X114400800Y-81572000D01*
X115162800Y-81445000D02*
X114400800Y-81699000D01*
X115162800Y-81445000D02*
X114400800Y-81826000D01*
X115162800Y-81445000D02*
X114400800Y-81953000D01*
X115162800Y-81445000D02*
X114400800Y-82080000D01*
X115162800Y-82080000D02*
X115162800Y-80810000D01*
X109835814Y-80781192D02*
G75*
G02*
X113784186Y-80781192I1974186J-663808D01*
G01*
X113784186Y-82108808D02*
G75*
G02*
X109835814Y-82108808I-1974186J663808D01*
G01*
%TO.C,LED2*%
X108417450Y-64150000D02*
X108417450Y-65420000D01*
X108417450Y-64785000D02*
X109179450Y-64150000D01*
X108417450Y-64785000D02*
X109179450Y-64277000D01*
X108417450Y-64785000D02*
X109179450Y-64404000D01*
X108417450Y-64785000D02*
X109179450Y-64531000D01*
X108417450Y-64785000D02*
X109179450Y-64658000D01*
X108417450Y-64785000D02*
X109179450Y-64912000D01*
X108417450Y-64785000D02*
X109179450Y-65039000D01*
X108417450Y-64785000D02*
X109179450Y-65166000D01*
X108417450Y-64785000D02*
X109179450Y-65293000D01*
X108417450Y-64785000D02*
X109179450Y-65420000D01*
X109179450Y-64150000D02*
X109179450Y-65420000D01*
X109433450Y-64785000D02*
X108163450Y-64785000D01*
X109796064Y-64121192D02*
G75*
G02*
X113744436Y-64121192I1974186J-663808D01*
G01*
X113744436Y-65448808D02*
G75*
G02*
X109796064Y-65448808I-1974186J663808D01*
G01*
%TO.C,LED4*%
X114146800Y-86890000D02*
X115416800Y-86890000D01*
X114400800Y-87525000D02*
X114400800Y-86255000D01*
X115162800Y-86890000D02*
X114400800Y-86255000D01*
X115162800Y-86890000D02*
X114400800Y-86382000D01*
X115162800Y-86890000D02*
X114400800Y-86509000D01*
X115162800Y-86890000D02*
X114400800Y-86636000D01*
X115162800Y-86890000D02*
X114400800Y-86763000D01*
X115162800Y-86890000D02*
X114400800Y-87017000D01*
X115162800Y-86890000D02*
X114400800Y-87144000D01*
X115162800Y-86890000D02*
X114400800Y-87271000D01*
X115162800Y-86890000D02*
X114400800Y-87398000D01*
X115162800Y-86890000D02*
X114400800Y-87525000D01*
X115162800Y-87525000D02*
X115162800Y-86255000D01*
X109835814Y-86226192D02*
G75*
G02*
X113784186Y-86226192I1974186J-663808D01*
G01*
X113784186Y-87553808D02*
G75*
G02*
X109835814Y-87553808I-1974186J663808D01*
G01*
%TO.C,LED1*%
X108417450Y-58705000D02*
X108417450Y-59975000D01*
X108417450Y-59340000D02*
X109179450Y-58705000D01*
X108417450Y-59340000D02*
X109179450Y-58832000D01*
X108417450Y-59340000D02*
X109179450Y-58959000D01*
X108417450Y-59340000D02*
X109179450Y-59086000D01*
X108417450Y-59340000D02*
X109179450Y-59213000D01*
X108417450Y-59340000D02*
X109179450Y-59467000D01*
X108417450Y-59340000D02*
X109179450Y-59594000D01*
X108417450Y-59340000D02*
X109179450Y-59721000D01*
X108417450Y-59340000D02*
X109179450Y-59848000D01*
X108417450Y-59340000D02*
X109179450Y-59975000D01*
X109179450Y-58705000D02*
X109179450Y-59975000D01*
X109433450Y-59340000D02*
X108163450Y-59340000D01*
X109796064Y-58676192D02*
G75*
G02*
X113744436Y-58676192I1974186J-663808D01*
G01*
X113744436Y-60003808D02*
G75*
G02*
X109796064Y-60003808I-1974186J663808D01*
G01*
%TD*%
M02*
